<svg version="1.1" id="Layer_1" xmlns="http://www.w3.org/2000/svg" xmlns:xlink="http://www.w3.org/1999/xlink" x="0px" y="0px"
	 width="100%" viewBox="0 0 360 168" enable-background="new 0 0 360 168" xml:space="preserve">
<path fill="#FFFFFF" opacity="1.000000" stroke="none" 
	d="
M269.000000,169.000000 
	C179.333359,169.000000 90.166710,169.000000 1.000048,169.000000 
	C1.000032,113.000038 1.000032,57.000069 1.000016,1.000078 
	C120.999939,1.000052 240.999878,1.000052 360.999878,1.000026 
	C360.999908,56.999924 360.999908,112.999847 360.999939,168.999878 
	C330.500000,169.000000 300.000000,169.000000 269.000000,169.000000 
M115.806648,58.245308 
	C114.266998,56.815708 112.727341,55.386108 110.741577,53.307457 
	C108.419762,52.538364 106.101532,51.112736 103.775597,51.100060 
	C75.339249,50.945065 46.901741,50.981960 18.464674,51.038494 
	C16.940048,51.041523 15.416648,51.661457 13.263906,52.255241 
	C10.488427,53.883987 7.712947,55.512733 4.194031,57.536602 
	C4.161401,76.337936 4.128770,95.139275 3.949513,114.818222 
	C4.000295,116.888565 4.051077,118.958916 4.019162,121.882271 
	C4.071551,123.592773 4.123941,125.303276 4.077502,127.732758 
	C6.912462,130.278412 9.264291,133.778778 13.867183,132.541183 
	C13.867183,132.541183 13.703026,132.624924 13.243478,133.395111 
	C14.173808,133.857315 15.104137,134.319519 16.706747,134.902969 
	C17.161314,134.928833 17.615879,134.954681 18.095036,135.899445 
	C18.010118,139.260818 17.925200,142.622208 17.381756,145.971771 
	C17.381756,145.971771 16.938187,146.088531 16.018322,146.019836 
	C12.097476,146.019836 8.176630,146.019836 4.253121,146.019836 
	C4.253121,153.327194 4.253121,159.921448 4.253121,166.606079 
	C122.946136,166.606079 241.377472,166.606079 359.717651,166.606079 
	C359.717651,159.599503 359.717651,153.004944 359.717651,146.072906 
	C348.630402,146.072906 337.842194,146.072906 326.616394,145.965393 
	C326.616394,145.965393 326.166199,145.983963 325.946808,145.111877 
	C325.886932,142.424164 325.827057,139.736435 325.959045,136.301758 
	C325.918640,135.534332 325.878235,134.766907 325.969452,133.070587 
	C325.994415,125.080528 326.019379,117.090477 326.916260,109.028992 
	C328.954529,108.947861 330.992828,108.866730 333.908844,108.906586 
	C336.270966,108.864708 338.633118,108.822830 341.494171,108.852211 
	C341.589813,108.567238 341.685455,108.282265 341.900177,107.208725 
	C341.864105,106.148529 341.828033,105.088333 341.950684,103.162994 
	C342.021271,101.891731 342.091858,100.620461 342.180481,99.024490 
	C345.357361,99.024490 348.150482,99.024490 351.016876,99.880455 
	C352.250824,106.470848 356.951324,101.226807 359.791626,103.118843 
	C359.791626,101.299416 359.791626,100.157387 359.964691,98.229935 
	C359.934204,97.159950 359.903717,96.089973 360.007751,94.334587 
	C359.963440,93.872658 359.919128,93.410728 359.981537,92.023453 
	C359.981537,81.806061 359.981537,71.588661 359.981537,60.936764 
	C356.083893,61.825100 351.334961,58.370197 350.332977,64.737091 
	C347.621521,64.737091 345.034027,64.737091 341.959534,64.737091 
	C341.959534,61.420845 341.959534,58.347057 341.959534,55.074841 
	C339.989685,55.074841 338.516022,55.074841 336.276642,54.943020 
	C335.504272,54.990467 334.731873,55.037914 333.062225,55.016926 
	C330.819611,55.016926 328.576996,55.016926 325.860168,55.016926 
	C325.860168,45.334312 325.860168,36.319553 325.860168,26.971395 
	C322.588104,26.971395 319.801178,26.971395 316.925140,26.046694 
	C316.962128,21.367117 316.999146,16.687542 317.916473,12.003188 
	C319.505829,11.920111 321.095184,11.837033 322.614136,11.757637 
	C322.614136,8.626643 322.614136,5.927868 322.614136,3.367996 
	C306.875946,3.367996 291.543732,3.367996 276.247498,3.367996 
	C276.247498,6.355652 276.247498,8.959114 276.247498,11.750082 
	C278.259766,11.921779 280.041656,12.073819 281.829834,12.825134 
	C281.888824,13.219276 281.947815,13.613420 281.991241,14.921729 
	C282.002106,18.272009 282.013000,21.622290 281.877106,25.566029 
	C281.852478,25.972595 281.827850,26.379162 280.927185,26.954033 
	C278.349060,26.954033 275.770966,26.954033 272.826843,26.954033 
	C272.826843,34.712948 272.826843,41.645565 272.826843,48.663670 
	C245.052292,48.663670 217.676865,48.663670 189.736694,48.663670 
	C189.736694,45.263470 189.736694,42.205345 189.736694,39.297417 
	C166.911377,39.297417 144.653900,39.297417 121.982536,39.297417 
	C121.982536,47.396469 121.982536,55.193939 121.156319,63.071571 
	C119.780708,62.994698 118.405106,62.917828 117.056900,62.391033 
	C117.056900,62.391033 116.925018,61.959999 116.983673,61.257603 
	C116.670685,60.450813 116.357689,59.644028 115.806648,58.245308 
z"/>
<path fill="#A2A2A4" opacity="1.000000" stroke="none" 
	d="
M16.938187,146.088531 
	C16.938187,146.088531 17.381756,145.971771 18.020515,146.049118 
	C21.734959,146.357666 24.810640,146.588882 28.363417,146.887360 
	C50.138618,146.970062 71.436752,147.002747 92.734756,146.961639 
	C94.136414,146.958939 95.536987,146.392715 97.159294,146.024902 
	C97.380524,145.961197 97.840424,145.983597 98.249908,146.055084 
	C101.735100,146.357773 104.810806,146.588959 108.361183,146.886566 
	C114.204758,146.662689 119.573669,146.372375 125.164658,146.022232 
	C125.386726,145.962387 125.846207,145.984100 126.274696,146.025513 
	C129.501236,146.347031 132.299088,146.869293 135.097366,146.871567 
	C192.160675,146.918091 249.224060,146.935074 306.287323,146.863556 
	C312.914001,146.855255 319.539917,146.290649 326.166199,145.983963 
	C326.166199,145.983963 326.616394,145.965393 327.120880,146.316833 
	C337.884460,146.668289 348.143555,146.668289 358.684082,146.668289 
	C358.684082,153.563446 358.684082,159.455383 358.684082,165.570160 
	C240.716187,165.570160 123.064034,165.570160 5.011103,165.570160 
	C5.011103,160.169479 4.816197,155.180603 5.157789,150.228729 
	C5.236280,149.090851 6.999613,147.459991 8.263540,147.137497 
	C11.062084,146.423370 14.035870,146.395981 16.938187,146.088531 
z"/>
<path fill="#66666A" opacity="1.000000" stroke="none" 
	d="
M326.056519,145.547913 
	C319.539917,146.290649 312.914001,146.855255 306.287323,146.863556 
	C249.224060,146.935074 192.160675,146.918091 135.097366,146.871567 
	C132.299088,146.869293 129.501236,146.347031 126.380302,145.601105 
	C126.033684,143.099396 126.009949,141.063492 126.018860,138.813736 
	C126.051491,138.599869 126.106499,138.170715 126.567566,138.146729 
	C147.566879,138.122742 168.105118,138.122742 188.490189,138.122742 
	C189.079834,133.522324 189.560211,129.774475 190.020767,126.011826 
	C190.000961,125.997040 190.001144,126.046478 190.469360,126.066147 
	C218.291855,126.096794 245.646103,126.107773 272.993225,126.573135 
	C272.990387,128.350266 273.164886,129.698914 272.968384,130.991150 
	C272.255554,135.678513 273.971649,137.224991 278.856628,137.112976 
	C293.564728,136.775803 308.284882,136.964127 323.346069,136.964340 
	C324.383575,137.003693 325.075378,137.026199 325.767181,137.048721 
	C325.827057,139.736435 325.886932,142.424164 326.056519,145.547913 
z"/>
<path fill="#807F85" opacity="1.000000" stroke="none" 
	d="
M323.000366,136.947510 
	C308.284882,136.964127 293.564728,136.775803 278.856628,137.112976 
	C273.971649,137.224991 272.255554,135.678513 272.968384,130.991150 
	C273.164886,129.698914 272.990387,128.350266 272.992065,126.092697 
	C273.007782,119.771935 273.017609,114.385963 273.393982,109.073807 
	C274.850372,111.175484 275.940155,113.203354 277.029938,115.231232 
	C277.686615,115.024338 278.343323,114.817451 279.000000,114.610565 
	C279.000000,112.423622 279.000000,110.236687 279.468384,108.030289 
	C294.944824,108.002197 309.952911,107.993553 325.198792,108.108803 
	C325.639191,108.521935 325.841766,108.811172 326.044373,109.100418 
	C326.019379,117.090477 325.994415,125.080528 325.546295,133.544464 
	C324.415527,134.994736 323.707947,135.971115 323.000366,136.947510 
z"/>
<path fill="#818183" opacity="1.000000" stroke="none" 
	d="
M13.892677,51.994217 
	C15.416648,51.661457 16.940048,51.041523 18.464674,51.038494 
	C46.901741,50.981960 75.339249,50.945065 103.775597,51.100060 
	C106.101532,51.112736 108.419762,52.538364 110.567230,53.708969 
	C109.940346,56.418133 109.487808,58.725780 109.029907,61.460327 
	C109.041695,63.595341 109.058846,65.303459 109.051231,67.478638 
	C109.039131,77.620674 109.051804,87.295647 109.039230,97.430389 
	C109.025818,101.249046 109.037636,104.607956 109.037399,108.355530 
	C109.631546,113.921692 113.541992,112.909027 116.937080,113.387085 
	C116.995926,115.910690 117.010918,117.991226 116.602455,120.048988 
	C113.219994,120.319115 109.277779,118.854340 109.032883,124.389389 
	C109.009399,125.503990 108.996307,126.247025 108.515625,126.993477 
	C84.608322,126.997375 61.167881,126.916405 37.730106,127.128937 
	C35.478043,127.149361 33.242535,128.995407 30.751257,129.993317 
	C30.503170,129.992676 30.007013,129.988739 29.916130,129.821075 
	C29.552496,129.771408 29.279743,129.889389 29.002956,130.317902 
	C28.753136,131.120102 28.507351,131.611786 28.261568,132.103470 
	C25.195995,127.058060 20.213987,129.614655 16.007992,128.575195 
	C16.006620,125.767769 16.023882,123.404243 16.497768,121.027466 
	C19.393568,121.010963 21.845507,120.848976 24.268744,121.043877 
	C27.428043,121.297989 28.339781,119.793442 28.223372,116.960999 
	C28.652493,116.941589 28.824377,116.939835 28.997232,117.320908 
	C28.998589,118.467392 28.998972,119.231033 29.085979,120.393936 
	C30.667740,121.191902 32.161732,121.932892 33.658180,121.937897 
	C55.590675,122.011101 77.523552,122.007065 99.456100,121.940361 
	C101.013657,121.935631 102.569290,121.298775 104.480209,120.919601 
	C105.945984,120.087769 107.057381,119.292191 108.517555,118.246948 
	C106.448051,117.193794 105.220795,116.569252 104.005753,115.691986 
	C104.037956,115.271767 104.057945,115.104271 104.454575,114.949738 
	C110.528793,114.483963 107.307358,112.006271 105.972687,109.692764 
	C105.991600,109.267487 105.993050,109.096970 106.152451,108.616394 
	C109.150566,105.696007 107.839012,103.317665 106.077675,100.667297 
	C109.127823,97.751259 107.913902,95.349022 106.055855,92.678482 
	C106.554504,90.502617 106.875191,88.635788 107.204796,86.770546 
	C107.427635,85.509521 107.663048,84.250710 107.931084,82.619797 
	C107.264236,80.828972 106.559135,79.409256 106.008759,77.717087 
	C106.108223,75.659088 106.052956,73.873535 105.999786,71.839478 
	C106.001892,71.590958 105.962387,71.095474 106.297226,70.902359 
	C107.059982,68.488266 107.487885,66.267296 107.942284,63.581074 
	C107.980888,61.454395 107.776031,59.756905 108.045044,58.138165 
	C108.914314,52.907280 106.603828,51.839165 101.696548,51.897533 
	C79.601021,52.160347 57.500607,52.011311 35.401951,52.010757 
	C33.463047,52.010712 31.524143,52.010754 28.999655,52.010754 
	C28.999655,55.438313 28.999655,58.219303 28.803347,61.010689 
	C28.607038,61.021088 28.215340,60.987076 28.135342,61.016033 
	C28.055346,61.044991 27.885374,61.052837 27.926521,60.595863 
	C27.967667,57.578609 27.967667,55.018326 27.967667,51.994221 
	C22.741558,51.994221 18.317118,51.994221 13.892677,51.994217 
M29.594122,127.518982 
	C29.594122,127.518982 29.478037,127.589729 29.594122,127.518982 
z"/>
<path fill="#818183" opacity="1.000000" stroke="none" 
	d="
M16.478254,146.054184 
	C14.035870,146.395981 11.062084,146.423370 8.263540,147.137497 
	C6.999613,147.459991 5.236280,149.090851 5.157789,150.228729 
	C4.816197,155.180603 5.011103,160.169479 5.011103,165.570160 
	C123.064034,165.570160 240.716187,165.570160 358.684082,165.570160 
	C358.684082,159.455383 358.684082,153.563446 358.684082,146.668289 
	C348.143555,146.668289 337.884460,146.668289 327.339661,146.370605 
	C337.842194,146.072906 348.630402,146.072906 359.717651,146.072906 
	C359.717651,153.004944 359.717651,159.599503 359.717651,166.606079 
	C241.377472,166.606079 122.946136,166.606079 4.253121,166.606079 
	C4.253121,159.921448 4.253121,153.327194 4.253121,146.019836 
	C8.176630,146.019836 12.097476,146.019836 16.478254,146.054184 
z"/>
<path fill="#818183" opacity="1.000000" stroke="none" 
	d="
M279.000000,108.049744 
	C279.000000,110.236687 279.000000,112.423622 279.000000,114.610565 
	C278.343323,114.817451 277.686615,115.024338 277.029938,115.231232 
	C275.940155,113.203354 274.850372,111.175484 273.381042,108.605270 
	C272.978455,96.349388 272.955444,84.635834 272.959778,72.460800 
	C272.987122,64.752312 272.987122,57.505295 272.987122,50.329395 
	C244.919571,50.329395 217.685577,50.329395 190.154465,50.329395 
	C190.154465,57.786758 190.154465,64.911011 190.101089,72.246017 
	C190.047714,72.456779 190.083542,72.890129 190.058411,73.365051 
	C190.022552,91.242134 190.011841,108.644310 190.001144,126.046478 
	C190.001144,126.046478 190.000961,125.997040 189.704987,125.729309 
	C189.271011,123.662270 189.017990,121.863289 189.012756,120.063591 
	C188.959381,101.679596 188.946274,83.295479 188.954071,64.451080 
	C188.986252,56.079025 188.986252,48.167294 188.986252,40.351231 
	C166.575302,40.351231 145.005005,40.351231 122.753510,40.351231 
	C122.753510,48.147259 122.753510,55.603798 122.560219,63.049271 
	C122.366928,63.038197 121.982536,62.991405 121.982536,62.991405 
	C121.982536,55.193939 121.982536,47.396469 121.982536,39.297417 
	C144.653900,39.297417 166.911377,39.297417 189.736694,39.297417 
	C189.736694,42.205345 189.736694,45.263470 189.736694,48.663670 
	C217.676865,48.663670 245.052292,48.663670 272.826843,48.663670 
	C272.826843,41.645565 272.826843,34.712948 272.826843,26.954033 
	C275.770966,26.954033 278.349060,26.954033 281.847565,26.866486 
	C288.169495,26.811440 293.571045,26.843939 299.370728,26.922108 
	C300.832397,26.945045 301.895996,26.922314 303.358093,26.936512 
	C304.823853,26.963766 305.891113,26.954088 307.172729,27.050446 
	C307.669861,27.333237 307.859070,27.581312 307.490417,27.939541 
	C296.143646,27.978382 285.261230,27.978382 274.160034,27.978382 
	C274.160034,37.166004 274.160034,45.601036 274.103149,54.245758 
	C274.046265,54.455448 274.085754,54.888191 274.060669,55.363243 
	C274.035553,73.045006 274.035553,90.251709 274.035553,107.697205 
	C276.082550,107.842567 277.541290,107.946152 279.000000,108.049744 
z"/>
<path fill="#6E6E70" opacity="1.000000" stroke="none" 
	d="
M30.007013,129.988739 
	C30.007013,129.988739 30.503170,129.992676 31.043224,130.293091 
	C32.224743,130.726349 32.866081,130.974609 33.507694,130.975342 
	C53.583778,130.997910 73.659889,130.996124 93.735992,130.998734 
	C98.489067,130.999344 103.242142,131.002350 108.104706,131.226730 
	C108.412979,131.732788 108.679863,131.918610 109.127480,132.179352 
	C109.240105,132.352081 109.446388,132.709183 109.309662,132.909027 
	C108.992439,133.381241 108.864868,133.676483 108.620277,134.086395 
	C108.238586,134.338287 108.086647,134.542786 107.736053,134.856781 
	C107.301208,134.943069 107.124802,134.964279 106.732590,135.000946 
	C106.516777,135.016373 106.084076,135.021210 105.813744,134.739960 
	C103.329727,134.646408 101.116043,134.834137 98.694214,135.018555 
	C98.486061,135.015244 98.071182,134.980316 97.598526,134.956451 
	C73.732910,134.950134 50.339943,134.967682 26.733425,135.000580 
	C26.519876,135.015945 26.091711,135.021698 25.820652,134.740021 
	C23.334213,134.646179 21.118832,134.834000 18.694851,135.018555 
	C18.486252,135.015274 18.070446,134.980545 18.070446,134.980545 
	C17.615879,134.954681 17.161314,134.928833 16.362774,134.531876 
	C15.986221,133.747055 15.953643,133.333313 15.933569,132.529327 
	C15.972924,131.099060 15.999774,130.059082 16.026625,129.019089 
	C20.213987,129.614655 25.195995,127.058060 28.261568,132.103470 
	C28.507351,131.611786 28.753136,131.120102 29.252935,130.313629 
	C29.673637,129.995453 29.840324,129.992096 30.007013,129.988739 
z"/>
<path fill="#666669" opacity="1.000000" stroke="none" 
	d="
M121.569427,63.031487 
	C121.982536,62.991405 122.366928,63.038197 122.639091,63.290413 
	C122.970520,63.700993 123.029785,63.859360 123.023254,64.254684 
	C122.957458,64.491646 123.018875,64.979637 122.974609,65.447906 
	C122.899529,84.575829 122.868706,103.235489 122.684341,121.911850 
	C122.530792,121.928551 122.222885,121.953323 122.010864,121.609909 
	C120.194260,121.158783 118.589676,121.051071 116.999023,120.725647 
	C117.012970,120.507927 117.025909,120.071762 117.025909,120.071762 
	C117.010918,117.991226 116.995926,115.910690 116.958923,112.961304 
	C116.865547,110.372726 116.794182,108.653015 116.776855,106.525749 
	C116.560577,103.080803 116.290260,100.043411 116.045807,96.537498 
	C116.055885,86.378441 116.040115,76.687904 116.057495,66.638290 
	C116.403595,65.133133 116.716545,63.987049 117.029495,62.840958 
	C118.405106,62.917828 119.780708,62.994698 121.569427,63.031487 
z"/>
<path fill="#818183" opacity="1.000000" stroke="none" 
	d="
M350.943573,99.024490 
	C348.150482,99.024490 345.357361,99.024490 342.180481,99.024490 
	C342.091858,100.620461 342.021271,101.891731 341.485931,103.529037 
	C338.342590,103.590599 335.664001,103.286125 332.993561,102.569756 
	C333.716400,101.118576 334.479828,99.149452 335.138245,99.183968 
	C341.651703,99.525337 340.848053,94.960793 340.963226,90.516174 
	C340.956879,88.044380 340.938477,86.005760 340.940002,83.540146 
	C340.929474,81.402061 340.899048,79.690964 340.907898,77.519669 
	C340.915100,73.047104 340.883026,69.034752 340.899963,64.629433 
	C340.941742,63.185974 340.934509,62.135479 340.952698,60.676373 
	C341.948944,56.806671 339.220825,56.149040 337.042358,55.074841 
	C338.516022,55.074841 339.989685,55.074841 341.959534,55.074841 
	C341.959534,58.347057 341.959534,61.420845 341.959534,64.737091 
	C345.034027,64.737091 347.621521,64.737091 350.332977,64.737091 
	C351.334961,58.370197 356.083893,61.825100 359.981537,60.936764 
	C359.981537,71.588661 359.981537,81.806061 359.696838,92.311508 
	C359.257294,92.048340 359.102417,91.497108 358.956635,90.521072 
	C358.938141,88.382156 358.910553,86.668053 358.915009,84.489311 
	C358.948303,78.050697 359.200439,72.058243 358.762878,66.116585 
	C358.661652,64.741661 356.203552,63.540295 354.829987,62.259064 
	C353.904205,63.520905 352.233826,64.751320 352.179016,66.049927 
	C351.913361,72.343643 352.081329,78.655670 352.058868,85.389847 
	C352.031799,87.527946 352.041534,89.237404 352.035248,91.333084 
	C352.451172,98.021301 357.140991,94.191643 359.873230,95.019989 
	C359.903717,96.089973 359.934204,97.159950 359.505920,98.615723 
	C356.346436,99.176109 353.632751,94.783127 350.943573,99.024490 
M350.979462,88.121803 
	C350.950684,86.730728 350.921875,85.339645 350.942932,83.025002 
	C350.929657,78.381126 350.916382,73.737259 350.952148,68.257484 
	C349.650085,64.103928 346.277191,66.518364 343.858093,66.274155 
	C343.391205,66.227036 342.667847,68.720497 342.027557,70.964188 
	C342.052032,75.282761 342.076508,79.601334 342.025116,84.762505 
	C342.025787,86.164841 342.026459,87.567177 342.002991,89.735031 
	C342.391357,96.767258 347.717987,92.016953 350.958160,94.038857 
	C350.958160,91.855431 350.958160,90.405121 350.979462,88.121803 
z"/>
<path fill="#B8B8BB" opacity="1.000000" stroke="none" 
	d="
M298.972595,26.876438 
	C293.571045,26.843939 288.169495,26.811440 282.285583,26.782333 
	C281.827850,26.379162 281.852478,25.972595 282.287323,25.029652 
	C282.467316,20.998037 282.237061,17.502800 282.006836,14.007565 
	C281.947815,13.613420 281.888824,13.219276 282.307617,12.523441 
	C288.182251,12.184316 293.579102,12.146882 298.991821,12.489328 
	C298.996002,17.538284 298.984283,22.207361 298.972595,26.876438 
z"/>
<path fill="#A6A6A8" opacity="1.000000" stroke="none" 
	d="
M13.578292,52.124733 
	C18.317118,51.994221 22.741558,51.994221 27.967667,51.994221 
	C27.967667,55.018326 27.967667,57.578609 27.507908,60.578163 
	C25.909048,61.096371 24.698195,60.953129 23.643599,61.293716 
	C19.644039,62.585373 16.039993,63.200367 15.232392,56.955070 
	C14.828661,57.171223 14.424930,57.387371 14.021198,57.603519 
	C14.021198,60.739185 14.021198,63.874847 14.013957,67.477783 
	C13.671393,74.288437 13.336070,80.631813 13.000999,86.549431 
	C12.998882,84.414703 12.996514,82.705750 12.994323,80.529114 
	C12.981313,74.388809 12.968125,68.716179 12.890586,62.653755 
	C10.245002,61.850002 7.663772,61.436047 5.055408,60.634369 
	C4.998006,59.211586 4.967737,58.176529 4.937468,57.141479 
	C7.712947,55.512733 10.488427,53.883987 13.578292,52.124733 
z"/>
<path fill="#818183" opacity="1.000000" stroke="none" 
	d="
M298.975922,12.109449 
	C293.579102,12.146882 288.182251,12.184316 282.304504,12.223804 
	C280.041656,12.073819 278.259766,11.921779 276.247498,11.750082 
	C276.247498,8.959114 276.247498,6.355652 276.247498,3.367996 
	C291.543732,3.367996 306.875946,3.367996 322.614136,3.367996 
	C322.614136,5.927868 322.614136,8.626643 322.614136,11.757637 
	C321.095184,11.837033 319.505829,11.920111 317.074036,12.015311 
	C315.163025,12.852273 313.637115,13.464868 313.132782,14.551551 
	C312.371704,16.191586 312.323608,18.162510 311.639252,19.811081 
	C310.868042,17.985674 310.686066,16.206020 309.908691,14.742640 
	C309.319366,13.633319 307.971375,12.927047 306.546814,12.029661 
	C304.750946,12.035131 303.369202,12.052360 301.611145,12.048578 
	C300.481873,12.054862 299.728882,12.082156 298.975922,12.109449 
M309.129272,4.026388 
	C307.740509,4.047045 306.351746,4.067702 304.110016,4.044171 
	C302.399445,4.061321 300.688904,4.078472 298.046997,4.039330 
	C292.386169,4.060425 286.725342,4.081520 280.227203,4.029869 
	C276.861908,3.631558 277.042267,5.888078 276.998718,8.167380 
	C276.938721,11.308662 279.000610,11.043685 281.983551,10.965907 
	C287.648407,10.937470 293.313232,10.909034 299.848053,10.968752 
	C301.881409,10.940854 303.914734,10.912956 306.752380,10.963581 
	C307.826355,10.966989 308.900299,10.970395 310.790924,10.992703 
	C311.857422,9.961008 312.923950,8.929314 313.990448,7.897618 
	C312.647339,6.611867 311.304260,5.326116 309.129272,4.026388 
z"/>
<path fill="#9B9B9D" opacity="1.000000" stroke="none" 
	d="
M16.007992,128.575195 
	C15.999774,130.059082 15.972924,131.099060 15.559650,132.533569 
	C14.683161,132.827026 14.193093,132.725967 13.703026,132.624924 
	C13.703026,132.624924 13.867183,132.541183 13.924644,132.141495 
	C13.978390,130.165207 13.974675,128.588608 13.982379,126.581604 
	C13.993797,124.272377 13.993797,122.393547 13.993797,121.029259 
	C10.198244,121.029259 7.150052,121.029259 4.101859,121.029259 
	C4.051077,118.958916 4.000295,116.888565 4.294975,114.131378 
	C4.779305,111.954308 4.918171,110.464081 5.487354,108.982391 
	C12.980730,108.979538 12.980730,108.979538 13.098059,101.765823 
	C13.411743,101.268661 13.677955,101.082764 14.009199,101.385422 
	C14.015156,102.845253 14.019233,103.906952 14.012171,105.433350 
	C14.000390,107.717033 13.756968,109.577171 14.056660,111.345253 
	C14.493735,113.923874 15.321299,116.436317 15.988852,119.320755 
	C16.010586,120.123268 16.025864,120.581985 16.041142,121.040710 
	C16.023882,123.404243 16.006620,125.767769 16.007992,128.575195 
z"/>
<path fill="#666669" opacity="1.000000" stroke="none" 
	d="
M18.082741,135.440002 
	C18.070446,134.980545 18.486252,135.015274 19.146694,135.011139 
	C21.901997,135.011917 23.996853,135.016815 26.091711,135.021698 
	C26.091711,135.021698 26.519876,135.015945 26.712364,135.456818 
	C27.253716,139.343063 27.602581,142.788437 27.936853,146.380569 
	C27.922258,146.527328 27.886324,146.820084 27.886324,146.820099 
	C24.810640,146.588882 21.734959,146.357666 18.249779,146.055023 
	C17.925200,142.622208 18.010118,139.260818 18.082741,135.440002 
z"/>
<path fill="#818183" opacity="1.000000" stroke="none" 
	d="
M317.014252,26.971395 
	C319.801178,26.971395 322.588104,26.971395 325.860168,26.971395 
	C325.860168,36.319553 325.860168,45.334312 325.860168,55.016926 
	C328.576996,55.016926 330.819611,55.016926 333.401062,55.286633 
	C333.457611,55.752159 333.175323,55.947975 332.599487,56.110466 
	C331.911804,56.083851 331.517609,56.090569 330.717041,56.069592 
	C329.004395,56.155025 327.698120,56.268147 326.348663,56.385010 
	C326.657532,58.365196 326.875214,59.760639 327.017212,61.555748 
	C326.659332,67.292961 326.377136,72.630508 326.059387,78.412064 
	C326.046021,81.220680 326.068268,83.585304 326.052246,86.389923 
	C326.020874,88.875732 326.027802,90.921539 326.021454,93.335243 
	C325.674652,94.798431 325.341125,95.893730 325.001465,96.521088 
	C324.967072,82.335983 324.938782,68.618820 324.946228,54.442547 
	C324.981934,45.443901 324.981934,36.904358 324.981934,28.270475 
	C321.845886,28.067255 319.392609,27.908281 316.941223,27.553207 
	C316.943146,27.357111 317.014252,26.971395 317.014252,26.971395 
z"/>
<path fill="#818183" opacity="1.000000" stroke="none" 
	d="
M326.480316,109.064705 
	C325.841766,108.811172 325.639191,108.521935 325.211243,107.657135 
	C324.997162,104.062080 325.008423,101.042595 325.364594,98.165154 
	C327.241974,98.681389 328.774475,99.055580 330.069122,99.371689 
	C330.784637,100.702087 331.423248,101.889473 332.091370,103.439896 
	C332.424286,105.463821 332.727692,107.124710 333.031128,108.785599 
	C330.992828,108.866730 328.954529,108.947861 326.480316,109.064705 
z"/>
<path fill="#666669" opacity="1.000000" stroke="none" 
	d="
M316.969696,26.509045 
	C317.014252,26.971395 316.943146,27.357111 316.585022,27.608349 
	C315.508728,27.822950 314.790588,27.786312 314.042786,27.415686 
	C313.322693,26.391966 312.632294,25.702234 312.041382,24.765343 
	C312.084717,23.009722 312.028625,21.501261 311.972504,19.992798 
	C312.323608,18.162510 312.371704,16.191586 313.132782,14.551551 
	C313.637115,13.464868 315.163025,12.852273 316.633850,12.017700 
	C316.999146,16.687542 316.962128,21.367117 316.969696,26.509045 
z"/>
<path fill="#818183" opacity="1.000000" stroke="none" 
	d="
M4.060511,121.455765 
	C7.150052,121.029259 10.198244,121.029259 13.993797,121.029259 
	C13.993797,122.393547 13.993797,124.272377 13.535707,126.577805 
	C10.110522,127.007523 7.143426,127.010651 4.176330,127.013779 
	C4.123941,125.303276 4.071551,123.592773 4.060511,121.455765 
z"/>
<path fill="#818183" opacity="1.000000" stroke="none" 
	d="
M5.057037,108.973854 
	C4.918171,110.464081 4.779305,111.954308 4.368289,113.692574 
	C4.128770,95.139275 4.161401,76.337936 4.565749,57.339039 
	C4.967737,58.176529 4.998006,59.211586 5.027710,61.061493 
	C5.055554,63.592793 5.083963,65.309242 5.079462,67.489029 
	C5.065438,72.629501 5.084324,77.306641 5.060518,82.441589 
	C5.043557,86.261826 5.069290,89.624245 5.059307,93.431000 
	C5.041502,96.249672 5.059413,98.624016 5.046437,101.440994 
	C5.029379,104.247047 5.043208,106.610451 5.057037,108.973854 
z"/>
<path fill="#6E6E70" opacity="1.000000" stroke="none" 
	d="
M333.469971,108.846092 
	C332.727692,107.124710 332.424286,105.463821 332.321838,103.414368 
	C332.522766,103.025803 332.985413,102.981644 332.985413,102.981644 
	C335.664001,103.286125 338.342590,103.590599 341.406555,103.961609 
	C341.828033,105.088333 341.864105,106.148529 341.670929,107.690536 
	C341.230011,108.329102 341.081207,108.531967 340.995239,108.780945 
	C338.633118,108.822830 336.270966,108.864708 333.469971,108.846092 
z"/>
<path fill="#9B9B9D" opacity="1.000000" stroke="none" 
	d="
M332.893005,56.143795 
	C333.175323,55.947975 333.457611,55.752159 333.849731,55.320850 
	C334.731873,55.037914 335.504272,54.990467 336.659485,55.008930 
	C339.220825,56.149040 341.948944,56.806671 340.609039,60.805119 
	C334.585449,62.418949 333.240143,61.467014 332.893005,56.143795 
z"/>
<path fill="#777779" opacity="1.000000" stroke="none" 
	d="
M4.126916,127.373268 
	C7.143426,127.010651 10.110522,127.007523 13.524290,127.008194 
	C13.974675,128.588608 13.978390,130.165207 13.953659,132.228943 
	C9.264291,133.778778 6.912462,130.278412 4.126916,127.373268 
z"/>
<path fill="#777779" opacity="1.000000" stroke="none" 
	d="
M350.980225,99.452469 
	C353.632751,94.783127 356.346436,99.176109 359.419373,99.008430 
	C359.791626,100.157387 359.791626,101.299416 359.791626,103.118843 
	C356.951324,101.226807 352.250824,106.470848 350.980225,99.452469 
z"/>
<path fill="#A2A2A4" opacity="1.000000" stroke="none" 
	d="
M117.043198,62.615997 
	C116.716545,63.987049 116.403595,65.133133 115.620079,66.639526 
	C113.125015,67.003754 111.100502,67.007660 109.075996,67.011566 
	C109.058846,65.303459 109.041695,63.595341 109.461594,61.446548 
	C111.922279,61.013733 113.945900,61.021591 116.069138,61.241402 
	C116.340218,61.742550 116.592308,61.911434 116.925018,61.959999 
	C116.925018,61.959999 117.056900,62.391033 117.043198,62.615997 
z"/>
<path fill="#909092" opacity="1.000000" stroke="none" 
	d="
M115.969528,61.029449 
	C113.945900,61.021591 111.922279,61.013733 109.466965,61.019650 
	C109.487808,58.725780 109.940346,56.418133 110.790283,54.033501 
	C112.727341,55.386108 114.266998,56.815708 115.913467,58.906685 
	C116.003365,60.055195 115.986443,60.542320 115.969528,61.029449 
z"/>
<path fill="#909092" opacity="1.000000" stroke="none" 
	d="
M359.940491,94.677292 
	C357.140991,94.191643 352.451172,98.021301 352.464996,91.349121 
	C354.923004,90.967926 356.935272,90.956909 358.947540,90.945885 
	C359.102417,91.497108 359.257294,92.048340 359.643494,92.774185 
	C359.919128,93.410728 359.963440,93.872658 359.940491,94.677292 
z"/>
<path fill="#818183" opacity="1.000000" stroke="none" 
	d="
M281.999023,14.464647 
	C282.237061,17.502800 282.467316,20.998037 282.360718,24.732922 
	C282.013000,21.622290 282.002106,18.272009 281.999023,14.464647 
z"/>
<path fill="#818183" opacity="1.000000" stroke="none" 
	d="
M323.346069,136.964355 
	C323.707947,135.971115 324.415527,134.994736 325.480469,134.008911 
	C325.878235,134.766907 325.918640,135.534332 325.863098,136.675232 
	C325.075378,137.026199 324.383575,137.003693 323.346069,136.964355 
z"/>
<path fill="#818183" opacity="1.000000" stroke="none" 
	d="
M13.473252,133.010010 
	C14.193093,132.725967 14.683161,132.827026 15.547146,132.923828 
	C15.953643,133.333313 15.986221,133.747055 16.026634,134.471252 
	C15.104137,134.319519 14.173808,133.857315 13.473252,133.010010 
z"/>
<path fill="#818183" opacity="1.000000" stroke="none" 
	d="
M116.069138,61.241402 
	C115.986443,60.542320 116.003365,60.055195 116.032494,59.202652 
	C116.357689,59.644028 116.670685,60.450813 116.954346,61.608803 
	C116.592308,61.911434 116.340218,61.742550 116.069138,61.241402 
z"/>
<path fill="#818183" opacity="1.000000" stroke="none" 
	d="
M341.244690,108.816574 
	C341.081207,108.531967 341.230011,108.329102 341.611389,108.084824 
	C341.685455,108.282265 341.589813,108.567238 341.244690,108.816574 
z"/>
<path fill="#FFFFFF" opacity="1.000000" stroke="none" 
	d="
M27.951448,146.233810 
	C27.602581,142.788437 27.253716,139.343063 26.925913,135.441467 
	C50.339943,134.967682 73.732910,134.950134 97.611084,135.415924 
	C98.011002,139.260712 97.925713,142.622162 97.840424,145.983597 
	C97.840424,145.983597 97.380524,145.961197 96.696472,145.990479 
	C73.325432,146.091095 50.638443,146.162460 27.951448,146.233810 
z"/>
<path fill="#FFFFFF" opacity="1.000000" stroke="none" 
	d="
M116.985077,120.943367 
	C118.589676,121.051071 120.194260,121.158783 121.919418,122.073364 
	C122.039993,128.169296 122.039993,133.458359 122.039993,138.804596 
	C123.670387,138.896729 124.828308,138.962173 125.986221,139.027618 
	C126.009949,141.063492 126.033684,143.099396 125.951813,145.559692 
	C125.846207,145.984100 125.386726,145.962387 124.702469,145.987244 
	C118.662445,146.086014 113.306679,146.159897 107.585693,145.987976 
	C107.129784,142.156616 107.039085,138.571060 106.948395,134.985504 
	C107.124802,134.964279 107.301208,134.943069 107.988754,134.891312 
	C108.596680,134.572052 108.693451,134.283325 108.790230,133.994598 
	C108.864868,133.676483 108.992439,133.381241 109.671715,132.939362 
	C112.891922,129.878922 117.726158,128.408493 116.811676,122.677429 
	C116.925400,121.873253 116.955238,121.408310 116.985077,120.943367 
z"/>
<path fill="#666669" opacity="1.000000" stroke="none" 
	d="
M106.732590,135.000946 
	C107.039085,138.571060 107.129784,142.156616 107.571426,146.134766 
	C107.922371,146.527344 107.886520,146.820129 107.886520,146.820129 
	C104.810806,146.588959 101.735100,146.357773 98.249908,146.055084 
	C97.925713,142.622162 98.011002,139.260712 98.083733,135.439789 
	C98.071182,134.980316 98.486061,135.015244 99.145943,135.011429 
	C101.898575,135.012146 103.991325,135.016678 106.084076,135.021210 
	C106.084076,135.021210 106.516777,135.016373 106.732590,135.000946 
z"/>
<path fill="#818183" opacity="1.000000" stroke="none" 
	d="
M27.936853,146.380569 
	C50.638443,146.162460 73.325432,146.091095 96.475250,146.054184 
	C95.536987,146.392715 94.136414,146.958939 92.734756,146.961639 
	C71.436752,147.002747 50.138618,146.970062 28.363417,146.887360 
	C27.886324,146.820084 27.922258,146.527328 27.936853,146.380569 
z"/>
<path fill="#818183" opacity="1.000000" stroke="none" 
	d="
M108.361183,146.886566 
	C107.886520,146.820129 107.922371,146.527344 107.936638,146.380554 
	C113.306679,146.159897 118.662445,146.086014 124.480400,146.047089 
	C119.573669,146.372375 114.204758,146.662689 108.361183,146.886566 
z"/>
<path fill="#A2A2A4" opacity="1.000000" stroke="none" 
	d="
M122.837891,121.895149 
	C122.868706,103.235489 122.899529,84.575829 123.441711,65.455666 
	C145.270584,64.961487 166.588074,64.927818 188.159317,64.917862 
	C188.582687,64.931511 188.752304,64.921455 188.921906,64.911400 
	C188.946274,83.295479 188.959381,101.679596 189.012756,120.063591 
	C189.017990,121.863289 189.271011,123.662270 189.724792,125.744095 
	C189.560211,129.774475 189.079834,133.522324 188.490189,138.122742 
	C168.105118,138.122742 147.566879,138.122742 126.143303,138.074310 
	C124.507774,136.859497 123.201004,135.735489 123.108383,134.519058 
	C122.789330,130.328506 122.894394,126.105682 122.837891,121.895149 
z"/>
<path fill="#A2A2A4" opacity="1.000000" stroke="none" 
	d="
M272.932465,72.922279 
	C272.955444,84.635834 272.978455,96.349388 273.014435,108.531471 
	C273.017609,114.385963 273.007782,119.771935 272.999176,125.638329 
	C245.646103,126.107773 218.291855,126.096794 190.469360,126.066147 
	C190.011841,108.644310 190.022552,91.242134 190.518768,73.407288 
	C217.974075,72.950928 244.943878,72.927254 272.168030,72.928772 
	C272.592377,72.943398 272.762421,72.932838 272.932465,72.922279 
z"/>
<path fill="#818183" opacity="1.000000" stroke="none" 
	d="
M122.684341,121.911850 
	C122.894394,126.105682 122.789330,130.328506 123.108383,134.519058 
	C123.201004,135.735489 124.507774,136.859497 125.682236,138.098297 
	C126.106499,138.170715 126.051491,138.599869 126.018860,138.813751 
	C124.828308,138.962173 123.670387,138.896729 122.039993,138.804596 
	C122.039993,133.458359 122.039993,128.169296 122.131439,122.416786 
	C122.222885,121.953323 122.530792,121.928551 122.684341,121.911850 
z"/>
<path fill="#A2A2A4" opacity="1.000000" stroke="none" 
	d="
M325.019714,98.023102 
	C325.008423,101.042595 324.997162,104.062080 324.973450,107.533249 
	C309.952911,107.993553 294.944824,108.002197 279.468384,108.030289 
	C277.541290,107.946152 276.082550,107.842567 274.035553,107.697205 
	C274.035553,90.251709 274.035553,73.045006 274.445007,55.405704 
	C275.884033,54.959904 276.913666,54.946697 278.293335,54.969559 
	C279.111481,54.986320 279.579590,54.967014 280.511292,54.969830 
	C295.286957,54.962021 309.598969,54.932091 324.160889,54.924782 
	C324.577362,54.932152 324.743927,54.916901 324.910492,54.901649 
	C324.938782,68.618820 324.967072,82.335983 324.998383,96.779755 
	C325.007477,97.678596 325.013580,97.850853 325.019714,98.023102 
z"/>
<path fill="#A2A2A4" opacity="1.000000" stroke="none" 
	d="
M28.999655,61.000290 
	C28.999655,58.219303 28.999655,55.438313 28.999655,52.010754 
	C31.524143,52.010754 33.463047,52.010712 35.401951,52.010757 
	C57.500607,52.011311 79.601021,52.160347 101.696548,51.897533 
	C106.603828,51.839165 108.914314,52.907280 108.045044,58.138165 
	C107.776031,59.756905 107.980888,61.454395 107.583427,63.566528 
	C106.130028,63.668293 105.061981,63.319363 103.919380,62.567451 
	C102.013100,61.785404 100.182549,61.082993 98.349480,61.076351 
	C75.233078,60.992638 52.116322,61.009281 28.999655,61.000290 
z"/>
<path fill="#666669" opacity="1.000000" stroke="none" 
	d="
M105.962387,71.095474 
	C105.962387,71.095474 106.001892,71.590958 105.605179,71.975914 
	C103.427666,72.571220 101.647278,72.960670 99.865990,72.964828 
	C76.260445,73.019958 52.654781,73.020973 28.852192,72.995911 
	C28.655235,72.956314 28.257603,72.903358 28.213604,72.496765 
	C28.109503,70.727066 28.049404,69.363968 28.052059,67.586960 
	C29.300026,66.449875 30.481806,65.102409 31.670956,65.095879 
	C54.545929,64.970123 77.421928,64.970314 100.296989,65.086418 
	C101.535706,65.092705 102.768105,66.341370 103.534554,67.003342 
	C78.515579,66.994972 53.965504,66.994972 29.415426,66.994972 
	C29.418516,67.724281 29.421606,68.453583 29.424698,69.182892 
	C54.262295,69.182892 79.099892,69.182892 104.066040,69.436584 
	C104.783859,70.158676 105.373123,70.627075 105.962387,71.095474 
z"/>
<path fill="#9B9B9D" opacity="1.000000" stroke="none" 
	d="
M28.996260,116.938072 
	C28.824377,116.939835 28.652493,116.941589 27.766613,116.966919 
	C23.369114,116.994308 19.685608,116.998123 15.999071,116.557968 
	C14.927720,110.598854 17.323359,108.066696 22.817774,107.942078 
	C24.564627,107.902458 26.299557,107.337044 28.069607,107.370605 
	C28.118786,108.447769 28.138302,109.166542 28.107744,110.202034 
	C28.127476,111.082771 28.197277,111.646797 28.267080,112.210823 
	C28.450142,112.212814 28.633204,112.214806 28.816265,112.216805 
	C28.877892,111.478264 28.939518,110.739731 29.469723,109.997635 
	C55.277275,109.978561 80.616257,109.963043 105.955231,109.947525 
	C107.307358,112.006271 110.528793,114.483963 104.150848,114.653946 
	C79.530029,114.231232 55.589584,114.094368 31.649128,114.092522 
	C30.752100,114.092453 29.854967,115.404396 28.965202,116.313316 
	C28.972523,116.521706 28.996260,116.938072 28.996260,116.938072 
z"/>
<path fill="#B5B5B7" opacity="1.000000" stroke="none" 
	d="
M107.892838,82.990906 
	C107.663048,84.250710 107.427635,85.509521 107.204796,86.770546 
	C106.875191,88.635788 106.554504,90.502617 105.874802,92.680511 
	C105.519585,92.992249 105.155632,92.992126 104.957108,92.649956 
	C102.965225,91.536446 101.176147,90.105293 99.377884,90.093666 
	C75.923882,89.941971 52.468571,89.991364 29.007515,89.592850 
	C29.009535,88.136719 29.017632,87.077888 29.492714,86.010864 
	C54.713158,86.002663 79.466614,86.002663 104.369362,86.002663 
	C104.154854,84.640625 104.028847,83.840561 104.302971,83.028412 
	C105.766350,83.007858 106.829590,82.999382 107.892838,82.990906 
z"/>
<path fill="#A6A6A8" opacity="1.000000" stroke="none" 
	d="
M105.900726,100.974350 
	C107.839012,103.317665 109.150566,105.696007 105.807762,108.474808 
	C103.188179,107.760864 101.076996,106.127533 98.953430,106.111259 
	C75.632423,105.932549 52.309483,106.005821 28.989477,105.609833 
	C28.996639,104.141075 29.001390,103.073204 29.474403,102.001389 
	C53.136486,101.996262 76.330376,102.018372 99.523994,101.950150 
	C101.405754,101.944618 103.285698,101.320595 105.350067,100.983597 
	C105.533653,100.983223 105.900726,100.974350 105.900726,100.974350 
z"/>
<path fill="#AFAFB1" opacity="1.000000" stroke="none" 
	d="
M106.077675,100.667297 
	C105.900726,100.974350 105.533653,100.983223 105.151001,100.641464 
	C102.969398,99.530731 101.174721,98.104088 99.370857,98.092369 
	C75.920639,97.939957 52.469120,97.988327 29.011206,97.589027 
	C29.008217,96.132004 29.011953,95.072060 29.483345,94.006592 
	C53.141991,93.998962 76.333046,94.019951 99.523834,93.951347 
	C101.402031,93.945793 103.278412,93.326317 105.155632,92.992126 
	C105.155632,92.992126 105.519585,92.992249 105.700638,92.990219 
	C107.913902,95.349022 109.127823,97.751259 106.077675,100.667297 
z"/>
<path fill="#B8B8BB" opacity="1.000000" stroke="none" 
	d="
M107.931091,82.619797 
	C106.829590,82.999382 105.766350,83.007858 103.842911,83.017181 
	C78.335876,83.001884 53.689026,82.985748 29.028057,82.575760 
	C29.021555,81.130119 29.029179,80.078354 29.503029,79.015259 
	C53.163479,79.002518 76.357773,79.024200 99.551796,78.956268 
	C101.427483,78.950775 103.301353,78.330589 105.345566,77.995293 
	C105.515068,77.994545 105.854034,77.989540 105.854034,77.989540 
	C106.559135,79.409256 107.264236,80.828972 107.931091,82.619797 
z"/>
<path fill="#909092" opacity="1.000000" stroke="none" 
	d="
M28.997232,117.320908 
	C28.996260,116.938072 28.972523,116.521706 29.437027,116.271622 
	C54.598869,115.995934 79.296204,115.970322 103.993538,115.944710 
	C105.220795,116.569252 106.448051,117.193794 108.517555,118.246948 
	C107.057381,119.292191 105.945984,120.087769 104.162445,120.631210 
	C101.687187,120.248726 99.884201,120.006767 98.080971,120.004936 
	C75.053787,119.981491 52.026566,119.992455 28.999355,119.994675 
	C28.998972,119.231033 28.998589,118.467392 28.997232,117.320908 
z"/>
<path fill="#666669" opacity="1.000000" stroke="none" 
	d="
M28.987064,106.010712 
	C52.309483,106.005821 75.632423,105.932549 98.953430,106.111259 
	C101.076996,106.127533 103.188179,107.760864 105.649796,108.784866 
	C105.993050,109.096970 105.991600,109.267487 105.972687,109.692764 
	C80.616257,109.963043 55.277275,109.978561 29.258430,109.971962 
	C28.578562,109.949844 28.157816,109.885323 28.157816,109.885323 
	C28.138302,109.166542 28.118786,108.447769 28.109978,107.145256 
	C28.120684,106.561523 28.193068,106.109467 28.390646,106.083511 
	C28.588224,106.057556 28.987064,106.010712 28.987064,106.010712 
z"/>
<path fill="#777779" opacity="1.000000" stroke="none" 
	d="
M107.995216,131.004272 
	C103.242142,131.002350 98.489067,130.999344 93.735992,130.998734 
	C73.659889,130.996124 53.583778,130.997910 33.507694,130.975342 
	C32.866081,130.974609 32.224743,130.726349 31.291311,130.293732 
	C33.242535,128.995407 35.478043,127.149361 37.730106,127.128937 
	C61.167881,126.916405 84.608322,126.997375 108.521194,127.334290 
	C108.984528,128.125748 108.974693,128.579819 108.722244,129.195007 
	C108.318161,129.905502 108.156693,130.454895 107.995216,131.004272 
z"/>
<path fill="#B5B5B7" opacity="1.000000" stroke="none" 
	d="
M106.297226,70.902359 
	C105.373123,70.627075 104.783859,70.158676 104.086044,69.074173 
	C103.986153,67.975945 103.994804,67.493828 104.003448,67.011703 
	C102.768105,66.341370 101.535706,65.092705 100.296989,65.086418 
	C77.421928,64.970314 54.545929,64.970123 31.670956,65.095879 
	C30.481806,65.102409 29.300026,66.449875 27.640236,67.533569 
	C22.784170,67.599564 18.402685,67.305038 14.021198,67.010513 
	C14.021198,63.874847 14.021198,60.739185 14.021198,57.603519 
	C14.424930,57.387371 14.828661,57.171223 15.232392,56.955070 
	C16.039993,63.200367 19.644039,62.585373 23.643599,61.293716 
	C24.698195,60.953129 25.909048,61.096371 27.466761,61.035137 
	C27.885374,61.052837 28.055346,61.044991 28.093250,61.368309 
	C28.706490,62.162582 29.281425,63.044758 29.857220,63.045319 
	C54.569412,63.069386 79.281677,63.015121 103.993935,62.970428 
	C105.061981,63.319363 106.130028,63.668293 107.556931,64.031769 
	C107.487885,66.267296 107.059982,68.488266 106.297226,70.902359 
z"/>
<path fill="#A6A6A8" opacity="1.000000" stroke="none" 
	d="
M109.051231,67.478630 
	C111.100502,67.007660 113.125015,67.003754 115.586929,66.998596 
	C116.040115,76.687904 116.055885,86.378441 115.608414,96.534012 
	C113.118271,96.989563 111.091370,96.980087 109.064468,96.970627 
	C109.051804,87.295647 109.039131,77.620674 109.051231,67.478630 
z"/>
<path fill="#BCBCBE" opacity="1.000000" stroke="none" 
	d="
M106.008759,77.717087 
	C105.854034,77.989540 105.515068,77.994545 105.143822,77.652184 
	C102.985535,76.538414 101.202835,75.107246 99.410789,75.095444 
	C75.949501,74.940857 52.486881,74.986946 29.016155,74.657898 
	C29.021526,73.900620 29.035337,73.468063 29.049147,73.035500 
	C52.654781,73.020973 76.260445,73.019958 99.865990,72.964828 
	C101.647278,72.960670 103.427666,72.571220 105.603081,72.224426 
	C106.052956,73.873535 106.108223,75.659088 106.008759,77.717087 
z"/>
<path fill="#666669" opacity="1.000000" stroke="none" 
	d="
M103.919380,62.567451 
	C79.281677,63.015121 54.569412,63.069386 29.857220,63.045319 
	C29.281425,63.044758 28.706490,62.162582 28.173248,61.339348 
	C28.215340,60.987076 28.607038,61.021088 28.803347,61.010689 
	C52.116322,61.009281 75.233078,60.992638 98.349480,61.076351 
	C100.182549,61.082993 102.013100,61.785404 103.919380,62.567451 
z"/>
<path fill="#666669" opacity="1.000000" stroke="none" 
	d="
M104.005753,115.691986 
	C79.296204,115.970322 54.598869,115.995934 29.429707,116.063232 
	C29.854967,115.404396 30.752100,114.092453 31.649128,114.092522 
	C55.589584,114.094368 79.530029,114.231232 103.774208,114.640984 
	C104.057945,115.104271 104.037956,115.271767 104.005753,115.691986 
z"/>
<path fill="#666669" opacity="1.000000" stroke="none" 
	d="
M29.085979,120.393936 
	C52.026566,119.992455 75.053787,119.981491 98.080971,120.004936 
	C99.884201,120.006767 101.687187,120.248726 103.808052,120.667465 
	C102.569290,121.298775 101.013657,121.935631 99.456100,121.940361 
	C77.523552,122.007065 55.590675,122.011101 33.658180,121.937897 
	C32.161732,121.932892 30.667740,121.191902 29.085979,120.393936 
z"/>
<path fill="#9B9B9D" opacity="1.000000" stroke="none" 
	d="
M109.039230,97.430382 
	C111.091370,96.980087 113.118271,96.989563 115.582558,97.002518 
	C116.290260,100.043411 116.560577,103.080803 116.391922,106.544739 
	C113.651779,107.303131 111.350616,107.634995 109.049461,107.966858 
	C109.037636,104.607956 109.025818,101.249046 109.039230,97.430382 
z"/>
<path fill="#66666A" opacity="1.000000" stroke="none" 
	d="
M108.964851,129.033890 
	C108.974693,128.579819 108.984528,128.125748 108.988792,127.330856 
	C108.996307,126.247025 109.009399,125.503990 109.426979,124.382866 
	C112.130249,123.675407 114.429024,123.346039 116.727806,123.016670 
	C117.726158,128.408493 112.891922,129.878922 109.808441,132.739502 
	C109.446388,132.709183 109.240105,132.352081 109.112434,131.807343 
	C108.978127,130.519714 108.971489,129.776794 108.964851,129.033890 
z"/>
<path fill="#909092" opacity="1.000000" stroke="none" 
	d="
M16.002104,117.001938 
	C19.685608,116.998123 23.369114,116.994308 27.509377,116.984573 
	C28.339781,119.793442 27.428043,121.297989 24.268744,121.043877 
	C21.845507,120.848976 19.393568,121.010963 16.497768,121.027466 
	C16.025864,120.581985 16.010586,120.123268 15.994015,118.991928 
	C15.995850,117.880180 15.998977,117.441063 16.002104,117.001938 
z"/>
<path fill="#909092" opacity="1.000000" stroke="none" 
	d="
M109.037399,108.355530 
	C111.350616,107.634995 113.651779,107.303131 116.337875,106.952286 
	C116.794182,108.653015 116.865547,110.372726 116.915070,112.518227 
	C113.541992,112.909027 109.631546,113.921692 109.037399,108.355530 
z"/>
<path fill="#6E6E70" opacity="1.000000" stroke="none" 
	d="
M116.811676,122.677429 
	C114.429024,123.346039 112.130249,123.675407 109.437378,124.011292 
	C109.277779,118.854340 113.219994,120.319115 116.602455,120.048988 
	C117.025909,120.071762 117.012970,120.507927 116.999023,120.725647 
	C116.955238,121.408310 116.925400,121.873253 116.811676,122.677429 
z"/>
<path fill="#777779" opacity="1.000000" stroke="none" 
	d="
M29.916130,129.821075 
	C29.840324,129.992096 29.673637,129.995453 29.256969,130.003098 
	C29.279743,129.889389 29.552496,129.771408 29.916130,129.821075 
z"/>
<path fill="#777779" opacity="1.000000" stroke="none" 
	d="
M29.536079,127.554352 
	C29.478037,127.589729 29.594122,127.518982 29.536079,127.554352 
z"/>
<path fill="#D6D6D8" opacity="1.000000" stroke="none" 
	d="
M272.959778,72.460800 
	C272.762421,72.932838 272.592377,72.943398 271.878662,72.644066 
	C270.188171,72.222122 269.041443,72.012611 267.894623,72.012337 
	C241.981232,72.006119 216.067856,72.022850 190.154465,72.035263 
	C190.154465,64.911011 190.154465,57.786758 190.154465,50.329395 
	C217.685577,50.329395 244.919571,50.329395 272.987122,50.329395 
	C272.987122,57.505295 272.987122,64.752312 272.959778,72.460800 
z"/>
<path fill="#D6D6D8" opacity="1.000000" stroke="none" 
	d="
M188.954071,64.451080 
	C188.752304,64.921455 188.582687,64.931511 187.868713,64.636169 
	C186.011490,64.220451 184.698685,64.014992 183.385757,64.014046 
	C163.286865,63.999554 143.187958,64.011749 123.089058,64.017731 
	C123.029785,63.859360 122.970520,63.700993 122.832382,63.301483 
	C122.753510,55.603798 122.753510,48.147259 122.753510,40.351231 
	C145.005005,40.351231 166.575302,40.351231 188.986252,40.351231 
	C188.986252,48.167294 188.986252,56.079025 188.954071,64.451080 
z"/>
<path fill="#D6D6D8" opacity="1.000000" stroke="none" 
	d="
M280.047699,54.947712 
	C279.579590,54.967014 279.111481,54.986320 278.080597,54.707863 
	C276.398560,54.285427 275.279297,54.160748 274.160034,54.036068 
	C274.160034,45.601036 274.160034,37.166004 274.160034,27.978382 
	C285.261230,27.978382 296.143646,27.978382 307.834595,27.989086 
	C309.103851,27.967812 309.564514,27.935833 310.430786,27.941391 
	C311.915039,27.902514 312.993744,27.826096 314.072449,27.749676 
	C314.790588,27.786312 315.508728,27.822950 316.583099,27.804447 
	C319.392609,27.908281 321.845886,28.067255 324.981934,28.270475 
	C324.981934,36.904358 324.981934,45.443901 324.946228,54.442547 
	C324.743927,54.916901 324.577362,54.932152 323.869507,54.643135 
	C309.462860,54.240803 295.597565,54.132050 281.732086,54.083344 
	C281.171631,54.081371 280.609192,54.646698 280.047699,54.947712 
z"/>
<path fill="#E9E9EB" opacity="1.000000" stroke="none" 
	d="
M190.101089,72.246017 
	C216.067856,72.022850 241.981232,72.006119 267.894623,72.012337 
	C269.041443,72.012611 270.188171,72.222122 271.624329,72.618881 
	C244.943878,72.927254 217.974075,72.950928 190.543900,72.932365 
	C190.083542,72.890129 190.047714,72.456779 190.101089,72.246017 
z"/>
<path fill="#A2A2A4" opacity="1.000000" stroke="none" 
	d="
M301.987457,12.069589 
	C303.369202,12.052360 304.750946,12.035131 306.558472,12.423193 
	C306.975647,17.533792 306.966980,22.239101 306.958313,26.944410 
	C305.891113,26.954088 304.823853,26.963766 303.371185,26.553894 
	C302.652985,21.446095 302.320221,16.757841 301.987457,12.069589 
z"/>
<path fill="#909092" opacity="1.000000" stroke="none" 
	d="
M307.172729,27.050446 
	C306.966980,22.239101 306.975647,17.533792 306.972626,12.434952 
	C307.971375,12.927047 309.319366,13.633319 309.908691,14.742640 
	C310.686066,16.206020 310.868042,17.985674 311.639252,19.811081 
	C312.028625,21.501261 312.084717,23.009722 311.762939,24.899288 
	C310.931763,26.154881 310.478485,27.029369 310.025208,27.903856 
	C309.564514,27.935833 309.103851,27.967812 308.298950,27.950245 
	C307.859070,27.581312 307.669861,27.333237 307.172729,27.050446 
z"/>
<path fill="#AFAFB1" opacity="1.000000" stroke="none" 
	d="
M301.611145,12.048578 
	C302.320221,16.757841 302.652985,21.446095 302.972656,26.516964 
	C301.895996,26.922314 300.832397,26.945045 299.370697,26.922108 
	C298.984283,22.207361 298.996002,17.538284 298.991821,12.489328 
	C299.728882,12.082156 300.481873,12.054862 301.611145,12.048578 
z"/>
<path fill="#E9E9EB" opacity="1.000000" stroke="none" 
	d="
M274.103149,54.245758 
	C275.279297,54.160748 276.398560,54.285427 277.730530,54.671799 
	C276.913666,54.946697 275.884033,54.959904 274.470093,54.930649 
	C274.085754,54.888191 274.046265,54.455448 274.103149,54.245758 
z"/>
<path fill="#818183" opacity="1.000000" stroke="none" 
	d="
M105.813744,134.739960 
	C103.991325,135.016678 101.898575,135.012146 99.354095,135.014740 
	C101.116043,134.834137 103.329727,134.646408 105.813744,134.739960 
z"/>
<path fill="#818183" opacity="1.000000" stroke="none" 
	d="
M25.820652,134.740021 
	C23.996853,135.016815 21.901997,135.011917 19.355295,135.014435 
	C21.118832,134.834000 23.334213,134.646179 25.820652,134.740021 
z"/>
<path fill="#818183" opacity="1.000000" stroke="none" 
	d="
M108.722244,129.195007 
	C108.971489,129.776794 108.978127,130.519714 108.999809,131.634628 
	C108.679863,131.918610 108.412979,131.732788 108.104706,131.226730 
	C108.156693,130.454895 108.318161,129.905502 108.722244,129.195007 
z"/>
<path fill="#818183" opacity="1.000000" stroke="none" 
	d="
M108.620277,134.086395 
	C108.693451,134.283325 108.596680,134.572052 108.247208,134.826263 
	C108.086647,134.542786 108.238586,134.338287 108.620277,134.086395 
z"/>
<path fill="#E9E9EB" opacity="1.000000" stroke="none" 
	d="
M123.023254,64.254684 
	C143.187958,64.011749 163.286865,63.999554 183.385757,64.014046 
	C184.698685,64.014992 186.011490,64.220451 187.614960,64.612457 
	C166.588074,64.927818 145.270584,64.961487 123.485977,64.987396 
	C123.018875,64.979637 122.957458,64.491646 123.023254,64.254684 
z"/>
<path fill="#909092" opacity="1.000000" stroke="none" 
	d="
M325.364563,98.165154 
	C325.013580,97.850853 325.007477,97.678596 325.004517,97.247688 
	C325.341125,95.893730 325.674652,94.798431 326.430969,93.345428 
	C332.419861,92.646294 329.056030,88.362419 329.966125,85.513580 
	C329.969543,82.379486 329.962799,79.692719 329.973175,76.541855 
	C329.998627,73.300697 330.385681,70.455162 329.899628,67.767509 
	C329.484100,65.469658 328.066986,63.352936 327.092896,61.156090 
	C326.875214,59.760639 326.657532,58.365196 326.348663,56.385010 
	C327.698120,56.268147 329.004395,56.155025 330.688660,56.460766 
	C331.019104,57.931541 330.971558,58.983448 330.685669,60.046410 
	C330.193298,60.204693 329.939301,60.351933 329.685303,60.499176 
	C330.095184,60.653198 330.505096,60.807217 330.947205,61.301662 
	C331.291595,62.451298 331.603760,63.260506 331.858612,64.474075 
	C331.835510,69.945297 331.869690,75.012154 331.850769,80.466736 
	C331.550964,83.556519 331.304230,86.258560 331.035309,89.391846 
	C331.155304,91.721947 331.297516,93.620819 331.439728,95.519691 
	C332.587738,88.895576 337.572906,91.494827 340.951141,90.949348 
	C340.848053,94.960793 341.651703,99.525337 335.138245,99.183968 
	C334.479828,99.149452 333.716400,101.118576 332.993561,102.569756 
	C332.985413,102.981644 332.522766,103.025803 332.292297,103.051331 
	C331.423248,101.889473 330.784637,100.702087 330.069122,99.371689 
	C328.774475,99.055580 327.241974,98.681389 325.364563,98.165154 
z"/>
<path fill="#B5B5B7" opacity="1.000000" stroke="none" 
	d="
M352.095642,84.961205 
	C352.081329,78.655670 351.913361,72.343643 352.179016,66.049927 
	C352.233826,64.751320 353.904205,63.520905 354.829987,62.259064 
	C356.203552,63.540295 358.661652,64.741661 358.762878,66.116585 
	C359.200439,72.058243 358.948303,78.050697 358.493469,84.504211 
	C356.058472,84.976242 354.077026,84.968719 352.095642,84.961205 
z"/>
<path fill="#BCBCBE" opacity="1.000000" stroke="none" 
	d="
M331.903870,80.079010 
	C331.869690,75.012154 331.835510,69.945297 332.107452,64.309341 
	C335.226013,64.167633 338.038483,64.595016 340.850922,65.022400 
	C340.883026,69.034752 340.915100,73.047104 340.489899,77.526352 
	C337.323059,78.688499 334.613464,79.383759 331.903870,80.079010 
z"/>
<path fill="#B8B8BB" opacity="1.000000" stroke="none" 
	d="
M342.101013,83.919907 
	C342.076508,79.601334 342.052032,75.282761 342.467316,70.487427 
	C345.572418,69.704903 348.237762,69.399139 350.903107,69.093384 
	C350.916382,73.737259 350.929657,78.381126 350.524170,83.504715 
	C347.437256,83.962914 344.769135,83.941414 342.101013,83.919907 
z"/>
<path fill="#B5B5B7" opacity="1.000000" stroke="none" 
	d="
M331.850769,80.466743 
	C334.613464,79.383759 337.323059,78.688499 340.450623,77.986557 
	C340.899048,79.690964 340.929474,81.402061 340.541565,83.553032 
	C335.715546,83.119827 333.632538,86.489136 331.057526,88.960609 
	C331.304230,86.258560 331.550964,83.556519 331.850769,80.466743 
z"/>
<path fill="#A6A6A8" opacity="1.000000" stroke="none" 
	d="
M331.035309,89.391846 
	C333.632538,86.489136 335.715546,83.119827 340.521667,83.980026 
	C340.938477,86.005760 340.956879,88.044380 340.963226,90.516174 
	C337.572906,91.494827 332.587738,88.895576 331.439728,95.519691 
	C331.297516,93.620819 331.155304,91.721947 331.035309,89.391846 
z"/>
<path fill="#A6A6A8" opacity="1.000000" stroke="none" 
	d="
M342.063049,84.341202 
	C344.769135,83.941414 347.437256,83.962914 350.499207,83.966492 
	C350.921875,85.339645 350.950684,86.730728 350.524139,88.557465 
	C347.388245,88.985260 344.707703,88.977386 342.027130,88.969513 
	C342.026459,87.567177 342.025787,86.164841 342.063049,84.341202 
z"/>
<path fill="#B5B5B7" opacity="1.000000" stroke="none" 
	d="
M340.899963,64.629433 
	C338.038483,64.595016 335.226013,64.167633 332.164734,63.904984 
	C331.603760,63.260506 331.291595,62.451298 330.968750,61.070541 
	C330.958069,60.498989 330.924011,60.035358 330.924011,60.035358 
	C330.971558,58.983448 331.019104,57.931541 331.095032,56.488457 
	C331.517609,56.090569 331.911804,56.083851 332.599487,56.110466 
	C333.240143,61.467014 334.585449,62.418949 340.583618,61.213734 
	C340.934509,62.135479 340.941742,63.185974 340.899963,64.629433 
z"/>
<path fill="#A6A6A8" opacity="1.000000" stroke="none" 
	d="
M352.058838,85.389847 
	C354.077026,84.968719 356.058472,84.976242 358.461426,84.968857 
	C358.910553,86.668053 358.938141,88.382156 358.956635,90.521072 
	C356.935272,90.956909 354.923004,90.967926 352.480988,90.962906 
	C352.041534,89.237404 352.031799,87.527946 352.058838,85.389847 
z"/>
<path fill="#909092" opacity="1.000000" stroke="none" 
	d="
M342.015076,89.352272 
	C344.707703,88.977386 347.388245,88.985260 350.513489,88.973969 
	C350.958160,90.405121 350.958160,91.855431 350.958160,94.038857 
	C347.717987,92.016953 342.391357,96.767258 342.015076,89.352272 
z"/>
<path fill="#A2A2A4" opacity="1.000000" stroke="none" 
	d="
M350.927612,68.675430 
	C348.237762,69.399139 345.572418,69.704903 342.484924,70.026321 
	C342.667847,68.720497 343.391205,66.227036 343.858093,66.274155 
	C346.277191,66.518364 349.650085,64.103928 350.927612,68.675430 
z"/>
<path fill="#BCBCBE" opacity="1.000000" stroke="none" 
	d="
M14.013957,67.477783 
	C18.402685,67.305038 22.784170,67.599564 27.577480,67.947479 
	C28.049404,69.363968 28.109503,70.727066 28.131346,72.859024 
	C28.149752,74.116165 28.206417,74.604446 28.209469,75.471771 
	C28.177347,76.871727 28.198839,77.892654 28.138052,79.326698 
	C28.113363,80.856133 28.170952,81.972435 28.167160,83.316437 
	C28.105778,83.544136 27.969076,83.995552 27.627842,83.960129 
	C25.731968,81.705193 24.177326,79.485672 22.877470,77.629906 
	C16.005718,81.836502 16.005013,81.836502 16.002792,88.116158 
	C16.001982,90.412445 16.005407,92.708740 16.004606,95.442001 
	C16.001389,97.919212 16.000465,99.959450 15.992857,102.352127 
	C15.331883,103.459251 14.677596,104.213951 14.023310,104.968651 
	C14.019233,103.906952 14.015156,102.845253 14.011559,100.942825 
	C14.005949,97.736259 13.999860,95.370422 13.995575,92.611977 
	C13.665168,90.471313 13.332956,88.723259 13.000746,86.975197 
	C13.336070,80.631813 13.671393,74.288437 14.013957,67.477783 
z"/>
<path fill="#BCBCBE" opacity="1.000000" stroke="none" 
	d="
M5.103211,81.983788 
	C5.084324,77.306641 5.065438,72.629501 5.409422,67.420380 
	C8.166509,65.606789 10.560724,64.325172 12.954939,63.043556 
	C12.968125,68.716179 12.981313,74.388809 12.589298,80.531616 
	C9.823802,81.329124 7.463507,81.656456 5.103211,81.983788 
z"/>
<path fill="#B5B5B7" opacity="1.000000" stroke="none" 
	d="
M5.060518,82.441589 
	C7.463507,81.656456 9.823802,81.329124 12.589123,80.999298 
	C12.996514,82.705750 12.998882,84.414703 13.000998,86.549431 
	C13.332956,88.723259 13.665168,90.471313 13.548160,92.610130 
	C10.430967,92.996147 7.762995,92.991409 5.095023,92.986671 
	C5.069290,89.624245 5.043557,86.261826 5.060518,82.441589 
z"/>
<path fill="#AFAFB1" opacity="1.000000" stroke="none" 
	d="
M12.890587,62.653755 
	C10.560724,64.325172 8.166509,65.606789 5.442333,66.957047 
	C5.083963,65.309242 5.055554,63.592793 5.054843,61.449219 
	C7.663772,61.436047 10.245002,61.850002 12.890587,62.653755 
z"/>
<path fill="#B8B8BB" opacity="1.000000" stroke="none" 
	d="
M281.064514,4.102614 
	C286.725342,4.081520 292.386169,4.060425 298.524780,4.422715 
	C298.994446,6.830933 298.986267,8.855764 298.978088,10.880597 
	C293.313232,10.909034 287.648407,10.937470 281.497253,10.515270 
	C281.028839,8.077293 281.046661,6.089954 281.064514,4.102614 
z"/>
<path fill="#AFAFB1" opacity="1.000000" stroke="none" 
	d="
M299.413086,10.924675 
	C298.986267,8.855764 298.994446,6.830933 298.990479,4.450861 
	C300.688904,4.078472 302.399445,4.061321 304.548798,4.456524 
	C305.307739,6.874270 305.627930,8.879663 305.948120,10.885057 
	C303.914734,10.912956 301.881409,10.940854 299.413086,10.924675 
z"/>
<path fill="#A2A2A4" opacity="1.000000" stroke="none" 
	d="
M306.350250,10.924318 
	C305.627930,8.879663 305.307739,6.874270 304.975281,4.478619 
	C306.351746,4.067702 307.740509,4.047045 309.558899,4.465379 
	C309.983795,6.927515 309.979034,8.950659 309.974274,10.973803 
	C308.900299,10.970395 307.826355,10.966989 306.350250,10.924318 
z"/>
<path fill="#A2A2A4" opacity="1.000000" stroke="none" 
	d="
M280.645844,4.066242 
	C281.046661,6.089954 281.028839,8.077293 281.033569,10.488800 
	C279.000610,11.043685 276.938721,11.308662 276.998718,8.167380 
	C277.042267,5.888078 276.861908,3.631558 280.645844,4.066242 
z"/>
<path fill="#909092" opacity="1.000000" stroke="none" 
	d="
M310.382599,10.983253 
	C309.979034,8.950659 309.983795,6.927515 309.974854,4.472368 
	C311.304260,5.326116 312.647339,6.611867 313.990448,7.897618 
	C312.923950,8.929314 311.857422,9.961008 310.382599,10.983253 
z"/>
<path fill="#A6A6A8" opacity="1.000000" stroke="none" 
	d="
M14.012171,105.433350 
	C14.677596,104.213951 15.331883,103.459251 16.432800,102.351639 
	C20.596033,101.667816 24.312639,101.336914 28.093819,101.220840 
	C28.158390,101.435661 28.224392,101.879425 28.145744,102.298416 
	C28.109087,103.848099 28.151077,104.978783 28.193068,106.109467 
	C28.193068,106.109467 28.120684,106.561523 28.080313,106.786880 
	C26.299557,107.337044 24.564627,107.902458 22.817774,107.942078 
	C17.323359,108.066696 14.927720,110.598854 15.999071,116.557968 
	C15.998977,117.441063 15.995850,117.880180 15.987558,118.648132 
	C15.321299,116.436317 14.493735,113.923874 14.056660,111.345253 
	C13.756968,109.577171 14.000390,107.717033 14.012171,105.433350 
z"/>
<path fill="#AFAFB1" opacity="1.000000" stroke="none" 
	d="
M5.059307,93.431000 
	C7.762995,92.991409 10.430967,92.996147 13.546355,93.002731 
	C13.999860,95.370422 14.005949,97.736259 14.009679,100.544693 
	C13.677955,101.082764 13.411743,101.268661 12.852336,101.674858 
	C10.023098,101.535942 7.550211,101.267151 5.077324,100.998352 
	C5.059413,98.624016 5.041502,96.249672 5.059307,93.431000 
z"/>
<path fill="#A6A6A8" opacity="1.000000" stroke="none" 
	d="
M5.046437,101.440994 
	C7.550211,101.267151 10.023098,101.535942 12.741709,101.895691 
	C12.980730,108.979538 12.980730,108.979538 5.487354,108.982391 
	C5.043208,106.610451 5.029379,104.247047 5.046437,101.440994 
z"/>
<path fill="#B8B8BB" opacity="1.000000" stroke="none" 
	d="
M327.017212,61.555752 
	C328.066986,63.352936 329.484100,65.469658 329.899628,67.767509 
	C330.385681,70.455162 329.998627,73.300697 329.734070,76.637543 
	C328.350220,77.454247 327.222595,77.711151 326.094971,77.968063 
	C326.377136,72.630508 326.659332,67.292961 327.017212,61.555752 
z"/>
<path fill="#B5B5B7" opacity="1.000000" stroke="none" 
	d="
M326.059387,78.412064 
	C327.222595,77.711151 328.350220,77.454247 329.716919,77.101646 
	C329.962799,79.692719 329.969543,82.379486 329.579651,85.528069 
	C328.152161,85.976562 327.121338,85.963242 326.090515,85.949921 
	C326.068268,83.585304 326.046021,81.220680 326.059387,78.412064 
z"/>
<path fill="#A2A2A4" opacity="1.000000" stroke="none" 
	d="
M326.052246,86.389923 
	C327.121338,85.963242 328.152161,85.976562 329.569458,85.975403 
	C329.056030,88.362419 332.419861,92.646294 326.444214,92.977539 
	C326.027802,90.921539 326.020874,88.875732 326.052246,86.389923 
z"/>
<path fill="#818183" opacity="1.000000" stroke="none" 
	d="
M310.430786,27.941395 
	C310.478485,27.029369 310.931763,26.154881 311.663452,25.146446 
	C312.632294,25.702234 313.322693,26.391966 314.042786,27.415688 
	C312.993744,27.826096 311.915039,27.902514 310.430786,27.941395 
z"/>
<path fill="#E9E9EB" opacity="1.000000" stroke="none" 
	d="
M280.511292,54.969830 
	C280.609192,54.646698 281.171631,54.081371 281.732086,54.083344 
	C295.597565,54.132050 309.462860,54.240803 323.619598,54.620518 
	C309.598969,54.932091 295.286957,54.962021 280.511292,54.969830 
z"/>
<path fill="#B8B8BB" opacity="1.000000" stroke="none" 
	d="
M103.534554,67.003342 
	C103.994804,67.493828 103.986153,67.975945 103.957489,68.820480 
	C79.099892,69.182892 54.262295,69.182892 29.424698,69.182892 
	C29.421606,68.453583 29.418516,67.724281 29.415426,66.994972 
	C53.965504,66.994972 78.515579,66.994972 103.534554,67.003342 
z"/>
<path fill="#818183" opacity="1.000000" stroke="none" 
	d="
M28.263083,75.092735 
	C28.206417,74.604446 28.149752,74.116165 28.175346,73.265617 
	C28.257603,72.903358 28.655235,72.956314 28.852192,72.995911 
	C29.035337,73.468063 29.021526,73.900620 28.826588,74.691589 
	C28.645462,75.049995 28.263083,75.092735 28.263083,75.092735 
z"/>
<path fill="#818183" opacity="1.000000" stroke="none" 
	d="
M28.107744,110.202034 
	C28.157816,109.885323 28.578562,109.949844 28.789852,109.975525 
	C28.939518,110.739731 28.877892,111.478264 28.816265,112.216805 
	C28.633204,112.214806 28.450142,112.212814 28.267080,112.210823 
	C28.197277,111.646797 28.127476,111.082771 28.107744,110.202034 
z"/>
<path fill="#666669" opacity="1.000000" stroke="none" 
	d="
M104.957108,92.649948 
	C103.278412,93.326317 101.402031,93.945793 99.523834,93.951347 
	C76.333046,94.019951 53.141991,93.998962 29.286667,93.981667 
	C28.622332,93.962250 28.228722,93.919716 28.185070,93.537659 
	C28.170740,92.132378 28.200058,91.109154 28.425694,90.064140 
	C28.622011,90.042358 29.013590,89.990158 29.013590,89.990158 
	C52.468571,89.991364 75.923882,89.941971 99.377884,90.093666 
	C101.176147,90.105293 102.965225,91.536446 104.957108,92.649948 
z"/>
<path fill="#66666A" opacity="1.000000" stroke="none" 
	d="
M27.969076,83.995552 
	C27.969076,83.995552 28.105778,83.544136 28.370701,83.291756 
	C28.635626,83.039375 29.042181,82.969620 29.042181,82.969620 
	C53.689026,82.985748 78.335876,83.001884 103.442780,83.029251 
	C104.028847,83.840561 104.154854,84.640625 104.369362,86.002663 
	C79.466614,86.002663 54.713158,86.002663 29.300667,85.981171 
	C28.641632,85.959686 28.257084,85.909973 28.205502,85.591446 
	C28.092302,84.847122 28.030689,84.421341 27.969076,83.995552 
z"/>
<path fill="#818183" opacity="1.000000" stroke="none" 
	d="
M28.257084,85.909973 
	C28.257084,85.909973 28.641632,85.959686 28.833679,85.989380 
	C29.017632,87.077888 29.009535,88.136719 29.007515,89.592850 
	C29.013590,89.990158 28.622011,90.042358 28.340952,89.650398 
	C28.125622,88.142281 28.191353,87.026131 28.257084,85.909973 
z"/>
<path fill="#666669" opacity="1.000000" stroke="none" 
	d="
M28.224392,101.879425 
	C28.224392,101.879425 28.158390,101.435661 28.121403,100.856216 
	C28.134417,99.548943 28.184420,98.821106 28.430429,98.067444 
	C28.626438,98.041611 29.017929,97.986099 29.017929,97.986099 
	C52.469120,97.988327 75.920639,97.939957 99.370857,98.092369 
	C101.174721,98.104088 102.969398,99.530731 104.967407,100.641838 
	C103.285698,101.320595 101.405754,101.944618 99.523994,101.950150 
	C76.330376,102.018372 53.136486,101.996262 29.278812,101.970680 
	C28.614958,101.943901 28.224392,101.879425 28.224392,101.879425 
z"/>
<path fill="#818183" opacity="1.000000" stroke="none" 
	d="
M28.145744,102.298416 
	C28.224392,101.879425 28.614958,101.943901 28.810549,101.974609 
	C29.001390,103.073204 28.996639,104.141075 28.989477,105.609833 
	C28.987064,106.010712 28.588224,106.057556 28.390646,106.083511 
	C28.151077,104.978783 28.109087,103.848099 28.145744,102.298416 
z"/>
<path fill="#818183" opacity="1.000000" stroke="none" 
	d="
M29.011206,97.589027 
	C29.017929,97.986099 28.626438,98.041611 28.343172,97.684280 
	C28.004606,96.546402 27.949306,95.765839 27.956230,94.712151 
	C28.088541,94.265915 28.158630,94.092819 28.228722,93.919716 
	C28.228722,93.919716 28.622332,93.962250 28.819012,93.987183 
	C29.011953,95.072060 29.008217,96.132004 29.011206,97.589027 
z"/>
<path fill="#666669" opacity="1.000000" stroke="none" 
	d="
M28.209469,75.471771 
	C28.263083,75.092735 28.645462,75.049995 28.835030,75.016312 
	C52.486881,74.986946 75.949501,74.940857 99.410789,75.095444 
	C101.202835,75.107246 102.985535,76.538414 104.974319,77.652931 
	C103.301353,78.330589 101.427483,78.950775 99.551796,78.956268 
	C76.357773,79.024200 53.163479,79.002518 29.299473,78.981979 
	C28.629692,78.960014 28.220331,78.913574 28.220331,78.913574 
	C28.198839,77.892654 28.177347,76.871727 28.209469,75.471771 
z"/>
<path fill="#818183" opacity="1.000000" stroke="none" 
	d="
M28.138052,79.326698 
	C28.220331,78.913574 28.629692,78.960014 28.833248,78.993301 
	C29.029179,80.078354 29.021555,81.130119 29.028057,82.575760 
	C29.042181,82.969620 28.635626,83.039375 28.432083,83.064056 
	C28.170952,81.972435 28.113363,80.856133 28.138052,79.326698 
z"/>
<path fill="#818183" opacity="1.000000" stroke="none" 
	d="
M330.685669,60.046410 
	C330.924011,60.035358 330.958069,60.498989 330.936523,60.730110 
	C330.505096,60.807217 330.095184,60.653198 329.685303,60.499176 
	C329.939301,60.351933 330.193298,60.204693 330.685669,60.046410 
z"/>
<path fill="#B5B5B7" opacity="1.000000" stroke="none" 
	d="
M28.185070,93.537659 
	C28.158630,94.092819 28.088541,94.265915 27.506523,94.716759 
	C23.332029,94.998009 19.669464,95.001518 16.006901,95.005028 
	C16.005407,92.708740 16.001982,90.412445 16.002792,88.116158 
	C16.005013,81.836502 16.005718,81.836502 22.877470,77.629906 
	C24.177326,79.485672 25.731968,81.705193 27.627842,83.960129 
	C28.030689,84.421341 28.092302,84.847122 28.205502,85.591446 
	C28.191353,87.026131 28.125622,88.142281 28.144634,89.672180 
	C28.200058,91.109154 28.170740,92.132378 28.185070,93.537659 
z"/>
<path fill="#AFAFB1" opacity="1.000000" stroke="none" 
	d="
M16.004608,95.442001 
	C19.669464,95.001518 23.332029,94.998009 27.444300,94.989891 
	C27.949306,95.765839 28.004606,96.546402 28.147163,97.710114 
	C28.184420,98.821106 28.134417,99.548943 28.056829,100.641388 
	C24.312639,101.336914 20.596033,101.667816 16.439484,101.999207 
	C16.000465,99.959450 16.001389,97.919212 16.004608,95.442001 
z"/>
</svg>