<svg version="1.1" id="Layer_1" xmlns="http://www.w3.org/2000/svg" xmlns:xlink="http://www.w3.org/1999/xlink" x="0px" y="0px"
	 width="100%" viewBox="0 0 227 180" enable-background="new 0 0 227 180" xml:space="preserve">
<path fill="#FFFFFF" opacity="1.000000" stroke="none" 
	d="
M24.000000,181.000000 
	C16.338636,181.000000 8.677271,181.000000 1.011930,181.000000 
	C1.007953,121.046799 1.007953,61.093597 1.007953,1.070197 
	C76.567482,1.070197 152.135056,1.070197 227.851318,1.070197 
	C227.851318,60.999725 227.851318,120.999817 227.851318,181.000000 
	C220.593964,181.000000 213.265717,181.000000 205.473694,180.641052 
	C204.825348,176.108658 202.145844,179.923889 200.723541,178.650299 
	C200.339508,177.327118 200.031509,176.365585 200.030930,175.403870 
	C200.019669,156.610703 200.044220,137.817520 200.415848,118.959625 
	C207.844742,113.600502 214.919220,108.306091 222.027802,102.793556 
	C222.061890,102.575432 222.037964,102.134529 222.358337,102.070358 
	C223.114288,102.006752 223.549850,102.007317 224.033905,102.233276 
	C224.284164,102.285347 224.485931,102.112038 224.880310,101.501091 
	C225.140335,73.409920 225.217484,45.756401 225.268433,18.102829 
	C225.281387,11.064570 225.243149,11.064500 217.998108,10.594772 
	C216.607895,9.156820 215.302765,8.081355 213.914261,6.790217 
	C213.830887,6.574546 213.677292,6.138341 213.747086,5.908628 
	C213.572403,5.807551 213.327911,5.936186 212.736542,6.124751 
	C211.922134,6.155858 211.454605,6.127034 210.854736,5.761902 
	C207.459183,5.366028 204.195984,5.306463 200.621063,5.200777 
	C199.891464,5.184878 199.473572,5.215101 198.594604,5.145806 
	C188.438934,4.976486 178.744308,4.906685 168.784790,4.505980 
	C161.665054,4.204119 154.810242,4.233161 147.570312,4.228951 
	C145.138733,4.411520 143.092255,4.627341 140.758850,4.567142 
	C133.317291,3.870396 126.162666,3.449672 118.539879,3.011613 
	C107.366432,3.330831 96.662170,3.706589 85.955376,3.985205 
	C81.489975,4.101405 77.010536,3.849857 72.554909,4.089595 
	C70.637886,4.192741 68.765175,5.119596 66.455086,5.712984 
	C59.697674,5.573473 53.357513,5.393207 46.553787,5.126534 
	C39.926056,5.034524 33.748955,4.782248 27.601974,5.104527 
	C23.018806,5.344817 18.474588,6.327996 13.946860,6.991942 
	C13.980698,7.003548 14.008721,6.937721 13.696411,6.973221 
	C12.900383,7.333159 12.416667,7.657597 11.965496,7.992445 
	C11.998042,8.002856 12.015476,7.936775 11.677948,7.972720 
	C10.772415,8.333793 10.204412,8.658921 9.470162,8.954836 
	C9.303918,8.925622 8.980460,9.022257 8.668357,9.029802 
	C7.907654,9.374273 7.459055,9.711200 6.682676,10.093863 
	C5.685134,11.018217 5.015373,11.896836 4.196656,13.204931 
	C4.059605,15.439003 4.071508,17.243599 4.044562,19.511330 
	C4.030289,42.633453 4.054866,65.292450 4.031545,88.399017 
	C4.018577,91.246109 4.053507,93.645630 4.049170,96.407547 
	C4.036493,97.497406 4.063086,98.224869 4.043295,99.304024 
	C4.028429,100.125771 4.059945,100.595810 4.066782,101.352921 
	C4.351794,102.036911 4.661486,102.433846 5.123343,103.118057 
	C5.879687,103.583893 6.483868,103.762466 7.380424,104.112213 
	C13.067970,108.192093 18.463142,112.100784 23.980637,116.270157 
	C24.394171,116.778793 24.685379,117.026756 25.027607,117.461395 
	C25.225706,117.886459 25.438911,118.015900 25.975464,118.334534 
	C27.151941,119.992012 28.858486,121.343826 28.871567,122.711838 
	C29.048620,141.228836 28.990454,159.748077 28.990454,176.643829 
	C26.672892,178.666824 25.336445,179.833405 24.000000,181.000000 
z"/>
<path fill="#FFFFFF" opacity="1.000000" stroke="none" 
	d="
M175.000000,181.000000 
	C134.645767,181.000000 94.291542,181.000000 53.874092,180.767273 
	C52.842266,179.691971 51.873657,178.849396 50.855900,177.539795 
	C50.839535,163.708389 50.872318,150.343979 51.175011,136.998230 
	C51.624821,137.003891 51.804722,136.990891 52.148895,137.028397 
	C52.313171,137.078888 52.654003,137.034454 52.879890,137.284454 
	C53.739273,137.722504 54.372768,137.910568 55.183609,138.383423 
	C63.080002,144.123367 70.779587,149.606476 78.533234,155.012009 
	C80.245804,156.205933 82.149834,157.125229 84.053452,158.365234 
	C84.313210,158.804825 84.545166,158.961487 84.967583,159.240509 
	C85.303337,159.747330 85.585892,159.893890 86.251770,160.049057 
	C90.058113,162.815964 93.558449,165.425079 97.285004,168.394318 
	C106.224442,168.845032 114.939507,168.856232 123.650124,169.059113 
	C128.124527,169.163330 132.476395,169.160843 136.351120,165.755692 
	C137.668854,164.658936 138.575439,163.554214 139.678436,162.704453 
	C144.762650,158.787384 149.901627,154.941376 155.372803,150.998505 
	C163.102661,145.905060 170.480667,140.882980 178.108215,136.010605 
	C178.593613,136.461227 178.829453,136.762177 179.040771,137.524902 
	C178.979752,151.287277 178.943268,164.587875 178.573761,178.107559 
	C178.160477,179.217758 178.080231,180.108887 178.000000,181.000000 
	C177.555557,181.000000 177.111099,181.000000 176.682404,180.763062 
	C176.204987,179.690414 175.711823,178.854706 175.218658,178.018997 
	C174.821671,178.188309 174.424683,178.357605 174.027695,178.526901 
	C174.351791,179.351273 174.675903,180.175629 175.000000,181.000000 
z"/>
<path fill="#727272" opacity="1.000000" stroke="none" 
	d="
M177.858673,135.860916 
	C170.480667,140.882980 163.102661,145.905060 155.252228,150.688965 
	C155.489761,148.864090 156.085922,147.211945 156.948013,145.712723 
	C157.564682,144.640320 158.671143,143.854507 159.319885,142.794449 
	C160.235046,141.299057 160.905228,139.655807 161.724930,138.099350 
	C162.454514,136.713989 163.245026,135.360733 164.004333,133.996643 
	C164.000000,134.000000 163.993347,134.008667 164.341370,133.954834 
	C165.635422,132.609116 166.565277,131.305008 167.530640,130.027725 
	C169.932449,126.849884 172.458923,123.757256 174.678314,120.457542 
	C175.173660,119.721077 174.613174,118.274460 174.529572,117.015930 
	C180.926987,115.341965 180.132111,108.013252 183.740189,103.883423 
	C183.763977,103.856209 183.324661,103.424377 183.559555,103.130875 
	C189.025772,103.107155 194.033997,103.134033 199.018692,103.523163 
	C197.368011,106.825073 195.740860,109.764725 194.074905,112.774498 
	C195.062256,113.864494 196.029297,114.932068 196.991150,116.375679 
	C196.985565,117.504105 196.985199,118.256493 196.975861,119.476913 
	C196.964386,138.161865 197.008759,156.379013 196.912460,174.595428 
	C196.896683,177.581528 197.435013,179.506042 200.942688,179.011887 
	C202.145844,179.923889 204.825348,176.108658 205.004959,180.641052 
	C201.307098,181.000000 197.614182,181.000000 193.484955,180.582275 
	C193.360703,178.384705 193.937729,176.605789 193.944046,174.824844 
	C194.010162,156.170654 193.984879,137.516159 193.984879,118.375366 
	C192.271561,120.198387 190.645660,121.928391 188.700500,123.825180 
	C183.883835,127.070702 179.325974,130.095825 177.858673,135.860916 
z"/>
<path fill="#E7E7E7" opacity="1.000000" stroke="none" 
	d="
M39.000000,181.000000 
	C37.611004,181.000000 36.222004,181.000000 34.692398,180.715714 
	C33.695751,180.024384 32.839706,179.617355 31.813271,178.850403 
	C31.153448,177.013031 30.246040,175.537796 30.238087,174.057739 
	C30.138960,155.612122 30.152561,137.165726 30.208757,118.719772 
	C30.212475,117.499313 30.796110,116.280632 31.443604,115.091064 
	C34.838226,118.103668 37.899254,121.086327 40.795380,124.447876 
	C40.421432,126.609993 40.037655,128.392578 40.031109,130.176559 
	C39.980747,143.902359 40.078014,157.629135 39.942425,171.353775 
	C39.914478,174.182465 41.454849,177.655014 37.727081,179.571503 
	C38.151386,180.047668 38.575695,180.523834 39.000000,181.000000 
z"/>
<path fill="#909191" opacity="1.000000" stroke="none" 
	d="
M189.019760,123.658394 
	C190.645660,121.928391 192.271561,120.198387 193.984879,118.375366 
	C193.984879,137.516159 194.010162,156.170654 193.944046,174.824844 
	C193.937729,176.605789 193.360703,178.384705 193.024307,180.582275 
	C188.310745,181.000000 183.621490,181.000000 178.466125,181.000000 
	C178.080231,180.108887 178.160477,179.217758 178.844055,178.159851 
	C179.630768,177.997314 179.814148,178.001556 180.446136,178.054260 
	C189.851974,178.245575 189.976883,178.224213 189.859085,169.426163 
	C189.654816,154.169235 189.307236,138.914215 189.019760,123.658394 
z"/>
<path fill="#DADADA" opacity="1.000000" stroke="none" 
	d="
M39.416664,181.000000 
	C38.575695,180.523834 38.151386,180.047668 37.727081,179.571503 
	C41.454849,177.655014 39.914478,174.182465 39.942425,171.353775 
	C40.078014,157.629135 39.980747,143.902359 40.031109,130.176559 
	C40.037655,128.392578 40.421432,126.609993 41.018768,124.426086 
	C41.407063,124.025421 41.853546,123.988426 41.921425,124.215256 
	C41.989300,124.442085 42.085583,124.904846 42.061974,125.378914 
	C42.026642,141.710327 41.968727,157.567978 42.077667,173.424484 
	C42.088070,174.939423 43.139839,176.447205 43.684082,178.354065 
	C43.773331,179.499893 43.886665,180.249939 44.000000,181.000000 
	C42.611111,181.000000 41.222221,181.000000 39.416664,181.000000 
z"/>
<path fill="#909191" opacity="1.000000" stroke="none" 
	d="
M31.110004,115.061127 
	C30.796110,116.280632 30.212475,117.499313 30.208757,118.719772 
	C30.152561,137.165726 30.138960,155.612122 30.238087,174.057739 
	C30.246040,175.537796 31.153448,177.013031 31.833992,179.147980 
	C32.016735,180.203629 32.008369,180.601822 32.000000,181.000000 
	C29.629442,181.000000 27.258884,181.000000 24.444162,181.000000 
	C25.336445,179.833405 26.672892,178.666824 28.990454,176.643829 
	C28.990454,159.748077 29.048620,141.228836 28.871567,122.711838 
	C28.858486,121.343826 27.151941,119.992012 26.379707,118.299049 
	C27.353567,116.646317 28.180405,115.327202 29.325769,114.009323 
	C30.132866,114.360748 30.621433,114.710938 31.110004,115.061127 
z"/>
<path fill="#909191" opacity="1.000000" stroke="none" 
	d="
M44.449982,181.000000 
	C43.886665,180.249939 43.773331,179.499893 44.104843,178.367950 
	C44.828396,177.990402 45.107105,177.994736 45.741932,177.961792 
	C47.073879,177.939743 48.049709,177.954971 49.339787,177.970215 
	C50.071033,177.982437 50.488041,177.994614 50.905045,178.006805 
	C51.873657,178.849396 52.842266,179.691971 53.405434,180.767273 
	C50.299988,181.000000 47.599972,181.000000 44.449982,181.000000 
z"/>
<path fill="#909191" opacity="1.000000" stroke="none" 
	d="
M175.250000,181.000000 
	C174.675903,180.175629 174.351791,179.351273 174.027695,178.526901 
	C174.424683,178.357605 174.821671,178.188309 175.218658,178.018997 
	C175.711823,178.854706 176.204987,179.690414 176.349060,180.763062 
	C176.000000,181.000000 175.500000,181.000000 175.250000,181.000000 
z"/>
<path fill="#69696A" opacity="1.000000" stroke="none" 
	d="
M32.333332,181.000000 
	C32.008369,180.601822 32.016735,180.203629 32.004387,179.507874 
	C32.839706,179.617355 33.695751,180.024384 34.275894,180.715714 
	C33.555553,181.000000 33.111111,181.000000 32.333332,181.000000 
z"/>
<path fill="#69696A" opacity="1.000000" stroke="none" 
	d="
M4.345611,12.775455 
	C5.015373,11.896836 5.685134,11.018217 6.846676,10.359167 
	C7.935876,10.675363 8.533297,10.771989 9.588476,10.887180 
	C14.712679,10.903078 19.379122,10.900412 24.509180,10.939336 
	C31.150421,10.731396 37.328045,10.481867 43.711224,10.439215 
	C49.275551,10.706661 54.634327,10.767229 60.458076,10.893085 
	C74.944656,10.915073 88.966263,10.871773 103.451080,10.897997 
	C108.945305,10.923169 113.976326,10.878817 119.466064,10.909651 
	C124.276123,10.933172 128.627457,10.881506 133.430984,10.898006 
	C136.927887,10.919130 139.972595,10.872087 143.448257,10.893738 
	C145.915848,10.933920 147.952484,10.905407 150.454437,10.939458 
	C154.375824,11.005009 157.855896,11.261859 161.281128,10.938251 
	C164.582840,10.626312 167.827927,9.714921 171.518311,9.049725 
	C177.288055,9.685788 182.637390,10.339015 188.445160,11.000117 
	C191.484421,11.001712 194.197250,11.479457 196.600967,10.823871 
	C198.284012,10.364843 199.544907,8.357971 201.433731,7.025587 
	C203.927948,7.034440 205.982773,7.060089 208.069031,7.440927 
	C208.405945,10.868536 208.974457,13.940924 208.974823,17.013380 
	C208.977402,39.405083 208.777893,61.797077 208.849762,84.188316 
	C208.868546,90.038834 209.619202,95.887001 209.603439,101.823822 
	C206.340210,101.857697 203.507278,101.803993 200.709412,101.453850 
	C200.884750,96.877197 197.896149,92.623795 200.857742,88.262085 
	C201.616714,87.144310 202.123306,84.470833 201.593384,84.081764 
	C197.438950,81.031586 201.689606,78.891205 202.049759,76.323196 
	C197.462433,73.739769 200.961761,71.164574 202.339951,68.293144 
	C196.780212,65.987732 201.314163,63.342495 202.079010,60.403542 
	C197.698334,57.966232 200.679550,55.209736 202.194748,52.435463 
	C197.591431,49.797215 200.737793,47.217739 202.288040,44.452507 
	C197.389740,41.937866 200.994141,39.119492 202.151413,36.349915 
	C197.465393,33.682182 201.041367,31.107792 202.224487,28.481743 
	C197.754166,25.897676 200.537674,23.271559 202.075317,20.811741 
	C201.274429,19.671061 199.822754,18.554995 199.867355,17.502329 
	C200.061020,12.932458 197.229721,12.814091 193.589752,13.001387 
	C192.104828,13.022336 191.023880,13.046068 189.524719,13.053247 
	C185.733398,13.038698 182.360291,13.040701 178.620987,13.022922 
	C176.844040,13.243460 175.433258,13.483780 173.713516,13.589303 
	C171.689438,13.467664 169.974335,13.480823 167.912430,13.351320 
	C163.370499,13.174032 159.175385,13.139405 154.576630,13.063572 
	C153.093536,13.066968 152.014099,13.111571 150.498352,13.096551 
	C147.702286,13.074567 145.342529,13.112206 142.592590,13.100171 
	C141.153793,13.030363 140.105194,13.010227 138.904419,12.680683 
	C137.855270,12.280101 136.958313,12.188928 135.678040,12.024833 
	C134.519379,11.999467 133.743988,12.047023 132.649323,12.058857 
	C131.903625,12.052562 131.477219,12.081989 130.601486,12.034265 
	C127.422249,12.001514 124.692314,12.045917 121.611801,12.073471 
	C120.985626,12.352073 120.710037,12.647520 120.238678,12.855512 
	C119.574577,12.895465 119.106239,13.022874 118.582169,13.130424 
	C118.526436,13.110564 118.420944,13.056947 118.364380,12.673470 
	C117.552307,12.236585 116.796791,12.183179 115.609650,12.064253 
	C111.100121,12.388631 107.022209,12.778529 102.492889,13.100405 
	C92.377647,12.985624 82.713837,12.938868 72.914383,12.615545 
	C72.188683,12.270014 71.598625,12.201049 70.551895,12.061112 
	C66.394455,12.039454 62.693676,12.088766 58.529972,12.070624 
	C52.714165,12.045752 47.361279,12.088332 41.610321,12.060448 
	C40.138622,12.038560 39.064999,12.087137 37.662792,12.076284 
	C36.892410,12.055651 36.450615,12.094450 35.549881,12.061840 
	C30.594015,12.270480 26.097084,12.550528 21.583641,12.861131 
	C21.567127,12.891687 21.552231,12.960117 21.343592,12.608082 
	C19.789062,12.216198 18.443171,12.176348 16.698643,12.083129 
	C14.211285,12.419914 12.122562,12.810068 9.627817,13.136396 
	C7.596400,12.973531 5.971005,12.874493 4.345611,12.775455 
z"/>
<path fill="#4B4B4B" opacity="1.000000" stroke="none" 
	d="
M218.083221,10.957259 
	C225.243149,11.064500 225.281387,11.064570 225.268433,18.102829 
	C225.217484,45.756401 225.140335,73.409920 224.701508,101.485703 
	C224.330109,101.907944 223.985413,102.007889 223.985413,102.007889 
	C223.549850,102.007317 223.114288,102.006752 221.919647,101.949051 
	C218.447479,101.807983 215.734390,101.724052 213.085922,101.293808 
	C213.435074,94.813690 214.005142,88.677483 213.953522,82.546516 
	C213.755707,59.050129 213.358246,35.555424 213.249542,11.933935 
	C213.731720,11.594604 213.918320,11.325115 214.266525,11.002924 
	C214.509476,11.006535 214.995407,11.003673 215.381653,11.004148 
	C216.539688,10.988836 217.311447,10.973048 218.083221,10.957259 
z"/>
<path fill="#B1B1B1" opacity="1.000000" stroke="none" 
	d="
M4.196656,13.204930 
	C5.971005,12.874493 7.596400,12.973531 9.623903,13.487547 
	C10.018620,18.032944 10.003717,22.163364 10.005071,26.293783 
	C10.013207,51.135544 10.025073,75.977310 9.613113,100.874191 
	C7.490845,100.974831 5.791153,101.020340 4.091462,101.065857 
	C4.059945,100.595810 4.028429,100.125771 4.282058,99.128021 
	C4.407616,97.748604 4.248027,96.896873 4.088439,96.045151 
	C4.053507,93.645630 4.018577,91.246109 4.319836,88.105576 
	C4.771674,86.718658 4.987796,86.072838 4.988406,85.426819 
	C5.008117,64.532104 5.022730,43.637333 4.969504,22.742743 
	C4.966365,21.510483 4.391972,20.279678 4.083412,19.048197 
	C4.071508,17.243599 4.059605,15.439003 4.196656,13.204930 
z"/>
<path fill="#585858" opacity="1.000000" stroke="none" 
	d="
M214.995407,11.003672 
	C214.995407,11.003673 214.509476,11.006535 213.971832,11.004866 
	C212.917130,11.164874 212.400040,11.326550 211.882965,11.488229 
	C212.267075,11.678851 212.651184,11.869471 213.035294,12.060090 
	C213.358246,35.555424 213.755707,59.050129 213.953522,82.546516 
	C214.005142,88.677483 213.435074,94.813690 212.719330,101.382690 
	C211.536652,101.790680 210.785187,101.763466 210.033722,101.736252 
	C209.619202,95.887001 208.868546,90.038834 208.849762,84.188316 
	C208.777893,61.797077 208.977402,39.405083 208.974823,17.013380 
	C208.974457,13.940924 208.405945,10.868536 208.398163,7.412640 
	C209.459579,6.718843 210.223328,6.408525 210.987076,6.098208 
	C211.454605,6.127034 211.922134,6.155858 212.878525,6.195299 
	C213.367386,6.205917 213.677292,6.138341 213.677292,6.138341 
	C213.677292,6.138341 213.830887,6.574546 213.939972,7.136450 
	C214.364502,8.800126 214.679962,9.901898 214.995407,11.003672 
z"/>
<path fill="#909191" opacity="1.000000" stroke="none" 
	d="
M187.986725,10.992243 
	C182.637390,10.339015 177.288055,9.685788 171.268799,8.740305 
	C164.053253,7.978690 157.507599,7.509330 150.728104,7.032485 
	C150.494247,7.024998 150.026291,7.027059 149.688446,7.002437 
	C148.899261,6.986935 148.447922,6.996057 147.593277,6.998857 
	C146.113663,7.024881 145.037338,7.057225 143.506180,7.056904 
	C139.694122,7.048343 136.336914,7.072447 132.522858,7.060325 
	C127.767921,7.203257 123.469826,7.382416 118.797104,7.415416 
	C115.956131,7.118402 113.489799,6.967548 111.022736,6.647345 
	C111.022018,6.477995 111.026505,6.139323 111.475143,6.097290 
	C114.923225,5.987002 117.922653,5.918748 121.395767,5.902663 
	C128.261566,5.584277 134.653671,5.213720 141.045792,4.843163 
	C143.092255,4.627341 145.138733,4.411520 147.694153,4.601242 
	C155.151978,4.950151 162.100830,4.893517 169.049698,4.836883 
	C178.744308,4.906685 188.438934,4.976486 198.475372,5.518598 
	C196.489944,6.336576 194.151978,7.018782 191.838028,6.945265 
	C188.738037,6.846775 187.705200,8.152015 187.986725,10.992243 
z"/>
<path fill="#727272" opacity="1.000000" stroke="none" 
	d="
M4.066782,101.352921 
	C5.791153,101.020340 7.490845,100.974831 10.051888,100.936859 
	C13.281069,100.925591 15.648899,100.906792 18.422211,100.931946 
	C19.910084,100.914238 20.992477,100.852562 22.529133,100.853745 
	C26.994267,100.887161 31.005140,100.857735 35.456108,100.891045 
	C38.266315,100.910934 40.636421,100.868088 43.468506,100.893265 
	C48.950687,100.917999 53.970894,100.874710 59.456093,100.897537 
	C74.275642,100.920700 88.630188,100.877754 103.448685,100.905617 
	C109.255585,100.934326 114.598557,100.892220 120.405365,100.913506 
	C124.905769,100.933868 128.942337,100.890839 133.425476,100.913116 
	C137.308685,100.848305 140.745331,100.718193 144.447311,100.679688 
	C145.835617,100.687157 146.958588,100.603027 148.446640,100.554909 
	C150.535202,100.690353 152.258667,100.789795 154.446747,100.940872 
	C159.597168,100.957367 164.282974,100.922226 169.385284,100.929703 
	C171.194061,100.954834 172.586365,100.937355 174.379013,100.950424 
	C175.848099,100.974388 176.916840,100.967789 178.414276,100.976219 
	C181.209625,101.303650 183.576279,101.616058 185.478699,101.957993 
	C165.687332,102.026123 146.360184,102.064735 126.588982,102.041817 
	C123.760132,102.018127 121.375351,102.055962 118.616486,102.048660 
	C117.492073,102.045532 116.741760,102.087547 115.528870,102.072510 
	C110.370720,102.068626 105.675148,102.121803 100.523323,102.118912 
	C95.383049,102.185974 90.699013,102.309113 85.603714,102.351654 
	C76.124458,102.278435 67.056473,102.285820 57.526466,102.214859 
	C46.060673,102.163506 35.056908,102.190491 23.589828,102.124832 
	C17.074734,102.298378 11.022957,102.564575 4.971179,102.830780 
	C4.661486,102.433846 4.351794,102.036911 4.066782,101.352921 
z"/>
<path fill="#585858" opacity="1.000000" stroke="none" 
	d="
M200.723541,178.650299 
	C197.435013,179.506042 196.896683,177.581528 196.912460,174.595428 
	C197.008759,156.379013 196.964386,138.161865 197.360764,119.475067 
	C198.523560,119.011574 199.292511,119.017960 200.061447,119.024345 
	C200.044220,137.817520 200.019669,156.610703 200.030930,175.403870 
	C200.031509,176.365585 200.339508,177.327118 200.723541,178.650299 
z"/>
<path fill="#4B4B4B" opacity="1.000000" stroke="none" 
	d="
M200.415848,118.959625 
	C199.292511,119.017960 198.523560,119.011574 197.369720,119.007027 
	C196.985199,118.256493 196.985565,117.504105 197.258209,116.201973 
	C199.077896,113.742859 200.759476,111.924660 202.135971,109.899117 
	C203.583191,107.769524 204.738403,105.441498 206.482574,103.135117 
	C211.960526,103.050598 216.977112,103.031136 221.993698,103.011673 
	C214.919220,108.306091 207.844742,113.600502 200.415848,118.959625 
z"/>
<path fill="#D6D6D6" opacity="1.000000" stroke="none" 
	d="
M120.922089,5.850494 
	C117.922653,5.918748 114.923225,5.987002 111.006943,6.036094 
	C95.684174,5.902030 81.278252,5.787129 66.872337,5.672229 
	C68.765175,5.119596 70.637886,4.192741 72.554909,4.089595 
	C77.010536,3.849857 81.489975,4.101405 85.955376,3.985205 
	C96.662170,3.706589 107.366432,3.330831 118.567169,3.312119 
	C119.682442,4.370139 120.302261,5.110317 120.922089,5.850494 
z"/>
<path fill="#B1B1B1" opacity="1.000000" stroke="none" 
	d="
M29.007240,114.008080 
	C28.180405,115.327202 27.353567,116.646317 26.122486,118.000916 
	C25.438911,118.015900 25.225706,117.886459 24.936184,117.175819 
	C24.481932,116.472206 24.170122,116.240837 23.858313,116.009468 
	C18.463142,112.100784 13.067970,108.192093 7.635606,103.803864 
	C10.717690,103.233086 13.836968,103.141838 17.027342,103.384491 
	C21.068039,107.148300 25.037638,110.578194 29.007240,114.008080 
z"/>
<path fill="#DADADA" opacity="1.000000" stroke="none" 
	d="
M222.027802,102.793549 
	C216.977112,103.031136 211.960526,103.050598 206.051910,103.054802 
	C203.120682,103.079994 201.081451,103.120453 199.042236,103.160904 
	C194.033997,103.134033 189.025772,103.107155 183.101624,103.064644 
	C179.140610,103.087860 176.095505,103.126717 172.583435,103.104248 
	C166.774063,103.089890 161.431671,103.136841 155.638245,103.121620 
	C152.092377,103.323402 148.997528,103.587357 145.613495,103.875427 
	C144.937393,103.925285 144.550491,103.951012 144.034027,103.769363 
	C143.679550,103.310631 143.401215,103.154846 142.617188,103.068535 
	C139.456619,103.045555 136.748291,103.048683 133.608185,103.035767 
	C131.456146,103.021164 129.735901,103.022598 127.803482,102.927261 
	C127.317902,102.655159 127.131805,102.412773 127.033051,102.103348 
	C146.360184,102.064735 165.687332,102.026123 185.825012,102.011765 
	C187.099838,102.000763 187.564087,101.965523 188.480026,101.960075 
	C192.845917,101.910011 196.760117,101.830154 200.674332,101.750298 
	C203.507278,101.803993 206.340210,101.857697 209.603439,101.823822 
	C210.785187,101.763466 211.536652,101.790680 212.654709,101.729004 
	C215.734390,101.724052 218.447479,101.807983 221.599274,102.013222 
	C222.037964,102.134529 222.061890,102.575432 222.027802,102.793549 
z"/>
<path fill="#9B9B9B" opacity="1.000000" stroke="none" 
	d="
M66.455086,5.712984 
	C81.278252,5.787129 95.684174,5.902030 110.558296,6.078127 
	C111.026505,6.139323 111.022018,6.477995 110.581055,6.714338 
	C107.769852,7.020486 105.399620,7.090290 102.561317,7.110695 
	C88.391151,7.084957 74.689049,7.108618 60.527283,7.077930 
	C56.038425,6.954559 52.009235,6.885538 47.872696,6.607837 
	C47.516018,6.003752 47.266685,5.608346 47.017353,5.212941 
	C53.357513,5.393207 59.697674,5.573473 66.455086,5.712984 
z"/>
<path fill="#A4A4A4" opacity="1.000000" stroke="none" 
	d="
M4.044562,19.511330 
	C4.391972,20.279678 4.966365,21.510483 4.969504,22.742743 
	C5.022730,43.637333 5.008117,64.532104 4.988406,85.426819 
	C4.987796,86.072838 4.771674,86.718658 4.367734,87.658005 
	C4.054866,65.292450 4.030289,42.633453 4.044562,19.511330 
z"/>
<path fill="#909191" opacity="1.000000" stroke="none" 
	d="
M46.553787,5.126535 
	C47.266685,5.608346 47.516018,6.003752 47.475605,6.669852 
	C46.117065,7.002963 45.048275,7.065380 43.516136,7.064456 
	C36.763519,7.112422 30.474253,7.223730 23.730341,7.220019 
	C20.154804,7.063447 17.033915,7.021892 13.913023,6.980337 
	C18.474588,6.327996 23.018806,5.344817 27.601974,5.104527 
	C33.748955,4.782248 39.926056,5.034524 46.553787,5.126535 
z"/>
<path fill="#727272" opacity="1.000000" stroke="none" 
	d="
M188.445160,11.000118 
	C187.705200,8.152015 188.738037,6.846775 191.838028,6.945265 
	C194.151978,7.018782 196.489944,6.336576 198.936447,5.618115 
	C199.473572,5.215101 199.891464,5.184878 200.625946,5.499881 
	C200.959824,6.244199 200.977081,6.643291 200.994339,7.042382 
	C199.544907,8.357971 198.284012,10.364843 196.600967,10.823871 
	C194.197250,11.479457 191.484421,11.001712 188.445160,11.000118 
z"/>
<path fill="#C7C7C7" opacity="1.000000" stroke="none" 
	d="
M13.946860,6.991942 
	C17.033915,7.021892 20.154804,7.063447 23.691257,7.570018 
	C24.086403,8.989272 24.065985,9.943508 24.045565,10.897745 
	C19.379122,10.900412 14.712679,10.903078 9.565875,10.579033 
	C9.050496,9.842300 9.015478,9.432279 8.980460,9.022257 
	C8.980460,9.022257 9.303918,8.925622 9.829384,8.966961 
	C10.908391,8.651124 11.461933,8.293949 12.015476,7.936774 
	C12.015476,7.936775 11.998042,8.002856 12.288722,8.011621 
	C13.055841,7.659497 13.532282,7.298609 14.008721,6.937721 
	C14.008721,6.937721 13.980698,7.003548 13.946860,6.991942 
z"/>
<path fill="#CFCFCF" opacity="1.000000" stroke="none" 
	d="
M121.395767,5.902664 
	C120.302261,5.110317 119.682442,4.370139 119.035332,3.329455 
	C126.162666,3.449672 133.317291,3.870396 140.758850,4.567142 
	C134.653671,5.213720 128.261566,5.584277 121.395767,5.902664 
z"/>
<path fill="#A4A4A4" opacity="1.000000" stroke="none" 
	d="
M168.784790,4.505980 
	C162.100830,4.893517 155.151978,4.950151 148.079254,4.634494 
	C154.810242,4.233161 161.665054,4.204119 168.784790,4.505980 
z"/>
<path fill="#DADADA" opacity="1.000000" stroke="none" 
	d="
M16.956245,103.050583 
	C13.836968,103.141838 10.717690,103.233086 7.343230,103.632683 
	C6.483868,103.762466 5.879687,103.583893 5.123343,103.118057 
	C11.022957,102.564575 17.074734,102.298378 23.567802,102.334763 
	C24.009092,102.637344 23.914267,103.048882 23.481049,103.038864 
	C21.017302,103.036087 18.986774,103.043335 16.956245,103.050583 
z"/>
<path fill="#909191" opacity="1.000000" stroke="none" 
	d="
M201.433731,7.025588 
	C200.977081,6.643291 200.959824,6.244199 200.937653,5.546003 
	C204.195984,5.306463 207.459183,5.366028 210.854736,5.761900 
	C210.223328,6.408525 209.459579,6.718843 208.366714,7.057449 
	C205.982773,7.060089 203.927948,7.034440 201.433731,7.025588 
z"/>
<path fill="#69696A" opacity="1.000000" stroke="none" 
	d="
M215.381653,11.004148 
	C214.679962,9.901898 214.364502,8.800126 214.023346,7.352121 
	C215.302765,8.081355 216.607895,9.156820 217.998108,10.594772 
	C217.311447,10.973048 216.539688,10.988836 215.381653,11.004148 
z"/>
<path fill="#909191" opacity="1.000000" stroke="none" 
	d="
M8.668357,9.029802 
	C9.015478,9.432279 9.050496,9.842300 9.108115,10.560469 
	C8.533297,10.771989 7.935876,10.675363 7.174456,10.313431 
	C7.459055,9.711200 7.907654,9.374273 8.668357,9.029802 
z"/>
<path fill="#A4A4A4" opacity="1.000000" stroke="none" 
	d="
M4.049170,96.407547 
	C4.248027,96.896873 4.407616,97.748604 4.328441,98.776321 
	C4.063086,98.224869 4.036493,97.497406 4.049170,96.407547 
z"/>
<path fill="#909191" opacity="1.000000" stroke="none" 
	d="
M13.696411,6.973221 
	C13.532282,7.298609 13.055841,7.659497 12.256176,8.001209 
	C12.416667,7.657597 12.900383,7.333159 13.696411,6.973221 
z"/>
<path fill="#909191" opacity="1.000000" stroke="none" 
	d="
M11.677948,7.972720 
	C11.461933,8.293949 10.908391,8.651124 9.995628,8.996174 
	C10.204412,8.658921 10.772415,8.333793 11.677948,7.972720 
z"/>
<path fill="#909191" opacity="1.000000" stroke="none" 
	d="
M213.747086,5.908628 
	C213.677292,6.138341 213.367386,6.205917 213.225403,6.135369 
	C213.327911,5.936186 213.572403,5.807551 213.747086,5.908628 
z"/>
<path fill="#69696A" opacity="1.000000" stroke="none" 
	d="
M224.033905,102.233276 
	C223.985413,102.007889 224.330109,101.907944 224.508911,101.923332 
	C224.485931,102.112038 224.284164,102.285347 224.033905,102.233276 
z"/>
<path fill="#909191" opacity="1.000000" stroke="none" 
	d="
M23.980637,116.270157 
	C24.170122,116.240837 24.481932,116.472206 24.885164,116.989151 
	C24.685379,117.026756 24.394171,116.778793 23.980637,116.270157 
z"/>
<path fill="#9B9B9B" opacity="1.000000" stroke="none" 
	d="
M156.089264,103.183792 
	C161.431671,103.136841 166.774063,103.089890 172.566422,103.484268 
	C171.048874,107.528893 168.588852,110.957352 167.232788,114.777679 
	C165.341141,120.106812 160.129120,123.100342 158.480865,128.599503 
	C157.742340,131.063522 155.392059,133.020508 153.893478,135.287109 
	C152.258835,137.759521 150.827728,140.366455 149.194366,142.839767 
	C145.589676,148.298248 141.776871,153.625122 138.340714,159.185959 
	C137.132324,161.141541 136.775879,163.623535 136.030426,165.865158 
	C132.476395,169.160843 128.124527,169.163330 123.650124,169.059113 
	C114.939507,168.856232 106.224442,168.845032 97.731674,168.362061 
	C100.946999,167.960907 103.941856,167.952133 107.399673,167.961716 
	C110.352394,167.974930 112.857697,168.131485 115.325180,167.894424 
	C116.506783,167.780899 118.094612,167.234680 118.676300,166.346176 
	C121.170357,162.536652 123.366127,158.531281 125.656532,154.589111 
	C128.688690,149.370255 131.563309,144.053146 134.770142,138.944290 
	C138.493622,133.012360 142.528732,127.276794 146.378448,121.423035 
	C148.262222,118.558632 150.202377,115.709824 151.806732,112.689171 
	C153.433411,109.626495 154.677582,106.360657 156.089264,103.183792 
z"/>
<path fill="#878787" opacity="1.000000" stroke="none" 
	d="
M136.351135,165.755692 
	C136.775879,163.623535 137.132324,161.141541 138.340714,159.185959 
	C141.776871,153.625122 145.589676,148.298248 149.194366,142.839767 
	C150.827728,140.366455 152.258835,137.759521 153.893478,135.287109 
	C155.392059,133.020508 157.742340,131.063522 158.480865,128.599503 
	C160.129120,123.100342 165.341141,120.106812 167.232788,114.777679 
	C168.588852,110.957352 171.048874,107.528893 173.033386,103.545578 
	C176.095505,103.126717 179.140610,103.087860 182.643646,103.115250 
	C183.324661,103.424377 183.763977,103.856209 183.740189,103.883423 
	C180.132111,108.013252 180.926987,115.341965 174.529572,117.015930 
	C174.613174,118.274460 175.173660,119.721077 174.678314,120.457542 
	C172.458923,123.757256 169.932449,126.849884 167.530640,130.027725 
	C166.565277,131.305008 165.635422,132.609116 164.291016,133.814590 
	C163.808029,133.677612 163.723419,133.627060 163.638824,133.576492 
	C163.762100,133.715424 163.885391,133.854370 164.008667,133.993301 
	C163.245026,135.360733 162.454514,136.713989 161.724930,138.099350 
	C160.905228,139.655807 160.235046,141.299057 159.319885,142.794449 
	C158.671143,143.854507 157.564682,144.640320 156.948013,145.712723 
	C156.085922,147.211945 155.489761,148.864090 154.900391,150.760345 
	C149.901627,154.941376 144.762650,158.787384 139.678436,162.704453 
	C138.575439,163.554214 137.668854,164.658936 136.351135,165.755692 
z"/>
<path fill="#D6D6D6" opacity="1.000000" stroke="none" 
	d="
M188.700500,123.825180 
	C189.307236,138.914215 189.654816,154.169235 189.859085,169.426163 
	C189.976883,178.224213 189.851974,178.245575 180.441010,177.585052 
	C179.988113,165.460709 180.026993,153.853745 179.948563,142.247574 
	C179.936874,140.517517 179.373474,138.791168 179.065308,137.063110 
	C178.829453,136.762177 178.593613,136.461227 178.108215,136.010605 
	C179.325974,130.095825 183.883835,127.070702 188.700500,123.825180 
z"/>
<path fill="#BDBDBD" opacity="1.000000" stroke="none" 
	d="
M52.654003,137.034454 
	C52.654003,137.034454 52.313171,137.078888 52.166851,136.721680 
	C51.480721,135.842865 50.940907,135.321243 50.340851,134.411301 
	C50.309475,132.978409 50.338345,131.933838 50.710201,130.929276 
	C53.050583,131.636810 55.047985,132.304352 57.366806,132.988190 
	C58.115971,133.042755 58.543716,133.080994 59.121544,133.409821 
	C62.817078,136.488297 66.362526,139.276184 69.966644,142.407104 
	C73.679802,145.846848 77.334290,148.943573 81.117218,152.310837 
	C81.834496,153.384430 82.423340,154.187469 83.140259,155.300873 
	C83.500786,156.464493 83.733246,157.317749 83.965698,158.170990 
	C82.149834,157.125229 80.245804,156.205933 78.533234,155.012009 
	C70.779587,149.606476 63.080002,144.123367 55.005928,138.078827 
	C53.985271,137.337784 53.319637,137.186127 52.654003,137.034454 
z"/>
<path fill="#C7C7C7" opacity="1.000000" stroke="none" 
	d="
M84.053452,158.365234 
	C83.733246,157.317749 83.500786,156.464493 83.511436,155.308990 
	C85.029190,155.877335 86.555748,156.529236 87.534523,157.656677 
	C91.590492,162.328690 96.595894,162.382904 102.131622,161.286316 
	C103.517365,163.053070 104.759445,164.526260 106.107056,166.249619 
	C106.453972,166.980988 106.695351,167.462189 106.936722,167.943359 
	C103.941856,167.952133 100.946999,167.960907 97.505463,168.001923 
	C93.558449,165.425079 90.058113,162.815964 86.130096,159.837234 
	C85.466858,159.217239 85.178406,159.071182 84.837074,159.029434 
	C84.545166,158.961487 84.313210,158.804825 84.053452,158.365234 
z"/>
<path fill="#585858" opacity="1.000000" stroke="none" 
	d="
M50.367218,130.889282 
	C50.338345,131.933838 50.309475,132.978409 50.218376,134.711090 
	C50.405796,135.926010 50.655449,136.452789 50.905098,136.979568 
	C50.872318,150.343979 50.839535,163.708389 50.855896,177.539795 
	C50.488041,177.994614 50.071033,177.982437 49.332809,177.504730 
	C49.009830,163.427383 48.973942,149.815369 49.048988,136.203934 
	C49.058502,134.478729 49.649300,132.756699 50.069847,130.997070 
	C50.168903,130.960953 50.367218,130.889282 50.367218,130.889282 
z"/>
<path fill="#C7C7C7" opacity="1.000000" stroke="none" 
	d="
M179.040771,137.524902 
	C179.373474,138.791168 179.936874,140.517517 179.948563,142.247574 
	C180.026993,153.853745 179.988113,165.460709 179.992401,177.536621 
	C179.814148,178.001556 179.630768,177.997314 179.177094,177.940765 
	C178.943268,164.587875 178.979752,151.287277 179.040771,137.524902 
z"/>
<path fill="#909191" opacity="1.000000" stroke="none" 
	d="
M51.175011,136.998230 
	C50.655449,136.452789 50.405796,135.926010 50.278618,135.099426 
	C50.940907,135.321243 51.480721,135.842865 52.002579,136.671188 
	C51.804722,136.990891 51.624821,137.003891 51.175011,136.998230 
z"/>
<path fill="#909191" opacity="1.000000" stroke="none" 
	d="
M52.879890,137.284454 
	C53.319637,137.186127 53.985271,137.337784 54.828590,137.794037 
	C54.372768,137.910568 53.739273,137.722504 52.879890,137.284454 
z"/>
<path fill="#BDBDBD" opacity="1.000000" stroke="none" 
	d="
M84.967583,159.240509 
	C85.178406,159.071182 85.466858,159.217239 85.824097,159.679443 
	C85.585892,159.893890 85.303337,159.747330 84.967583,159.240509 
z"/>
<path fill="#585858" opacity="1.000000" stroke="none" 
	d="
M199.018692,103.523163 
	C201.081451,103.120453 203.120682,103.079994 205.590546,103.119858 
	C204.738403,105.441498 203.583191,107.769524 202.135971,109.899117 
	C200.759476,111.924660 199.077896,113.742859 197.263397,115.825928 
	C196.029297,114.932068 195.062256,113.864494 194.074905,112.774498 
	C195.740860,109.764725 197.368011,106.825073 199.018692,103.523163 
M203.484711,105.586296 
	C203.484711,105.586296 203.419830,105.477310 203.484711,105.586296 
z"/>
<path fill="#C7C7C7" opacity="1.000000" stroke="none" 
	d="
M57.045387,132.971878 
	C55.047985,132.304352 53.050583,131.636810 50.710201,130.929276 
	C50.367218,130.889282 50.168903,130.960953 50.028316,130.668549 
	C48.923618,129.569473 47.959507,128.762817 46.904305,127.676895 
	C46.203949,126.923965 45.594685,126.450294 44.993820,125.987778 
	C45.002220,125.998932 45.024033,126.016365 44.879787,125.712967 
	C43.774876,124.935860 42.814209,124.462143 41.853546,123.988426 
	C41.853546,123.988426 41.407063,124.025421 41.183670,124.047203 
	C37.899254,121.086327 34.838226,118.103668 31.443602,115.091064 
	C30.621433,114.710938 30.132866,114.360748 29.325768,114.009323 
	C25.037638,110.578194 21.068039,107.148300 17.027342,103.384491 
	C18.986774,103.043335 21.017302,103.036087 23.634630,103.336349 
	C26.783369,105.778381 29.345308,107.912910 32.067059,110.345993 
	C36.799286,114.467613 41.371708,118.290695 46.107719,122.405182 
	C49.862671,126.121681 53.454029,129.546783 57.045387,132.971878 
z"/>
<path fill="#C7C7C7" opacity="1.000000" stroke="none" 
	d="
M45.385818,177.999069 
	C45.107105,177.994736 44.828396,177.990402 44.128929,177.972198 
	C43.139839,176.447205 42.088070,174.939423 42.077667,173.424484 
	C41.968727,157.567978 42.026642,141.710327 42.346695,125.524368 
	C43.444695,125.469292 44.234364,125.742828 45.024033,126.016365 
	C45.024033,126.016365 45.002220,125.998932 44.932194,126.345627 
	C44.886650,129.110855 44.911133,131.529388 44.692257,133.979095 
	C44.191433,134.172928 43.933968,134.335571 43.676498,134.498215 
	C44.090553,134.686523 44.504608,134.874817 44.926163,135.423782 
	C44.934677,136.505890 44.935680,137.227310 44.692772,137.979507 
	C44.191536,138.173172 43.934223,138.336075 43.676903,138.498962 
	C44.092754,138.685745 44.508606,138.872543 44.930641,139.420258 
	C44.935963,140.503113 44.935104,141.225021 44.690750,141.977997 
	C44.189724,142.171951 43.932201,142.334854 43.674675,142.497772 
	C44.088394,142.686859 44.502110,142.875946 44.923706,143.425140 
	C44.932014,144.505554 44.932438,145.225861 44.689259,145.977722 
	C44.189167,146.172989 43.932678,146.336700 43.676197,146.500412 
	C44.092243,146.686783 44.508286,146.873154 44.930550,147.420441 
	C44.935928,148.503220 44.935089,149.225082 44.690754,149.977997 
	C44.189732,150.171967 43.932205,150.334869 43.674683,150.497772 
	C44.088394,150.686859 44.502110,150.875961 44.923706,151.425140 
	C44.932014,152.505554 44.932438,153.225861 44.689259,153.977722 
	C44.189171,154.172989 43.932686,154.336700 43.676197,154.500412 
	C44.092239,154.686783 44.508282,154.873169 44.930550,155.420441 
	C44.935928,156.503220 44.935089,157.225082 44.690750,157.977997 
	C44.189728,158.171951 43.932205,158.334869 43.674679,158.497772 
	C44.088394,158.686859 44.502110,158.875961 44.923706,159.425140 
	C44.932014,160.505554 44.932438,161.225861 44.689259,161.977722 
	C44.189167,162.172989 43.932682,162.336700 43.676193,162.500412 
	C44.092239,162.686783 44.508282,162.873169 44.930550,163.420441 
	C44.935932,164.503220 44.935089,165.225082 44.690750,165.977997 
	C44.189728,166.171951 43.932201,166.334854 43.674679,166.497772 
	C44.088394,166.686859 44.502110,166.875946 44.923706,167.425140 
	C44.932014,168.505554 44.932438,169.225861 44.689255,169.977722 
	C44.189163,170.172974 43.932678,170.336685 43.676197,170.500397 
	C44.092243,170.686783 44.508286,170.873154 44.930546,171.420441 
	C44.935902,172.503189 44.935043,173.225052 44.690716,173.977966 
	C44.189781,174.171906 43.932312,174.334778 43.674847,174.497650 
	C44.089447,174.682495 44.504047,174.867310 45.019646,175.042511 
	C45.120651,175.032898 45.312828,174.967758 45.266495,175.346497 
	C45.275383,176.483170 45.330601,177.241119 45.385818,177.999069 
z"/>
<path fill="#9B9B9B" opacity="1.000000" stroke="none" 
	d="
M44.879787,125.712967 
	C44.234364,125.742828 43.444695,125.469292 42.370304,125.050301 
	C42.085583,124.904846 41.989300,124.442085 41.921425,124.215256 
	C42.814209,124.462143 43.774876,124.935860 44.879787,125.712967 
z"/>
<path fill="#727272" opacity="1.000000" stroke="none" 
	d="
M45.741932,177.961792 
	C45.330601,177.241119 45.275383,176.483170 45.642956,175.275604 
	C46.386700,173.283966 46.979496,171.743118 46.986198,170.199722 
	C47.047340,156.118774 47.006470,142.037415 46.995396,127.956161 
	C47.959507,128.762817 48.923618,129.569473 49.929260,130.704666 
	C49.649300,132.756699 49.058502,134.478729 49.048988,136.203934 
	C48.973942,149.815369 49.009830,163.427383 49.018562,177.504700 
	C48.049709,177.954971 47.073879,177.939743 45.741932,177.961792 
z"/>
<path fill="#F0F0F0" opacity="1.000000" stroke="none" 
	d="
M102.984741,100.834808 
	C88.630188,100.877754 74.275642,100.920700 59.458710,100.440605 
	C58.995186,70.657738 58.994041,41.397907 58.992897,12.138079 
	C62.693676,12.088766 66.394455,12.039454 70.588486,12.350593 
	C71.737839,12.771399 72.393929,12.831756 73.050018,12.892112 
	C82.713837,12.938868 92.377647,12.985624 102.352432,13.298229 
	C102.684685,15.896523 102.705963,18.228968 102.737724,21.711098 
	C101.044006,22.977158 101.046547,26.025871 104.217690,28.400051 
	C101.085175,30.964878 101.084198,34.032848 104.215065,36.603924 
	C101.036240,38.981998 101.035744,42.016880 104.213799,44.394325 
	C101.084549,46.966900 101.086472,50.036224 104.218933,52.598213 
	C101.051147,54.969841 101.047623,58.023640 104.209938,60.388618 
	C101.085335,62.967716 101.090141,66.040764 104.222778,68.592514 
	C101.063461,70.959419 101.056892,74.025978 104.206078,76.382912 
	C101.080788,78.972900 101.094841,82.025452 104.262108,84.651756 
	C103.022766,85.452911 101.789169,86.250351 100.109077,87.336426 
	C101.068848,91.841591 102.026794,96.338196 102.984741,100.834808 
z"/>
<path fill="#E7E7E7" opacity="1.000000" stroke="none" 
	d="
M103.448677,100.905617 
	C102.026794,96.338196 101.068848,91.841591 100.109077,87.336426 
	C101.789169,86.250351 103.022766,85.452911 104.262108,84.651756 
	C101.094841,82.025452 101.080788,78.972900 104.206078,76.382912 
	C101.056892,74.025978 101.063461,70.959419 104.222778,68.592514 
	C101.090141,66.040764 101.085335,62.967716 104.209938,60.388618 
	C101.047623,58.023640 101.051147,54.969841 104.218933,52.598213 
	C101.086472,50.036224 101.084549,46.966900 104.213799,44.394325 
	C101.035744,42.016880 101.036240,38.981998 104.215065,36.603924 
	C101.084198,34.032848 101.085175,30.964878 104.217690,28.400051 
	C101.046547,26.025871 101.044006,22.977158 102.737724,21.711098 
	C102.705963,18.228968 102.684685,15.896523 102.803856,13.366253 
	C107.022209,12.778529 111.100121,12.388631 115.829300,12.312593 
	C117.127373,12.769950 117.774155,12.913448 118.420944,13.056946 
	C118.420944,13.056947 118.526436,13.110564 118.445953,13.451418 
	C118.922058,14.435226 119.905334,15.044801 119.958717,15.727123 
	C120.152626,18.205900 120.089973,20.710564 120.020782,23.202597 
	C119.939644,26.125166 119.791382,29.047438 119.598083,31.964926 
	C119.361221,35.539745 118.796837,39.112747 118.843346,42.680412 
	C118.883255,45.741627 119.803726,48.784763 119.935760,51.853065 
	C120.096420,55.586384 119.917488,59.341446 119.738106,63.080032 
	C119.592262,66.119843 119.114395,69.144630 118.992485,72.184448 
	C118.850883,75.715141 118.927628,79.254982 118.927811,82.790848 
	C118.927917,84.859802 119.741379,87.392281 118.836685,88.910378 
	C116.172867,93.380341 118.303360,97.005936 119.941521,100.850121 
	C114.598557,100.892220 109.255585,100.934326 103.448677,100.905617 
z"/>
<path fill="#F6F6F6" opacity="1.000000" stroke="none" 
	d="
M58.529972,12.070624 
	C58.994041,41.397907 58.995186,70.657738 58.993713,100.374496 
	C53.970894,100.874710 48.950687,100.917999 43.387291,100.538040 
	C42.230736,98.650085 41.629940,97.179962 41.001553,95.721733 
	C39.377495,91.952927 42.845795,89.101234 42.885323,85.806137 
	C43.014511,75.037422 42.574059,64.263329 42.530548,53.490582 
	C42.502403,46.521820 42.959682,39.549786 42.879066,32.582920 
	C42.800152,25.763142 42.315155,18.948059 42.008400,12.130914 
	C47.361279,12.088332 52.714165,12.045752 58.529972,12.070624 
z"/>
<path fill="#F0F0F0" opacity="1.000000" stroke="none" 
	d="
M41.610321,12.060448 
	C42.315155,18.948059 42.800152,25.763142 42.879066,32.582920 
	C42.959682,39.549786 42.502403,46.521820 42.530548,53.490582 
	C42.574059,64.263329 43.014511,75.037422 42.885323,85.806137 
	C42.845795,89.101234 39.377495,91.952927 41.001553,95.721733 
	C41.629940,97.179962 42.230736,98.650085 42.925316,100.470016 
	C40.636421,100.868088 38.266315,100.910934 35.451862,100.479401 
	C34.161201,97.810036 33.314880,95.615044 32.468563,93.420052 
	C31.974564,93.479538 31.480566,93.539032 30.986568,93.598526 
	C31.941837,92.394295 32.897106,91.190056 33.146446,90.875732 
	C32.226826,86.936943 31.562311,83.868515 30.789047,80.827744 
	C29.419441,75.441925 28.172251,70.013779 26.510941,64.717178 
	C25.359596,61.046440 23.599483,57.566650 22.088070,53.533417 
	C21.909895,39.653717 21.755024,26.242146 21.600151,12.830574 
	C26.097084,12.550528 30.594015,12.270480 35.589062,12.346256 
	C36.405670,13.001497 36.724159,13.300914 37.042652,13.600331 
	C37.358894,13.112125 37.675137,12.623919 37.991379,12.135715 
	C39.064999,12.087137 40.138622,12.038560 41.610321,12.060448 
z"/>
<path fill="#DADADA" opacity="1.000000" stroke="none" 
	d="
M120.405365,100.913506 
	C118.303360,97.005936 116.172867,93.380341 118.836685,88.910378 
	C119.741379,87.392281 118.927917,84.859802 118.927811,82.790848 
	C118.927628,79.254982 118.850883,75.715141 118.992485,72.184448 
	C119.114395,69.144630 119.592262,66.119843 119.738106,63.080032 
	C119.917488,59.341446 120.096420,55.586384 119.935760,51.853065 
	C119.803726,48.784763 118.883255,45.741627 118.843346,42.680412 
	C118.796837,39.112747 119.361221,35.539745 119.598083,31.964926 
	C119.791382,29.047438 119.939644,26.125166 120.020782,23.202597 
	C120.089973,20.710564 120.152626,18.205900 119.958717,15.727123 
	C119.905334,15.044801 118.922058,14.435226 118.501686,13.471277 
	C119.106239,13.022874 119.574577,12.895465 120.542679,12.809959 
	C121.349091,12.598013 121.655739,12.344164 121.962387,12.090317 
	C124.692314,12.045917 127.422249,12.001514 130.768402,12.267437 
	C131.930496,12.732211 132.476349,12.886662 133.187531,13.422024 
	C133.567871,15.759447 133.988174,17.718189 133.966965,19.672138 
	C133.673065,46.731083 133.318573,73.789368 132.978897,100.847809 
	C128.942337,100.890839 124.905769,100.933868 120.405365,100.913506 
M120.406601,94.482529 
	C120.406601,94.482529 120.521461,94.413445 120.406601,94.482529 
z"/>
<path fill="#B1B1B1" opacity="1.000000" stroke="none" 
	d="
M168.968796,100.887085 
	C164.282974,100.922226 159.597168,100.957367 154.521820,100.594398 
	C154.574463,98.747429 155.318375,97.313164 155.389313,95.846344 
	C155.500534,93.547104 154.957642,91.218155 155.046906,88.915543 
	C155.250381,83.665581 155.809525,78.428070 155.962967,73.177864 
	C156.129776,67.470085 156.015182,61.753609 155.995377,56.041019 
	C155.984039,52.771324 155.990311,49.498795 155.855225,46.233063 
	C155.711868,42.767704 155.276520,39.311619 155.205765,35.846642 
	C155.050995,28.267645 155.046265,20.685585 154.980255,13.104778 
	C159.175385,13.139405 163.370499,13.174032 167.889069,13.661263 
	C168.301224,17.044392 168.449097,19.974510 168.469330,22.905508 
	C168.648651,48.899277 168.805389,74.893204 168.968796,100.887085 
z"/>
<path fill="#CFCFCF" opacity="1.000000" stroke="none" 
	d="
M133.425476,100.913116 
	C133.318573,73.789368 133.673065,46.731083 133.966965,19.672138 
	C133.988174,17.718189 133.567871,15.759447 133.190094,13.184253 
	C133.027344,12.565571 132.968613,12.094577 132.968613,12.094578 
	C133.743988,12.047023 134.519379,11.999467 135.879669,12.284931 
	C137.328583,12.741998 138.192581,12.866045 139.056580,12.990091 
	C140.105194,13.010227 141.153793,13.030363 142.571396,13.396263 
	C143.160919,15.681906 143.585403,17.623936 143.564941,19.561270 
	C143.495102,26.183971 143.128418,32.805191 143.136307,39.426662 
	C143.147217,48.566582 143.383102,57.706436 143.545502,66.845917 
	C143.745361,78.093529 143.968750,89.340714 144.181976,100.588089 
	C140.745331,100.718193 137.308685,100.848305 133.425476,100.913116 
z"/>
<path fill="#727272" opacity="1.000000" stroke="none" 
	d="
M200.709412,101.453850 
	C196.760117,101.830154 192.845917,101.910011 188.445587,101.712463 
	C187.962936,101.268356 187.966415,101.101669 188.395477,100.953224 
	C192.666794,101.292625 191.998001,98.512085 191.999664,96.271729 
	C192.016113,74.145676 191.880997,52.018280 192.103638,29.894438 
	C192.160339,24.258579 193.333527,18.633953 193.993744,13.004168 
	C197.229721,12.814091 200.061020,12.932458 199.867355,17.502329 
	C199.822754,18.554995 201.274429,19.671061 202.075317,20.811741 
	C200.537674,23.271559 197.754166,25.897676 202.224487,28.481743 
	C201.041367,31.107792 197.465393,33.682182 202.151413,36.349915 
	C200.994141,39.119492 197.389740,41.937866 202.288040,44.452507 
	C200.737793,47.217739 197.591431,49.797215 202.194748,52.435463 
	C200.679550,55.209736 197.698334,57.966232 202.079010,60.403542 
	C201.314163,63.342495 196.780212,65.987732 202.339951,68.293144 
	C200.961761,71.164574 197.462433,73.739769 202.049759,76.323196 
	C201.689606,78.891205 197.438950,81.031586 201.593384,84.081764 
	C202.123306,84.470833 201.616714,87.144310 200.857742,88.262085 
	C197.896149,92.623795 200.884750,96.877197 200.709412,101.453850 
z"/>
<path fill="#909191" opacity="1.000000" stroke="none" 
	d="
M187.969894,100.934982 
	C187.966415,101.101669 187.962936,101.268356 187.993896,101.682663 
	C187.564087,101.965523 187.099838,102.000763 186.289246,101.982239 
	C183.576279,101.616058 181.209625,101.303650 178.421906,100.569344 
	C179.545120,95.217232 178.819702,90.051140 178.905334,85.093437 
	C179.320007,61.083218 179.028442,37.060799 178.987167,13.042704 
	C182.360291,13.040701 185.733398,13.038698 189.312256,13.338413 
	C188.677841,16.012444 187.130127,18.378283 187.108353,20.758083 
	C186.916733,41.707859 186.928040,62.660488 187.040833,83.611404 
	C187.071930,89.387428 187.645340,95.160538 187.969894,100.934982 
z"/>
<path fill="#BDBDBD" opacity="1.000000" stroke="none" 
	d="
M18.016729,100.887985 
	C15.648899,100.906792 13.281069,100.925591 10.474464,100.881729 
	C10.025073,75.977310 10.013207,51.135544 10.005071,26.293783 
	C10.003717,22.163364 10.018620,18.032944 10.029926,13.551373 
	C12.122562,12.810068 14.211285,12.419914 16.780193,12.291798 
	C17.450621,12.796377 17.690800,12.969769 17.986053,13.538000 
	C17.993073,35.294098 18.039385,56.586430 17.931232,77.877975 
	C17.919846,80.119453 16.998739,82.356308 16.325474,85.376953 
	C16.568727,85.912308 18.310482,88.101189 17.810011,88.920631 
	C15.250042,93.112183 18.560026,96.932724 18.016729,100.887985 
z"/>
<path fill="#BDBDBD" opacity="1.000000" stroke="none" 
	d="
M154.576630,13.063572 
	C155.046265,20.685585 155.050995,28.267645 155.205765,35.846642 
	C155.276520,39.311619 155.711868,42.767704 155.855225,46.233063 
	C155.990311,49.498795 155.984039,52.771324 155.995377,56.041019 
	C156.015182,61.753609 156.129776,67.470085 155.962967,73.177864 
	C155.809525,78.428070 155.250381,83.665581 155.046906,88.915543 
	C154.957642,91.218155 155.500534,93.547104 155.389313,95.846344 
	C155.318375,97.313164 154.574463,98.747429 154.057220,100.542763 
	C152.258667,100.789795 150.535202,100.690353 148.574463,100.194115 
	C149.223495,99.160385 150.109787,98.523468 150.999390,97.884163 
	C149.949493,96.397415 148.101028,94.763840 148.406403,94.043983 
	C149.819946,90.711952 147.007767,87.041725 149.539047,83.786301 
	C150.003220,83.189331 147.792099,80.239525 148.176422,79.895424 
	C151.916275,76.547089 146.530182,72.620506 149.235565,68.832245 
	C150.641663,66.863342 149.554688,63.008129 149.329971,60.024899 
	C149.216675,58.521038 147.712784,56.167526 148.206924,55.724117 
	C151.975479,52.342499 146.404785,48.497536 149.115662,44.804955 
	C150.403976,43.050083 149.601944,39.678783 149.523056,37.046444 
	C149.495529,36.127651 148.683884,35.258499 148.435684,34.312778 
	C148.190842,33.379879 147.744614,31.912380 148.180115,31.481712 
	C151.537048,28.162086 146.766357,24.398161 149.018204,20.826828 
	C150.353500,18.709103 150.341080,15.741589 150.934647,13.156174 
	C152.014099,13.111571 153.093536,13.066968 154.576630,13.063572 
M150.408920,23.482824 
	C150.408920,23.482824 150.521667,23.415413 150.408920,23.482824 
M150.409195,94.482758 
	C150.409195,94.482758 150.521652,94.415558 150.409195,94.482758 
M150.481400,89.589333 
	C150.481400,89.589333 150.413269,89.476692 150.481400,89.589333 
M150.588348,87.517525 
	C150.588348,87.517525 150.475540,87.584824 150.588348,87.517525 
M150.588745,81.517296 
	C150.588745,81.517296 150.475464,81.584946 150.588745,81.517296 
M150.588333,79.517525 
	C150.588333,79.517525 150.475510,79.584808 150.588333,79.517525 
M150.588745,73.517296 
	C150.588745,73.517296 150.475464,73.584946 150.588745,73.517296 
M150.516022,71.410919 
	C150.516022,71.410919 150.583755,71.523483 150.516022,71.410919 
M150.408386,65.482506 
	C150.408386,65.482506 150.521606,65.414696 150.408386,65.482506 
M150.408920,63.482819 
	C150.408920,63.482819 150.521667,63.415409 150.408920,63.482819 
M150.481277,57.589542 
	C150.481277,57.589542 150.412979,57.476658 150.481277,57.589542 
M150.588364,55.517525 
	C150.588364,55.517525 150.475555,55.584820 150.588364,55.517525 
M150.515961,25.410217 
	C150.515961,25.410217 150.584106,25.523230 150.515961,25.410217 
M150.588730,49.517323 
	C150.588730,49.517323 150.475433,49.584961 150.588730,49.517323 
M150.588364,47.517525 
	C150.588364,47.517525 150.475555,47.584820 150.588364,47.517525 
M150.515961,41.410210 
	C150.515961,41.410210 150.584091,41.523235 150.515961,41.410210 
M150.516022,39.410927 
	C150.516022,39.410927 150.583740,39.523499 150.516022,39.410927 
M150.481277,33.589542 
	C150.481277,33.589542 150.412979,33.476658 150.481277,33.589542 
M150.481476,31.589401 
	C150.481476,31.589401 150.413528,31.476990 150.481476,31.589401 
z"/>
<path fill="#A4A4A4" opacity="1.000000" stroke="none" 
	d="
M169.385284,100.929703 
	C168.805389,74.893204 168.648651,48.899277 168.469330,22.905508 
	C168.449097,19.974510 168.301224,17.044392 168.235870,13.803925 
	C169.974335,13.480823 171.689438,13.467664 173.824341,13.966557 
	C174.452087,15.927789 174.902573,17.390757 174.821136,18.823492 
	C174.602417,22.671467 173.981033,26.500315 173.844864,30.348270 
	C173.675598,35.131695 173.814957,39.926823 173.854736,44.716610 
	C173.883423,48.170563 173.875198,51.628742 174.050903,55.076508 
	C174.245468,58.893967 174.871689,62.702103 174.865509,66.513580 
	C174.859238,70.373131 174.114166,74.228004 174.039429,78.091644 
	C173.892273,85.698593 173.985092,93.310196 173.978653,100.919868 
	C172.586365,100.937355 171.194061,100.954834 169.385284,100.929703 
z"/>
<path fill="#C7C7C7" opacity="1.000000" stroke="none" 
	d="
M150.498352,13.096550 
	C150.341080,15.741589 150.353500,18.709103 149.018204,20.826828 
	C146.766357,24.398161 151.537048,28.162086 148.180115,31.481712 
	C147.744614,31.912380 148.190842,33.379879 148.435684,34.312778 
	C148.683884,35.258499 149.495529,36.127651 149.523056,37.046444 
	C149.601944,39.678783 150.403976,43.050083 149.115662,44.804955 
	C146.404785,48.497536 151.975479,52.342499 148.206924,55.724117 
	C147.712784,56.167526 149.216675,58.521038 149.329971,60.024899 
	C149.554688,63.008129 150.641663,66.863342 149.235565,68.832245 
	C146.530182,72.620506 151.916275,76.547089 148.176422,79.895424 
	C147.792099,80.239525 150.003220,83.189331 149.539047,83.786301 
	C147.007767,87.041725 149.819946,90.711952 148.406403,94.043983 
	C148.101028,94.763840 149.949493,96.397415 150.999390,97.884163 
	C150.109787,98.523468 149.223495,99.160385 148.209381,100.158104 
	C146.958588,100.603027 145.835617,100.687157 144.447311,100.679688 
	C143.968750,89.340714 143.745361,78.093529 143.545502,66.845917 
	C143.383102,57.706436 143.147217,48.566582 143.136307,39.426662 
	C143.128418,32.805191 143.495102,26.183971 143.564941,19.561270 
	C143.585403,17.623936 143.160919,15.681906 142.961578,13.445936 
	C145.342529,13.112206 147.702286,13.074567 150.498352,13.096550 
M148.591248,97.517464 
	C148.591248,97.517464 148.478195,97.585159 148.591248,97.517464 
z"/>
<path fill="#878787" opacity="1.000000" stroke="none" 
	d="
M188.395477,100.953224 
	C187.645340,95.160538 187.071930,89.387428 187.040833,83.611404 
	C186.928040,62.660488 186.916733,41.707859 187.108353,20.758083 
	C187.130127,18.378283 188.677841,16.012444 189.730469,13.354965 
	C191.023880,13.046068 192.104828,13.022336 193.589752,13.001385 
	C193.333527,18.633953 192.160339,24.258579 192.103638,29.894438 
	C191.880997,52.018280 192.016113,74.145676 191.999664,96.271729 
	C191.998001,98.512085 192.666794,101.292625 188.395477,100.953224 
z"/>
<path fill="#9B9B9B" opacity="1.000000" stroke="none" 
	d="
M174.379013,100.950424 
	C173.985092,93.310196 173.892273,85.698593 174.039429,78.091644 
	C174.114166,74.228004 174.859238,70.373131 174.865509,66.513580 
	C174.871689,62.702103 174.245468,58.893967 174.050903,55.076508 
	C173.875198,51.628742 173.883423,48.170563 173.854736,44.716610 
	C173.814957,39.926823 173.675598,35.131695 173.844864,30.348270 
	C173.981033,26.500315 174.602417,22.671467 174.821136,18.823492 
	C174.902573,17.390757 174.452087,15.927789 174.133331,14.101355 
	C175.433258,13.483780 176.844040,13.243460 178.620987,13.022921 
	C179.028442,37.060799 179.320007,61.083218 178.905334,85.093437 
	C178.819702,90.051140 179.545120,95.217232 177.993210,100.554314 
	C176.916840,100.967789 175.848099,100.974388 174.379013,100.950424 
z"/>
<path fill="#C7C7C7" opacity="1.000000" stroke="none" 
	d="
M18.422211,100.931946 
	C18.560026,96.932724 15.250042,93.112183 17.810011,88.920631 
	C18.310482,88.101189 16.568727,85.912308 16.325474,85.376953 
	C16.998739,82.356308 17.919846,80.119453 17.931232,77.877975 
	C18.039385,56.586430 17.993073,35.294098 18.431709,13.500851 
	C19.765562,12.986515 20.658895,12.973316 21.552231,12.960117 
	C21.552231,12.960117 21.567127,12.891687 21.583639,12.861131 
	C21.755024,26.242146 21.909895,39.653717 22.051731,54.000347 
	C22.050756,70.220566 22.062815,85.505730 22.074871,100.790894 
	C20.992477,100.852562 19.910084,100.914238 18.422211,100.931946 
z"/>
<path fill="#F0F0F0" opacity="1.000000" stroke="none" 
	d="
M60.986942,7.132278 
	C74.689049,7.108618 88.391151,7.084957 102.714737,7.314968 
	C103.220108,8.655251 103.103989,9.741861 102.987869,10.828472 
	C88.966263,10.871773 74.944656,10.915073 60.495983,10.572504 
	C60.374928,9.168517 60.680935,8.150397 60.986942,7.132278 
z"/>
<path fill="#B1B1B1" opacity="1.000000" stroke="none" 
	d="
M147.996567,7.005178 
	C148.447922,6.996057 148.899261,6.986935 149.764236,7.171118 
	C150.439224,7.256271 150.700592,7.148119 150.961960,7.039969 
	C157.507599,7.509330 164.053253,7.978690 170.848389,8.757469 
	C167.827927,9.714921 164.582840,10.626312 161.281128,10.938251 
	C157.855896,11.261859 154.375824,11.005009 150.569336,10.681130 
	C149.478149,9.241886 148.737350,8.123532 147.996567,7.005178 
z"/>
<path fill="#F0F0F0" opacity="1.000000" stroke="none" 
	d="
M24.509180,10.939335 
	C24.065985,9.943508 24.086403,8.989272 24.145905,7.685036 
	C30.474253,7.223730 36.763519,7.112422 43.352074,7.423358 
	C43.602795,8.641180 43.554234,9.436759 43.505676,10.232337 
	C37.328045,10.481867 31.150421,10.731396 24.509180,10.939335 
z"/>
<path fill="#F6F6F6" opacity="1.000000" stroke="none" 
	d="
M43.711227,10.439215 
	C43.554234,9.436759 43.602795,8.641180 43.815418,7.486699 
	C45.048275,7.065380 46.117065,7.002963 47.582951,6.878531 
	C52.009235,6.885538 56.038425,6.954559 60.527283,7.077929 
	C60.680935,8.150397 60.374928,9.168517 60.031013,10.507217 
	C54.634327,10.767229 49.275551,10.706661 43.711227,10.439215 
z"/>
<path fill="#E7E7E7" opacity="1.000000" stroke="none" 
	d="
M103.451080,10.897997 
	C103.103989,9.741861 103.220108,8.655251 103.182800,7.364367 
	C105.399620,7.090290 107.769852,7.020486 110.581772,6.883688 
	C113.489799,6.967548 115.956131,7.118402 118.794510,7.719128 
	C119.113480,9.057487 119.060410,9.945974 119.007339,10.834463 
	C113.976326,10.878817 108.945305,10.923169 103.451080,10.897997 
z"/>
<path fill="#DADADA" opacity="1.000000" stroke="none" 
	d="
M119.466064,10.909651 
	C119.060410,9.945974 119.113480,9.057487 119.169144,7.865287 
	C123.469826,7.382416 127.767921,7.203257 132.530212,7.432498 
	C132.989197,8.837212 132.983994,9.833526 132.978790,10.829840 
	C128.627457,10.881506 124.276123,10.933172 119.466064,10.909651 
z"/>
<path fill="#CFCFCF" opacity="1.000000" stroke="none" 
	d="
M133.430984,10.898006 
	C132.983994,9.833526 132.989197,8.837212 132.987061,7.468724 
	C136.336914,7.072447 139.694122,7.048343 143.418335,7.289298 
	C143.529327,8.644586 143.273315,9.734814 143.017303,10.825043 
	C139.972595,10.872087 136.927887,10.919130 133.430984,10.898006 
z"/>
<path fill="#C7C7C7" opacity="1.000000" stroke="none" 
	d="
M143.448257,10.893738 
	C143.273315,9.734814 143.529327,8.644586 143.873169,7.321962 
	C145.037338,7.057225 146.113663,7.024881 147.593277,6.998858 
	C148.737350,8.123532 149.478149,9.241886 150.104034,10.618567 
	C147.952484,10.905407 145.915848,10.933920 143.448257,10.893738 
z"/>
<path fill="#F6F6F6" opacity="1.000000" stroke="none" 
	d="
M72.914383,12.615545 
	C72.393929,12.831756 71.737839,12.771399 71.045151,12.421563 
	C71.598625,12.201049 72.188683,12.270014 72.914383,12.615545 
z"/>
<path fill="#F6F6F6" opacity="1.000000" stroke="none" 
	d="
M37.662792,12.076283 
	C37.675137,12.623919 37.358894,13.112125 37.042652,13.600331 
	C36.724159,13.300914 36.405670,13.001497 36.047997,12.417664 
	C36.450615,12.094450 36.892410,12.055651 37.662792,12.076283 
z"/>
<path fill="#F0F0F0" opacity="1.000000" stroke="none" 
	d="
M21.343592,12.608082 
	C20.658895,12.973316 19.765562,12.986515 18.426571,13.036862 
	C17.690800,12.969769 17.450621,12.796377 17.178829,12.345167 
	C18.443171,12.176348 19.789062,12.216198 21.343592,12.608082 
z"/>
<path fill="#F0F0F0" opacity="1.000000" stroke="none" 
	d="
M138.904419,12.680683 
	C138.192581,12.866045 137.328583,12.741998 136.262970,12.357853 
	C136.958313,12.188928 137.855270,12.280101 138.904419,12.680683 
z"/>
<path fill="#F0F0F0" opacity="1.000000" stroke="none" 
	d="
M132.649323,12.058856 
	C132.968613,12.094577 133.027344,12.565571 133.024780,12.803341 
	C132.476349,12.886662 131.930496,12.732211 131.217712,12.344589 
	C131.477219,12.081989 131.903625,12.052562 132.649323,12.058856 
z"/>
<path fill="#F0F0F0" opacity="1.000000" stroke="none" 
	d="
M118.364380,12.673469 
	C117.774155,12.913448 117.127373,12.769950 116.260933,12.378113 
	C116.796791,12.183179 117.552307,12.236585 118.364380,12.673469 
z"/>
<path fill="#F0F0F0" opacity="1.000000" stroke="none" 
	d="
M121.611801,12.073470 
	C121.655739,12.344164 121.349091,12.598013 120.738449,12.897414 
	C120.710037,12.647520 120.985626,12.352073 121.611801,12.073470 
z"/>
<path fill="#69696A" opacity="1.000000" stroke="none" 
	d="
M213.249542,11.933936 
	C212.651184,11.869471 212.267075,11.678851 211.882965,11.488229 
	C212.400040,11.326550 212.917130,11.164874 213.728882,11.001255 
	C213.918320,11.325115 213.731720,11.594604 213.249542,11.933936 
z"/>
<path fill="#C7C7C7" opacity="1.000000" stroke="none" 
	d="
M150.728104,7.032483 
	C150.700592,7.148119 150.439224,7.256271 150.102081,7.195741 
	C150.026291,7.027059 150.494247,7.024998 150.728104,7.032483 
z"/>
<path fill="#E7E7E7" opacity="1.000000" stroke="none" 
	d="
M57.366806,132.988190 
	C53.454029,129.546783 49.862671,126.121681 46.311668,122.106003 
	C47.392212,121.047516 48.391891,120.331543 49.479492,120.153931 
	C54.655926,119.308571 59.950935,118.988274 65.014053,117.722412 
	C68.261475,116.910515 70.298927,117.114265 72.155472,120.033928 
	C72.734756,120.944954 74.503387,121.099724 75.727577,121.600693 
	C76.181488,120.424538 76.639435,119.249916 77.088211,118.071815 
	C77.569000,116.809692 77.674568,114.907761 78.578598,114.387093 
	C83.274849,111.682327 85.191765,107.442284 86.014984,102.432251 
	C90.699013,102.309113 95.383049,102.185974 100.572739,102.408371 
	C101.352982,103.157341 101.959030,103.755432 101.853279,103.935516 
	C99.655190,107.678467 97.658607,111.589233 95.040260,115.023102 
	C91.940315,119.088524 86.559402,121.439354 86.703148,127.821228 
	C86.776649,131.084412 82.917892,133.374435 80.635956,131.983856 
	C75.144966,128.637741 64.260437,129.208160 58.971458,133.119217 
	C58.543716,133.080994 58.115971,133.042755 57.366806,132.988190 
z"/>
<path fill="#F0F0F0" opacity="1.000000" stroke="none" 
	d="
M85.603714,102.351654 
	C85.191765,107.442284 83.274849,111.682327 78.578598,114.387093 
	C77.674568,114.907761 77.569000,116.809692 77.088211,118.071815 
	C76.639435,119.249916 76.181488,120.424538 75.727577,121.600693 
	C74.503387,121.099724 72.734756,120.944954 72.155472,120.033928 
	C70.298927,117.114265 68.261475,116.910515 65.014053,117.722412 
	C59.950935,118.988274 54.655926,119.308571 49.479492,120.153931 
	C48.391891,120.331543 47.392212,121.047516 46.148071,121.814598 
	C41.371708,118.290695 36.799286,114.467613 32.468704,110.329712 
	C41.405537,112.018333 48.747334,107.351547 56.552132,105.053871 
	C57.242039,104.850777 57.519478,103.246620 57.988487,102.293198 
	C67.056473,102.285820 76.124458,102.278435 85.603714,102.351654 
z"/>
<path fill="#D6D6D6" opacity="1.000000" stroke="none" 
	d="
M80.988777,152.040283 
	C77.334290,148.943573 73.679802,145.846848 70.301682,142.253433 
	C75.311127,140.837601 80.020111,139.754486 84.785378,139.054443 
	C88.216805,138.550339 90.937943,137.752304 92.632454,134.158218 
	C95.325943,128.445312 98.059624,122.603073 101.791061,117.567497 
	C105.930489,111.981339 111.208946,107.239212 115.991440,102.129562 
	C116.741760,102.087547 117.492073,102.045532 118.622360,102.411781 
	C119.001953,103.546989 119.001579,104.273933 118.862122,105.054550 
	C118.673447,105.193970 118.623871,105.279701 118.574303,105.365448 
	C118.715912,105.243233 118.857513,105.121010 119.333176,105.049011 
	C119.444626,106.066360 119.222000,107.033485 118.946312,107.860641 
	C118.806953,107.670868 118.720665,107.621056 118.634377,107.571243 
	C118.756454,107.713959 118.878532,107.856674 118.849045,108.309326 
	C116.369560,114.098450 110.080383,117.000298 109.066978,123.309189 
	C108.404961,127.430519 106.711884,130.496353 103.784248,130.612915 
	C101.680183,133.671906 100.349899,135.678497 98.941048,137.628311 
	C98.025581,138.895279 96.502602,139.939087 96.107437,141.326584 
	C94.814400,145.866745 92.802246,149.543182 87.773109,150.630768 
	C85.515633,151.118973 83.250458,151.571548 80.988777,152.040283 
z"/>
<path fill="#DADADA" opacity="1.000000" stroke="none" 
	d="
M115.528870,102.072510 
	C111.208946,107.239212 105.930489,111.981339 101.791061,117.567497 
	C98.059624,122.603073 95.325943,128.445312 92.632454,134.158218 
	C90.937943,137.752304 88.216805,138.550339 84.785378,139.054443 
	C80.020111,139.754486 75.311127,140.837601 70.243011,141.910400 
	C66.362526,139.276184 62.817078,136.488297 59.121544,133.409821 
	C64.260437,129.208160 75.144966,128.637741 80.635956,131.983856 
	C82.917892,133.374435 86.776649,131.084412 86.703148,127.821228 
	C86.559402,121.439354 91.940315,119.088524 95.040260,115.023102 
	C97.658607,111.589233 99.655190,107.678467 101.853279,103.935516 
	C101.959030,103.755432 101.352982,103.157341 101.028992,102.464447 
	C105.675148,102.121803 110.370720,102.068626 115.528870,102.072510 
z"/>
<path fill="#CFCFCF" opacity="1.000000" stroke="none" 
	d="
M81.117218,152.310837 
	C83.250458,151.571548 85.515633,151.118973 87.773109,150.630768 
	C92.802246,149.543182 94.814400,145.866745 96.107437,141.326584 
	C96.502602,139.939087 98.025581,138.895279 98.941048,137.628311 
	C100.349899,135.678497 101.680183,133.671906 103.784248,130.612915 
	C106.711884,130.496353 108.404961,127.430519 109.066978,123.309189 
	C110.080383,117.000298 116.369560,114.098450 118.848740,108.309631 
	C119.000000,108.000000 118.999390,108.000610 118.999390,108.000610 
	C119.222000,107.033485 119.444626,106.066360 119.333618,105.049622 
	C119.000000,105.000000 119.001205,105.000870 119.001205,105.000870 
	C119.001579,104.273933 119.001953,103.546989 118.996445,102.456924 
	C121.375351,102.055962 123.760132,102.018127 126.588982,102.041809 
	C127.131805,102.412773 127.317902,102.655159 127.798340,103.320648 
	C126.929199,106.835648 126.278465,110.114578 124.663872,112.817818 
	C122.848045,115.857964 119.391266,118.038399 118.000954,121.189606 
	C113.917824,130.444183 108.100403,138.543732 102.432022,146.783417 
	C97.435837,154.045990 97.474823,154.329193 101.982529,160.252625 
	C101.986519,160.499298 101.987961,160.992737 101.987961,160.992737 
	C96.595894,162.382904 91.590492,162.328690 87.534523,157.656677 
	C86.555748,156.529236 85.029190,155.877335 83.383362,154.998627 
	C82.423340,154.187469 81.834496,153.384430 81.117218,152.310837 
M123.411011,111.482437 
	C123.411011,111.482437 123.524246,111.414673 123.411011,111.482437 
M118.411636,117.482658 
	C118.411636,117.482658 118.524231,117.415443 118.411636,117.482658 
z"/>
<path fill="#E7E7E7" opacity="1.000000" stroke="none" 
	d="
M22.529133,100.853745 
	C22.062815,85.505730 22.050756,70.220566 22.075035,54.468475 
	C23.599483,57.566650 25.359596,61.046440 26.510941,64.717178 
	C28.172251,70.013779 29.419441,75.441925 30.789047,80.827744 
	C31.562311,83.868515 32.226826,86.936943 33.146446,90.875732 
	C32.897106,91.190056 31.941837,92.394295 30.986568,93.598526 
	C31.480566,93.539032 31.974564,93.479538 32.468563,93.420052 
	C33.314880,95.615044 34.161201,97.810036 35.011765,100.416672 
	C31.005140,100.857735 26.994267,100.887161 22.529133,100.853745 
z"/>
<path fill="#F6F6F6" opacity="1.000000" stroke="none" 
	d="
M57.526463,102.214859 
	C57.519478,103.246620 57.242039,104.850777 56.552132,105.053871 
	C48.747334,107.351547 41.405537,112.018333 32.308895,110.031166 
	C29.345308,107.912910 26.783369,105.778381 24.067848,103.346367 
	C23.914267,103.048882 24.009092,102.637344 24.031116,102.427414 
	C35.056908,102.190491 46.060673,102.163506 57.526463,102.214859 
z"/>
<path fill="#B1B1B1" opacity="1.000000" stroke="none" 
	d="
M107.399673,167.961731 
	C106.695351,167.462189 106.453972,166.980988 106.247391,165.931366 
	C109.973679,159.364563 113.350891,153.140808 117.445480,147.431534 
	C121.504089,141.772446 122.164734,134.102768 128.206818,129.673172 
	C128.644073,129.352600 128.517151,128.354141 128.865570,127.806351 
	C131.842209,123.126434 134.731186,118.381371 137.923508,113.851089 
	C140.375488,110.371445 143.228195,107.174164 145.902695,103.851303 
	C148.997528,103.587357 152.092377,103.323402 155.638245,103.121628 
	C154.677582,106.360657 153.433411,109.626495 151.806732,112.689171 
	C150.202377,115.709824 148.262222,118.558632 146.378448,121.423035 
	C142.528732,127.276794 138.493622,133.012360 134.770142,138.944290 
	C131.563309,144.053146 128.688690,149.370255 125.656532,154.589111 
	C123.366127,158.531281 121.170357,162.536652 118.676300,166.346176 
	C118.094612,167.234680 116.506783,167.780899 115.325180,167.894424 
	C112.857697,168.131485 110.352394,167.974930 107.399673,167.961731 
M133.485794,137.586365 
	C133.485794,137.586365 133.420242,137.476883 133.485794,137.586365 
z"/>
<path fill="#BDBDBD" opacity="1.000000" stroke="none" 
	d="
M145.613495,103.875435 
	C143.228195,107.174164 140.375488,110.371445 137.923508,113.851089 
	C134.731186,118.381371 131.842209,123.126434 128.865570,127.806351 
	C128.517151,128.354141 128.644073,129.352600 128.206818,129.673172 
	C122.164734,134.102768 121.504089,141.772446 117.445480,147.431534 
	C113.350891,153.140808 109.973679,159.364563 106.141846,165.681183 
	C104.759445,164.526260 103.517365,163.053070 102.131622,161.286316 
	C101.987961,160.992737 101.986519,160.499298 102.136658,159.947418 
	C106.220558,155.502899 105.896126,148.286636 112.427231,146.380264 
	C112.707664,146.298416 112.790581,145.520477 112.954788,145.062973 
	C113.953156,142.281479 114.339272,139.013138 116.082718,136.826660 
	C118.934677,133.249985 118.548050,126.663086 125.301605,126.781677 
	C124.724449,124.758682 124.243958,123.074501 123.866760,121.752380 
	C125.282158,120.691574 127.595551,119.798279 127.657990,118.768494 
	C127.962387,113.748352 130.733185,111.647514 135.375076,111.489731 
	C134.883957,108.385971 134.461945,105.718887 134.039948,103.051804 
	C136.748291,103.048683 139.456619,103.045555 142.733047,103.283463 
	C143.532883,103.781357 143.820374,103.932106 144.163605,103.976746 
	C144.550491,103.951012 144.937393,103.925285 145.613495,103.875435 
z"/>
<path fill="#C7C7C7" opacity="1.000000" stroke="none" 
	d="
M133.608170,103.035767 
	C134.461945,105.718887 134.883957,108.385971 135.375076,111.489731 
	C130.733185,111.647514 127.962387,113.748352 127.657990,118.768494 
	C127.595551,119.798279 125.282158,120.691574 123.866760,121.752380 
	C124.243958,123.074501 124.724449,124.758682 125.301605,126.781677 
	C118.548050,126.663086 118.934677,133.249985 116.082718,136.826660 
	C114.339272,139.013138 113.953156,142.281479 112.954788,145.062973 
	C112.790581,145.520477 112.707664,146.298416 112.427231,146.380264 
	C105.896126,148.286636 106.220558,155.502899 102.132668,159.700745 
	C97.474823,154.329193 97.435837,154.045990 102.432022,146.783417 
	C108.100403,138.543732 113.917824,130.444183 118.000954,121.189606 
	C119.391266,118.038399 122.848045,115.857964 124.663872,112.817818 
	C126.278465,110.114578 126.929199,106.835648 128.010498,103.417419 
	C129.735901,103.022598 131.456146,103.021164 133.608170,103.035767 
M130.481750,104.589088 
	C130.481750,104.589088 130.414169,104.476936 130.481750,104.589088 
M120.409592,120.482910 
	C120.409592,120.482910 120.522011,120.415695 120.409592,120.482910 
z"/>
<path fill="#B1B1B1" opacity="1.000000" stroke="none" 
	d="
M144.034027,103.769363 
	C143.820374,103.932106 143.532883,103.781357 143.185272,103.309563 
	C143.401215,103.154846 143.679550,103.310631 144.034027,103.769363 
z"/>
<path fill="#727272" opacity="1.000000" stroke="none" 
	d="
M164.004333,133.996643 
	C163.885391,133.854370 163.762100,133.715424 163.638824,133.576492 
	C163.723419,133.627060 163.808029,133.677612 163.942993,133.868408 
	C163.993347,134.008667 164.000000,134.000000 164.004333,133.996643 
z"/>
<path fill="#4B4B4B" opacity="1.000000" stroke="none" 
	d="
M203.452271,105.531799 
	C203.419830,105.477310 203.484711,105.586296 203.452271,105.531799 
z"/>
<path fill="#9B9B9B" opacity="1.000000" stroke="none" 
	d="
M46.904305,127.676895 
	C47.006470,142.037415 47.047340,156.118774 46.986198,170.199722 
	C46.979496,171.743118 46.386700,173.283966 45.689285,174.896881 
	C45.312828,174.967758 45.120651,175.032898 45.043262,174.766205 
	C44.955315,174.315308 44.944752,174.131104 44.934185,173.946899 
	C44.935043,173.225052 44.935902,172.503189 44.952637,171.141922 
	C44.956627,170.317062 44.944748,170.131607 44.932861,169.946167 
	C44.932438,169.225861 44.932014,168.505554 44.948444,167.145599 
	C44.954952,166.319626 44.944599,166.133286 44.934250,165.946945 
	C44.935089,165.225082 44.935932,164.503220 44.952641,163.141937 
	C44.956627,162.317062 44.944748,162.131607 44.932865,161.946167 
	C44.932438,161.225861 44.932014,160.505554 44.948448,159.145599 
	C44.954952,158.319626 44.944599,158.133286 44.934250,157.946945 
	C44.935089,157.225082 44.935928,156.503220 44.952641,155.141937 
	C44.956627,154.317062 44.944748,154.131607 44.932861,153.946167 
	C44.932438,153.225861 44.932014,152.505554 44.948444,151.145599 
	C44.954952,150.319626 44.944599,150.133286 44.934250,149.946945 
	C44.935089,149.225082 44.935928,148.503220 44.952641,147.141937 
	C44.956627,146.317062 44.944748,146.131607 44.932865,145.946167 
	C44.932438,145.225861 44.932014,144.505554 44.948448,143.145599 
	C44.954952,142.319626 44.944599,142.133286 44.934250,141.946945 
	C44.935104,141.225021 44.935963,140.503113 44.953209,139.142502 
	C44.958630,138.318802 44.947659,138.133774 44.936687,137.948746 
	C44.935680,137.227310 44.934677,136.505890 44.950172,135.144958 
	C44.956326,134.319611 44.945972,134.133759 44.935616,133.947922 
	C44.911133,131.529388 44.886650,129.110855 44.923794,126.334473 
	C45.594685,126.450294 46.203949,126.923965 46.904305,127.676895 
z"/>
<path fill="#B1B1B1" opacity="1.000000" stroke="none" 
	d="
M44.689259,145.977722 
	C44.944748,146.131607 44.956627,146.317062 44.946419,146.781021 
	C44.508286,146.873154 44.092243,146.686783 43.676197,146.500412 
	C43.932678,146.336700 44.189167,146.172989 44.689259,145.977722 
z"/>
<path fill="#B1B1B1" opacity="1.000000" stroke="none" 
	d="
M44.692257,133.979095 
	C44.945972,134.133759 44.956326,134.319611 44.942669,134.784271 
	C44.504608,134.874817 44.090553,134.686523 43.676498,134.498215 
	C43.933968,134.335571 44.191433,134.172928 44.692257,133.979095 
z"/>
<path fill="#B1B1B1" opacity="1.000000" stroke="none" 
	d="
M44.692772,137.979507 
	C44.947659,138.133774 44.958630,138.318802 44.947029,138.781570 
	C44.508606,138.872543 44.092754,138.685745 43.676903,138.498962 
	C43.934223,138.336075 44.191536,138.173172 44.692772,137.979507 
z"/>
<path fill="#B1B1B1" opacity="1.000000" stroke="none" 
	d="
M44.690750,141.977997 
	C44.944599,142.133286 44.954952,142.319626 44.940563,142.785492 
	C44.502110,142.875946 44.088394,142.686859 43.674675,142.497772 
	C43.932201,142.334854 44.189724,142.171951 44.690750,141.977997 
z"/>
<path fill="#B1B1B1" opacity="1.000000" stroke="none" 
	d="
M44.690754,149.977997 
	C44.944599,150.133286 44.954952,150.319626 44.940563,150.785492 
	C44.502110,150.875961 44.088394,150.686859 43.674683,150.497772 
	C43.932205,150.334869 44.189732,150.171967 44.690754,149.977997 
z"/>
<path fill="#B1B1B1" opacity="1.000000" stroke="none" 
	d="
M44.689262,153.977722 
	C44.944748,154.131607 44.956627,154.317062 44.946419,154.781021 
	C44.508282,154.873169 44.092239,154.686783 43.676197,154.500412 
	C43.932686,154.336700 44.189171,154.172989 44.689262,153.977722 
z"/>
<path fill="#B1B1B1" opacity="1.000000" stroke="none" 
	d="
M44.690750,157.977997 
	C44.944599,158.133286 44.954952,158.319626 44.940563,158.785492 
	C44.502110,158.875961 44.088394,158.686859 43.674679,158.497772 
	C43.932205,158.334869 44.189728,158.171951 44.690750,157.977997 
z"/>
<path fill="#B1B1B1" opacity="1.000000" stroke="none" 
	d="
M44.689259,161.977722 
	C44.944748,162.131607 44.956627,162.317062 44.946419,162.781021 
	C44.508282,162.873169 44.092239,162.686783 43.676193,162.500412 
	C43.932682,162.336700 44.189167,162.172989 44.689259,161.977722 
z"/>
<path fill="#B1B1B1" opacity="1.000000" stroke="none" 
	d="
M44.690750,165.977997 
	C44.944599,166.133286 44.954952,166.319626 44.940563,166.785492 
	C44.502110,166.875946 44.088394,166.686859 43.674679,166.497772 
	C43.932201,166.334854 44.189728,166.171951 44.690750,165.977997 
z"/>
<path fill="#B1B1B1" opacity="1.000000" stroke="none" 
	d="
M44.689259,169.977722 
	C44.944748,170.131607 44.956627,170.317062 44.946419,170.781006 
	C44.508286,170.873154 44.092243,170.686783 43.676197,170.500397 
	C43.932678,170.336685 44.189163,170.172974 44.689259,169.977722 
z"/>
<path fill="#B1B1B1" opacity="1.000000" stroke="none" 
	d="
M44.690716,173.977966 
	C44.944752,174.131104 44.955315,174.315308 44.942261,174.775818 
	C44.504047,174.867310 44.089447,174.682495 43.674847,174.497650 
	C43.932312,174.334778 44.189781,174.171906 44.690716,173.977966 
z"/>
<path fill="#E7E7E7" opacity="1.000000" stroke="none" 
	d="
M120.464035,94.447983 
	C120.521461,94.413445 120.406601,94.482529 120.464035,94.447983 
z"/>
<path fill="#C7C7C7" opacity="1.000000" stroke="none" 
	d="
M150.465302,23.449120 
	C150.521667,23.415413 150.408920,23.482824 150.465302,23.449120 
z"/>
<path fill="#C7C7C7" opacity="1.000000" stroke="none" 
	d="
M150.465424,94.449158 
	C150.521652,94.415558 150.409195,94.482758 150.465424,94.449158 
z"/>
<path fill="#C7C7C7" opacity="1.000000" stroke="none" 
	d="
M150.447327,89.533012 
	C150.413269,89.476692 150.481400,89.589333 150.447327,89.533012 
z"/>
<path fill="#C7C7C7" opacity="1.000000" stroke="none" 
	d="
M150.531952,87.551178 
	C150.475540,87.584824 150.588348,87.517525 150.531952,87.551178 
z"/>
<path fill="#C7C7C7" opacity="1.000000" stroke="none" 
	d="
M150.532104,81.551117 
	C150.475464,81.584946 150.588745,81.517296 150.532104,81.551117 
z"/>
<path fill="#C7C7C7" opacity="1.000000" stroke="none" 
	d="
M150.531921,79.551163 
	C150.475510,79.584808 150.588333,79.517525 150.531921,79.551163 
z"/>
<path fill="#C7C7C7" opacity="1.000000" stroke="none" 
	d="
M150.532104,73.551117 
	C150.475464,73.584946 150.588745,73.517296 150.532104,73.551117 
z"/>
<path fill="#C7C7C7" opacity="1.000000" stroke="none" 
	d="
M150.549896,71.467201 
	C150.583755,71.523483 150.516022,71.410919 150.549896,71.467201 
z"/>
<path fill="#C7C7C7" opacity="1.000000" stroke="none" 
	d="
M150.464996,65.448601 
	C150.521606,65.414696 150.408386,65.482506 150.464996,65.448601 
z"/>
<path fill="#C7C7C7" opacity="1.000000" stroke="none" 
	d="
M150.465302,63.449112 
	C150.521667,63.415409 150.408920,63.482819 150.465302,63.449112 
z"/>
<path fill="#C7C7C7" opacity="1.000000" stroke="none" 
	d="
M150.447128,57.533100 
	C150.412979,57.476658 150.481277,57.589542 150.447128,57.533100 
z"/>
<path fill="#C7C7C7" opacity="1.000000" stroke="none" 
	d="
M150.531952,55.551170 
	C150.475555,55.584820 150.588364,55.517525 150.531952,55.551170 
z"/>
<path fill="#C7C7C7" opacity="1.000000" stroke="none" 
	d="
M150.550034,25.466724 
	C150.584106,25.523230 150.515961,25.410217 150.550034,25.466724 
z"/>
<path fill="#C7C7C7" opacity="1.000000" stroke="none" 
	d="
M150.532074,49.551140 
	C150.475433,49.584961 150.588730,49.517323 150.532074,49.551140 
z"/>
<path fill="#C7C7C7" opacity="1.000000" stroke="none" 
	d="
M150.531952,47.551170 
	C150.475555,47.584820 150.588364,47.517525 150.531952,47.551170 
z"/>
<path fill="#C7C7C7" opacity="1.000000" stroke="none" 
	d="
M150.550018,41.466721 
	C150.584091,41.523235 150.515961,41.410210 150.550018,41.466721 
z"/>
<path fill="#C7C7C7" opacity="1.000000" stroke="none" 
	d="
M150.549881,39.467213 
	C150.583740,39.523499 150.516022,39.410927 150.549881,39.467213 
z"/>
<path fill="#C7C7C7" opacity="1.000000" stroke="none" 
	d="
M150.447128,33.533100 
	C150.412979,33.476658 150.481277,33.589542 150.447128,33.533100 
z"/>
<path fill="#C7C7C7" opacity="1.000000" stroke="none" 
	d="
M150.447510,31.533195 
	C150.413528,31.476990 150.481476,31.589401 150.447510,31.533195 
z"/>
<path fill="#BDBDBD" opacity="1.000000" stroke="none" 
	d="
M148.534729,97.551315 
	C148.478195,97.585159 148.591248,97.517464 148.534729,97.551315 
z"/>
<path fill="#CFCFCF" opacity="1.000000" stroke="none" 
	d="
M118.999557,104.999390 
	C118.857513,105.121010 118.715912,105.243233 118.574303,105.365448 
	C118.623871,105.279701 118.673447,105.193970 118.862122,105.054550 
	C119.001205,105.000870 119.000000,105.000000 118.999557,104.999390 
z"/>
<path fill="#CFCFCF" opacity="1.000000" stroke="none" 
	d="
M119.000305,107.999695 
	C118.878532,107.856674 118.756454,107.713959 118.634377,107.571243 
	C118.720665,107.621056 118.806953,107.670868 118.946320,107.860641 
	C118.999390,108.000610 119.000000,108.000000 119.000305,107.999695 
z"/>
<path fill="#C7C7C7" opacity="1.000000" stroke="none" 
	d="
M123.467628,111.448555 
	C123.524246,111.414673 123.411011,111.482437 123.467628,111.448555 
z"/>
<path fill="#C7C7C7" opacity="1.000000" stroke="none" 
	d="
M118.467934,117.449051 
	C118.524231,117.415443 118.411636,117.482658 118.467934,117.449051 
z"/>
<path fill="#9B9B9B" opacity="1.000000" stroke="none" 
	d="
M133.453018,137.531616 
	C133.420242,137.476883 133.485794,137.586365 133.453018,137.531616 
z"/>
<path fill="#CFCFCF" opacity="1.000000" stroke="none" 
	d="
M130.447968,104.533012 
	C130.414169,104.476936 130.481750,104.589088 130.447968,104.533012 
z"/>
<path fill="#CFCFCF" opacity="1.000000" stroke="none" 
	d="
M120.465805,120.449303 
	C120.522011,120.415695 120.409592,120.482910 120.465805,120.449303 
z"/>
</svg>