<svg version="1.1" id="Layer_1" xmlns="http://www.w3.org/2000/svg" xmlns:xlink="http://www.w3.org/1999/xlink" x="0px" y="0px"
	 width="100%" viewBox="0 0 76 92" enable-background="new 0 0 76 92" xml:space="preserve">
<path fill="#FFFFFF" opacity="1.000000" stroke="none" 
	d="
M1.000000,41.000000 
	C1.000000,27.704165 1.000000,14.408329 1.000000,1.056247 
	C26.224487,1.056247 51.449123,1.056247 77.000000,1.056247 
	C77.000000,14.019078 77.000000,27.040880 76.664284,40.475281 
	C75.878403,40.932102 75.428230,40.976318 74.516235,41.009056 
	C70.481697,40.997570 66.908989,40.997570 62.975777,40.997570 
	C62.975777,43.248749 63.230080,44.928017 62.880764,46.470600 
	C62.669945,47.401566 61.521381,48.120182 60.794186,48.934216 
	C60.206104,48.147594 59.242474,47.419384 59.109135,46.562038 
	C58.842285,44.846264 59.029942,43.059799 59.029942,41.006054 
	C56.595123,41.006054 54.800850,41.006054 52.788158,40.961327 
	C52.569740,40.916603 52.131386,40.998280 51.978249,40.555660 
	C51.825115,35.968388 51.825115,31.823736 51.825115,27.332699 
	C50.363873,27.332699 49.251976,27.332699 47.719433,27.197296 
	C46.209488,26.235214 44.270039,25.491199 44.180202,24.567333 
	C43.819283,20.855618 44.030888,17.088230 44.030888,12.993635 
	C48.958958,12.993635 53.221790,12.993635 57.446918,12.993635 
	C57.880791,7.889637 52.250019,3.203463 45.689217,3.080994 
	C44.565899,3.071989 43.815941,3.105367 42.689198,3.086786 
	C41.554188,3.054979 40.795971,3.075131 39.662926,3.061261 
	C38.538017,3.042960 37.787933,3.058682 36.617676,3.057616 
	C31.026728,3.478857 25.879423,3.974912 22.047855,8.823468 
	C21.080368,10.116153 20.473505,11.202003 19.349102,13.213881 
	C24.946032,13.213881 29.331150,13.213881 33.720787,13.213881 
	C33.720787,18.009951 33.720787,22.252865 33.720787,26.689037 
	C31.093363,26.907696 28.702971,27.106628 25.776310,27.350189 
	C25.776310,32.051052 25.776310,36.424046 25.776310,40.744755 
	C23.257288,40.942627 21.322733,41.094585 19.462597,41.240696 
	C18.444410,48.911491 18.444410,48.911491 15.187170,48.082260 
	C15.030423,45.828808 14.873992,43.576107 14.695104,41.000000 
	C9.897962,41.000000 5.448981,41.000000 1.000000,41.000000 
z"/>
<path fill="#909091" opacity="1.000000" stroke="none" 
	d="
M46.062576,3.123377 
	C52.250019,3.203463 57.880791,7.889637 57.446918,12.993635 
	C53.221790,12.993635 48.958958,12.993635 44.030888,12.993635 
	C44.030888,17.088230 43.819283,20.855618 44.180202,24.567333 
	C44.270039,25.491199 46.209488,26.235214 47.682758,27.641060 
	C48.044048,33.530697 48.021370,38.841171 47.798134,44.436394 
	C46.589516,45.027863 45.581455,45.334572 44.036110,45.804752 
	C44.036110,41.062939 43.710152,36.819523 44.134819,32.652603 
	C44.502960,29.040314 43.309505,27.767397 39.436306,28.149979 
	C35.700691,28.119936 32.409378,28.132456 28.703018,28.158525 
	C27.608013,32.665031 26.928055,37.157990 26.277733,41.455116 
	C24.485556,43.295841 19.916296,39.816383 20.077990,45.389709 
	C20.058205,46.526390 20.082314,47.285557 20.076183,48.421009 
	C20.079082,49.549671 20.112223,50.302040 20.101765,51.492992 
	C20.090372,54.283604 20.122576,56.635632 20.096878,59.384743 
	C20.078014,60.848850 20.117052,61.915886 20.098251,63.356083 
	C20.078115,64.481300 20.115816,65.233353 20.103392,66.379868 
	C20.077860,67.832291 20.102453,68.890244 20.076639,70.398087 
	C20.022575,78.007401 20.022575,78.007217 27.258553,78.003593 
	C29.248560,78.002602 31.238565,78.002869 33.228573,78.002846 
	C41.293991,78.002769 49.359406,78.002808 57.881310,78.002808 
	C57.881310,74.844093 57.881310,72.397522 57.911736,69.580025 
	C57.900532,68.467224 57.858902,67.725349 57.875481,66.585892 
	C57.900417,65.119469 57.867153,64.050636 57.887894,62.608398 
	C57.903046,61.483788 57.864189,60.732578 57.883411,59.537918 
	C57.903316,56.417469 57.865143,53.740471 57.885353,50.664841 
	C57.913101,49.197170 57.882462,48.128139 57.896721,46.647339 
	C59.291481,41.666168 54.812778,42.597118 53.006577,41.006054 
	C54.800850,41.006054 56.595123,41.006054 59.029942,41.006054 
	C59.029942,43.059799 58.842285,44.846264 59.109135,46.562038 
	C59.242474,47.419384 60.206104,48.147594 60.794186,48.934216 
	C61.521381,48.120182 62.669945,47.401566 62.880764,46.470600 
	C63.230080,44.928017 62.975777,43.248749 62.975777,40.997570 
	C66.908989,40.997570 70.481697,40.997570 74.256721,41.331161 
	C71.123482,41.907181 67.787918,42.149605 64.120178,42.416172 
	C64.120178,44.198860 64.120178,45.630093 64.088394,47.460472 
	C64.092972,48.926918 64.129333,49.994209 64.113235,51.504539 
	C64.095345,54.626163 64.129898,57.304760 64.102768,60.395905 
	C64.082802,62.195339 64.124527,63.582218 64.105835,65.381516 
	C64.061287,67.178612 64.077171,68.563293 64.048492,70.398804 
	C64.000824,78.018684 64.000824,78.020012 71.094299,78.017838 
	C73.062866,78.017235 75.031433,78.006233 77.000000,78.000000 
	C77.000000,82.356903 77.000000,86.713799 76.710167,91.504837 
	C76.242439,91.860870 76.064537,91.782776 75.921677,91.289268 
	C75.842445,89.322029 75.728180,87.770203 75.622849,86.339668 
	C71.093758,85.889496 67.192551,85.501740 63.066917,84.803375 
	C61.476814,84.688278 60.111130,84.883789 58.294662,85.058998 
	C45.100555,85.235489 32.357231,85.432289 19.378311,85.391838 
	C17.143377,83.086876 15.647796,83.348694 14.250910,86.085289 
	C11.688789,86.025024 9.538029,86.219238 7.457494,85.921959 
	C2.712571,85.243988 1.203136,87.299919 1.844803,91.829231 
	C1.385630,91.963478 1.192815,91.981743 1.000000,92.000000 
	C1.000000,87.975456 1.000000,83.950912 1.464812,79.445496 
	C4.055639,78.976227 6.217664,78.742508 8.300502,79.048241 
	C13.314734,79.784279 14.789323,77.514038 13.952505,72.558136 
	C13.938492,71.095886 13.902143,70.032082 13.909636,68.593445 
	C13.910405,67.467133 13.867333,66.715637 13.876972,65.597244 
	C13.903232,64.490921 13.876779,63.751492 13.912233,62.546631 
	C13.990930,58.767220 14.062671,55.452442 14.014170,52.139423 
	C13.870828,42.348083 12.071852,41.083775 2.433074,43.876682 
	C1.981395,44.007561 1.478854,43.962906 1.000000,44.000000 
	C1.000000,43.250000 1.000000,42.500000 1.000000,41.375000 
	C5.448981,41.000000 9.897962,41.000000 14.695104,41.000000 
	C14.873992,43.576107 15.030423,45.828808 15.187170,48.082260 
	C18.444410,48.911491 18.444410,48.911491 19.462597,41.240696 
	C21.322733,41.094585 23.257288,40.942627 25.776310,40.744755 
	C25.776310,36.424046 25.776310,32.051052 25.776310,27.350189 
	C28.702971,27.106628 31.093363,26.907696 33.720787,26.689037 
	C33.720787,22.252865 33.720787,18.009951 33.720787,13.213881 
	C29.331150,13.213881 24.946032,13.213881 19.349102,13.213881 
	C20.473505,11.202003 21.080368,10.116153 21.973694,9.273733 
	C23.344284,10.317926 24.391413,11.741019 25.519157,11.808064 
	C29.653606,12.053858 33.814861,11.848763 38.297447,11.874161 
	C39.076313,11.917008 39.523758,11.899115 40.341969,11.926073 
	C41.457909,11.952187 42.203083,11.933447 43.358437,11.946430 
	C46.511932,12.298975 47.287167,10.780714 46.985786,8.413220 
	C46.759995,6.639507 46.376087,4.885923 46.062576,3.123377 
M34.971657,15.781023 
	C34.971657,19.366619 34.971657,22.952215 34.971657,26.443344 
	C40.902760,27.237679 40.926460,27.224308 40.974083,22.197144 
	C40.992832,20.217611 41.161934,18.212084 40.897682,16.267992 
	C40.748745,15.172295 39.785900,13.269230 39.313038,13.306226 
	C37.844715,13.421106 36.435383,14.289910 34.971657,15.781023 
M16.046310,52.253384 
	C14.183797,57.367867 14.517091,62.145973 16.952541,65.245117 
	C20.087662,60.255131 19.899389,54.868393 16.046310,52.253384 
M62.997536,58.498192 
	C62.450756,56.429672 61.903976,54.361149 61.357197,52.292629 
	C60.798355,52.405807 60.239513,52.518986 59.680672,52.632164 
	C59.680672,56.595810 59.680672,60.559452 59.680672,64.523102 
	C60.228619,64.620491 60.776569,64.717880 61.324516,64.815269 
	C61.881721,62.984627 62.438927,61.153988 62.997536,58.498192 
z"/>
<path fill="#E2E2E2" opacity="1.000000" stroke="none" 
	d="
M1.000000,44.466858 
	C1.478854,43.962906 1.981395,44.007561 2.433074,43.876682 
	C12.071852,41.083775 13.870828,42.348083 14.014170,52.139423 
	C14.062671,55.452442 13.990930,58.767220 13.469467,62.541908 
	C9.415383,63.002617 5.865973,63.002617 2.406914,63.002617 
	C1.939589,62.005257 1.469794,61.002628 1.000000,60.000000 
	C1.000000,54.977909 1.000000,49.955814 1.000000,44.466858 
z"/>
<path fill="#FFFFFF" opacity="1.000000" stroke="none" 
	d="
M75.886635,91.704674 
	C76.064537,91.782776 76.242439,91.860870 76.710167,91.969482 
	C75.677422,92.333336 74.355537,92.954124 73.032150,92.957352 
	C49.021542,93.015846 25.010752,93.000000 1.000000,92.500000 
	C1.192815,91.981743 1.385630,91.963478 2.300232,91.861206 
	C6.900674,91.777184 10.779330,91.777184 14.694157,91.777184 
	C14.694157,89.414642 14.694157,87.765617 14.694157,86.116592 
	C15.647796,83.348694 17.143377,83.086876 19.227875,85.779160 
	C19.388857,87.219566 19.464685,88.035400 19.460743,89.317322 
	C20.103945,90.428200 20.821201,91.627403 21.550747,91.634926 
	C33.203907,91.755058 44.859241,91.768173 56.511475,91.611649 
	C57.201328,91.602379 57.869118,89.950531 58.669823,88.679367 
	C58.776794,87.223564 58.761120,86.151436 58.745445,85.079300 
	C60.111130,84.883789 61.476814,84.688278 63.029491,85.235657 
	C63.216484,87.765869 63.216484,89.553192 63.216484,91.704674 
	C67.668472,91.704674 71.777550,91.704674 75.886635,91.704674 
z"/>
<path fill="#EFEFEF" opacity="1.000000" stroke="none" 
	d="
M64.164459,59.983353 
	C64.129898,57.304760 64.095345,54.626163 64.562469,51.485699 
	C69.042763,51.015884 73.021385,51.007942 77.000000,51.000000 
	C77.000000,53.370556 77.000000,55.741116 76.695831,58.485283 
	C76.189308,58.907707 75.986954,58.956520 75.375587,59.006386 
	C71.365868,59.332745 67.765160,59.658047 64.164459,59.983353 
z"/>
<path fill="#C0C0C0" opacity="1.000000" stroke="none" 
	d="
M77.000000,77.562500 
	C75.031433,78.006233 73.062866,78.017235 71.094299,78.017838 
	C64.000824,78.020012 64.000824,78.018684 64.489212,70.424957 
	C68.982994,70.333534 72.991493,70.666763 77.000000,71.000000 
	C77.000000,73.041664 77.000000,75.083336 77.000000,77.562500 
z"/>
<path fill="#B5B5B6" opacity="1.000000" stroke="none" 
	d="
M13.930169,72.956566 
	C14.789323,77.514038 13.314734,79.784279 8.300502,79.048241 
	C6.217664,78.742508 4.055639,78.976227 1.464812,78.982315 
	C1.000000,77.285645 1.000000,75.571281 1.461914,73.401543 
	C5.925941,72.949623 9.928055,72.953094 13.930169,72.956566 
z"/>
<path fill="#E8E8E8" opacity="1.000000" stroke="none" 
	d="
M64.102768,60.395905 
	C67.765160,59.658047 71.365868,59.332745 75.518417,59.246696 
	C76.380173,59.657299 76.690086,59.828651 77.000000,60.000000 
	C77.000000,61.388889 77.000000,62.777782 76.538208,64.558487 
	C72.106369,64.956566 68.136314,64.962830 64.166260,64.969101 
	C64.124527,63.582218 64.082802,62.195339 64.102768,60.395905 
z"/>
<path fill="#DBDBDB" opacity="1.000000" stroke="none" 
	d="
M64.105835,65.381516 
	C68.136314,64.962830 72.106369,64.956566 76.538208,64.975151 
	C77.000000,66.714355 77.000000,68.428719 77.000000,70.571533 
	C72.991493,70.666763 68.982994,70.333534 64.533768,69.974136 
	C64.077171,68.563293 64.061287,67.178612 64.105835,65.381516 
z"/>
<path fill="#BDBDBD" opacity="1.000000" stroke="none" 
	d="
M64.120178,47.061325 
	C64.120178,45.630093 64.120178,44.198860 64.120178,42.416172 
	C67.787918,42.149605 71.123482,41.907181 74.718552,41.342648 
	C75.428230,40.976318 75.878403,40.932102 76.664284,40.943939 
	C77.000000,42.714359 77.000000,44.428715 76.538208,46.605877 
	C72.091011,47.066227 68.105591,47.063778 64.120178,47.061325 
z"/>
<path fill="#D6D6D6" opacity="1.000000" stroke="none" 
	d="
M64.088394,47.460472 
	C68.105591,47.063778 72.091011,47.066227 76.538208,47.034340 
	C77.000000,48.066669 77.000000,49.133339 77.000000,50.600006 
	C73.021385,51.007942 69.042763,51.015884 64.614922,51.042664 
	C64.129333,49.994209 64.092972,48.926918 64.088394,47.460472 
z"/>
<path fill="#CDCDCE" opacity="1.000000" stroke="none" 
	d="
M13.952505,72.558136 
	C9.928055,72.953094 5.925941,72.949623 1.461914,72.973083 
	C1.000000,71.933327 1.000000,70.866653 1.462142,69.377167 
	C5.904788,68.958992 9.885291,68.963631 13.865793,68.968277 
	C13.902143,70.032082 13.938492,71.095886 13.952505,72.558136 
z"/>
<path fill="#DBDBDB" opacity="1.000000" stroke="none" 
	d="
M13.909636,68.593452 
	C9.885291,68.963631 5.904788,68.958992 1.462142,68.977173 
	C1.000000,67.933327 1.000000,66.866661 1.454848,65.374268 
	C5.881217,65.287079 9.852739,65.625610 13.824261,65.964142 
	C13.867333,66.715637 13.910405,67.467133 13.909636,68.593452 
z"/>
<path fill="#E8E8E8" opacity="1.000000" stroke="none" 
	d="
M13.876972,65.597244 
	C9.852739,65.625610 5.881217,65.287079 1.454848,64.974274 
	C1.000000,63.611111 1.000000,62.222221 1.000000,60.416664 
	C1.469794,61.002628 1.939589,62.005257 2.406914,63.002617 
	C5.865973,63.002617 9.415383,63.002617 13.407560,63.007339 
	C13.876779,63.751492 13.903232,64.490921 13.876972,65.597244 
z"/>
<path fill="#D6D6D6" opacity="1.000000" stroke="none" 
	d="
M77.000000,59.750000 
	C76.690086,59.828651 76.380173,59.657299 75.927437,59.245640 
	C75.986954,58.956520 76.189308,58.907707 76.695831,58.929451 
	C77.000000,59.000000 77.000000,59.500000 77.000000,59.750000 
z"/>
<path fill="#C1C1C2" opacity="1.000000" stroke="none" 
	d="
M52.788158,40.961327 
	C54.812778,42.597118 59.291481,41.666168 57.535408,46.636906 
	C50.371704,47.001259 43.614223,46.964279 37.133354,46.659927 
	C38.267708,45.046059 39.780930,43.738522 39.863697,42.345963 
	C40.143135,37.644428 39.914795,32.912716 39.880608,28.192539 
	C43.309505,27.767397 44.502960,29.040314 44.134819,32.652603 
	C43.710152,36.819523 44.036110,41.062939 44.036110,45.804752 
	C45.581455,45.334572 46.589516,45.027863 48.139427,44.360027 
	C49.831314,42.998695 50.981350,41.998486 52.131386,40.998276 
	C52.131386,40.998280 52.569740,40.916603 52.788158,40.961327 
z"/>
<path fill="#E8E8E8" opacity="1.000000" stroke="none" 
	d="
M37.966022,11.813419 
	C33.814861,11.848763 29.653606,12.053858 25.519157,11.808064 
	C24.391413,11.741019 23.344284,10.317926 22.334320,9.066898 
	C25.879423,3.974912 31.026728,3.478857 36.608925,3.459351 
	C37.335571,6.523056 37.650799,9.168238 37.966022,11.813419 
z"/>
<path fill="#555555" opacity="1.000000" stroke="none" 
	d="
M51.978249,40.555656 
	C50.981350,41.998486 49.831314,42.998695 48.339985,44.075272 
	C48.021370,38.841171 48.044048,33.530697 48.103401,27.776463 
	C49.251976,27.332699 50.363873,27.332699 51.825115,27.332699 
	C51.825115,31.823736 51.825115,35.968388 51.978249,40.555656 
z"/>
<path fill="#B5B5B6" opacity="1.000000" stroke="none" 
	d="
M45.689217,3.080994 
	C46.376087,4.885923 46.759995,6.639507 46.985786,8.413220 
	C47.287167,10.780714 46.511932,12.298975 43.381756,11.508617 
	C43.018589,8.405636 43.042290,5.772191 43.065987,3.138745 
	C43.815941,3.105367 44.565899,3.071989 45.689217,3.080994 
z"/>
<path fill="#CDCDCE" opacity="1.000000" stroke="none" 
	d="
M42.689198,3.086785 
	C43.042290,5.772191 43.018589,8.405636 42.971573,11.476894 
	C42.203083,11.933447 41.457909,11.952187 40.353233,11.488907 
	C40.008404,8.369688 40.023075,5.732486 40.037750,3.095284 
	C40.795971,3.075131 41.554188,3.054979 42.689198,3.086785 
z"/>
<path fill="#DBDBDB" opacity="1.000000" stroke="none" 
	d="
M39.662926,3.061261 
	C40.023075,5.732486 40.008404,8.369688 39.982464,11.444055 
	C39.523758,11.899115 39.076313,11.917008 38.297447,11.874161 
	C37.650799,9.168238 37.335571,6.523056 37.029099,3.476139 
	C37.787933,3.058682 38.538017,3.042960 39.662926,3.061261 
z"/>
<path fill="#C5C5C5" opacity="1.000000" stroke="none" 
	d="
M57.881310,69.950958 
	C57.881310,72.397522 57.881310,74.844093 57.881310,78.002808 
	C49.359406,78.002808 41.293991,78.002769 33.228573,78.002846 
	C31.238565,78.002869 29.248560,78.002602 27.258553,78.003593 
	C20.022575,78.007217 20.022575,78.007401 20.499092,70.420013 
	C26.379715,69.667831 31.788502,69.068336 37.194984,69.088455 
	C44.091396,69.114105 50.985954,69.640434 57.881310,69.950958 
z"/>
<path fill="#EFEFEF" opacity="1.000000" stroke="none" 
	d="
M20.154779,58.987663 
	C20.122576,56.635632 20.090372,54.283604 20.557735,51.470562 
	C33.313862,51.027527 45.570415,51.045502 57.826969,51.063477 
	C57.865143,53.740471 57.903316,56.417469 57.482529,59.481209 
	C55.095383,59.579044 53.169167,59.056431 51.238689,59.040215 
	C40.877972,58.953159 30.516191,58.992180 20.154779,58.987663 
z"/>
<path fill="#E8E8E8" opacity="1.000000" stroke="none" 
	d="
M39.436302,28.149979 
	C39.914795,32.912716 40.143135,37.644428 39.863697,42.345963 
	C39.780930,43.738522 38.267708,45.046059 36.856430,46.667511 
	C35.929565,46.955502 35.556244,46.968533 34.956146,46.726456 
	C33.492764,45.979153 32.256161,45.486950 30.801369,44.670734 
	C30.062712,42.896919 29.163130,41.464680 29.094982,39.993919 
	C28.912382,36.053089 29.085970,32.095753 29.118067,28.144974 
	C32.409378,28.132456 35.700691,28.119936 39.436302,28.149979 
z"/>
<path fill="#6A6A6A" opacity="1.000000" stroke="none" 
	d="
M58.294662,85.058998 
	C58.761120,86.151436 58.776794,87.223564 58.231720,88.666130 
	C44.960812,88.974785 32.250664,88.913017 19.540514,88.851242 
	C19.464685,88.035400 19.388857,87.219566 19.463467,86.016403 
	C32.357231,85.432289 45.100555,85.235489 58.294662,85.058998 
z"/>
<path fill="#E9E9E9" opacity="1.000000" stroke="none" 
	d="
M20.096878,59.384743 
	C30.516191,58.992180 40.877972,58.953159 51.238689,59.040215 
	C53.169167,59.056431 55.095383,59.579044 57.424450,59.924664 
	C57.864189,60.732578 57.903046,61.483788 57.432915,62.615089 
	C44.667988,62.991096 32.412041,62.987007 20.156090,62.982918 
	C20.117052,61.915886 20.078014,60.848850 20.096878,59.384743 
z"/>
<path fill="#D6D6D6" opacity="1.000000" stroke="none" 
	d="
M35.182922,46.981560 
	C35.556244,46.968533 35.929565,46.955502 36.579811,46.934883 
	C43.614223,46.964279 50.371704,47.001259 57.490501,47.048676 
	C57.882462,48.128139 57.913101,49.197170 57.885353,50.664837 
	C45.570415,51.045502 33.313862,51.027527 20.601334,51.031982 
	C20.112223,50.302040 20.079082,49.549671 20.463654,48.392727 
	C25.648550,47.652622 30.415735,47.317093 35.182922,46.981560 
z"/>
<path fill="#DBDBDB" opacity="1.000000" stroke="none" 
	d="
M57.911736,69.580032 
	C50.985954,69.640434 44.091396,69.114105 37.194984,69.088455 
	C31.788502,69.068336 26.379715,69.667831 20.549500,69.970123 
	C20.102453,68.890244 20.077860,67.832291 20.558846,66.385513 
	C33.315372,66.325623 45.566322,66.654549 57.817276,66.983475 
	C57.858902,67.725349 57.900532,68.467224 57.911736,69.580032 
z"/>
<path fill="#E2E2E2" opacity="1.000000" stroke="none" 
	d="
M57.875477,66.585892 
	C45.566322,66.654549 33.315372,66.325623 20.608971,65.991051 
	C20.115816,65.233353 20.078115,64.481300 20.098253,63.356083 
	C32.412041,62.987007 44.667988,62.991096 57.378914,62.988495 
	C57.867153,64.050636 57.900417,65.119469 57.875477,66.585892 
z"/>
<path fill="#DBDBDB" opacity="1.000000" stroke="none" 
	d="
M34.987411,15.323606 
	C36.435383,14.289910 37.844715,13.421106 39.313038,13.306226 
	C39.785900,13.269230 40.748745,15.172295 40.897682,16.267992 
	C41.161934,18.212084 40.992832,20.217611 40.974083,22.197144 
	C40.926460,27.224308 40.902760,27.237679 34.971657,26.443344 
	C34.971657,22.952215 34.971657,19.366619 34.987411,15.323606 
z"/>
<path fill="#5C5C5C" opacity="1.000000" stroke="none" 
	d="
M75.921677,91.289268 
	C71.777550,91.704674 67.668472,91.704674 63.216484,91.704674 
	C63.216484,89.553192 63.216484,87.765869 63.253914,85.546257 
	C67.192551,85.501740 71.093758,85.889496 75.622849,86.339668 
	C75.728180,87.770203 75.842445,89.322029 75.921677,91.289268 
z"/>
<path fill="#5C5C5C" opacity="1.000000" stroke="none" 
	d="
M14.250910,86.085289 
	C14.694157,87.765617 14.694157,89.414642 14.694157,91.777184 
	C10.779330,91.777184 6.900674,91.777184 2.566589,91.745209 
	C1.203136,87.299919 2.712571,85.243988 7.457494,85.921959 
	C9.538029,86.219238 11.688789,86.025024 14.250910,86.085289 
z"/>
<path fill="#BDBDBD" opacity="1.000000" stroke="none" 
	d="
M28.703018,28.158525 
	C29.085970,32.095753 28.912382,36.053089 29.094982,39.993919 
	C29.163130,41.464680 30.062712,42.896919 30.399126,44.672958 
	C26.850677,45.003529 23.486280,45.007858 20.121885,45.012188 
	C19.916296,39.816383 24.485556,43.295841 26.277733,41.455116 
	C26.928055,37.157990 27.608013,32.665031 28.703018,28.158525 
z"/>
<path fill="#E9E9E9" opacity="1.000000" stroke="none" 
	d="
M16.261963,51.955051 
	C19.899389,54.868393 20.087662,60.255131 16.952541,65.245117 
	C14.517091,62.145973 14.183797,57.367867 16.261963,51.955051 
z"/>
<path fill="#EFEFEF" opacity="1.000000" stroke="none" 
	d="
M62.996834,58.910770 
	C62.438927,61.153988 61.881721,62.984627 61.324516,64.815269 
	C60.776569,64.717880 60.228619,64.620491 59.680672,64.523102 
	C59.680672,60.559452 59.680672,56.595810 59.680672,52.632164 
	C60.239513,52.518986 60.798355,52.405807 61.357197,52.292629 
	C61.903976,54.361149 62.450756,56.429672 62.996834,58.910770 
z"/>
<path fill="#C1C1C2" opacity="1.000000" stroke="none" 
	d="
M20.077990,45.389709 
	C23.486280,45.007858 26.850677,45.003529 30.617315,44.996971 
	C32.256161,45.486950 33.492764,45.979153 34.956146,46.726456 
	C30.415735,47.317093 25.648550,47.652622 20.493893,48.016438 
	C20.082314,47.285557 20.058205,46.526390 20.077990,45.389709 
z"/>
<path fill="#4E4E4F" opacity="1.000000" stroke="none" 
	d="
M19.460743,89.317329 
	C32.250664,88.913017 44.960812,88.974785 58.109070,89.049805 
	C57.869118,89.950531 57.201328,91.602379 56.511475,91.611649 
	C44.859241,91.768173 33.203907,91.755058 21.550747,91.634926 
	C20.821201,91.627403 20.103945,90.428200 19.460743,89.317329 
z"/>
</svg>