<svg version="1.0" xmlns="http://www.w3.org/2000/svg"
viewBox="0 0 150.000000 150.000000"
 preserveAspectRatio="xMidYMid meet" width="2rem" height="2rem" fill="#225c74">

<g transform="translate(0.000000,150.000000) scale(0.100000,-0.100000)"
stroke="none">
<path d="M231 1372 c-19 -9 -44 -30 -55 -45 -21 -28 -21 -40 -24 -556 l-3
-527 23 -34 c45 -66 73 -75 266 -78 l172 -4 0 76 0 76 -120 0 -120 0 0 146 c0
132 -2 145 -17 143 -10 -1 -46 -1 -80 0 l-61 1 20 66 c73 243 225 458 389 551
113 65 263 93 390 74 94 -14 217 -73 282 -136 l47 -46 0 66 c0 120 -21 169
-95 219 l-38 26 -471 0 c-429 0 -474 -2 -505 -18z"/>
<path d="M873 1139 c-162 -20 -327 -185 -349 -349 -5 -44 -5 -45 34 -67 l40
-23 7 49 c15 111 104 234 203 282 65 32 179 33 238 1 63 -32 97 -65 129 -124
58 -105 32 -258 -57 -333 -108 -91 -261 -68 -318 50 -39 81 -17 160 60 213 38
25 79 28 118 8 63 -33 68 -119 7 -123 -47 -2 -48 -2 -79 -28 l-29 -23 34 -21
c43 -26 95 -27 136 -1 48 29 67 65 67 125 1 45 -4 59 -30 92 -84 105 -244 103
-333 -4 -41 -49 -65 -131 -58 -194 16 -133 136 -238 273 -239 85 0 145 23 210
83 67 61 100 122 115 215 20 124 -16 228 -113 317 -87 81 -179 109 -305 94z"/>
<path d="M1298 467 l-38 -51 0 -125 0 -124 21 19 c41 37 52 75 57 189 6 150 4
153 -40 92z"/>
</g>
</svg>